<svg width="41" height="40" viewBox="0 0 41 40" fill="none" xmlns="http://www.w3.org/2000/svg">
<g id="lets-icons:group-add-light">
<g id="Group">
<path id="Vector" d="M13.5833 17.5C15.8845 17.5 17.75 15.6345 17.75 13.3333C17.75 11.0321 15.8845 9.16666 13.5833 9.16666C11.2822 9.16666 9.41667 11.0321 9.41667 13.3333C9.41667 15.6345 11.2822 17.5 13.5833 17.5Z" stroke="#2A2A2A" stroke-width="1.66667" stroke-linecap="round"/>
<path id="Vector_2" d="M19.8633 14.1667C20.0806 13.7845 20.3713 13.4491 20.7188 13.1798C21.0662 12.9104 21.4635 12.7125 21.8877 12.5973C22.3119 12.4821 22.7548 12.452 23.1907 12.5086C23.6266 12.5653 24.0471 12.7076 24.4278 12.9274C24.8085 13.1472 25.1419 13.4402 25.409 13.7894C25.676 14.1386 25.8713 14.5372 25.9837 14.9622C26.096 15.3872 26.1232 15.8302 26.0637 16.2657C26.0041 16.7013 25.859 17.1207 25.6367 17.5C25.1915 18.2593 24.4641 18.8118 23.6131 19.0368C22.7621 19.2618 21.8566 19.141 21.0944 18.7009C20.3321 18.2608 19.7748 17.537 19.5442 16.6875C19.3135 15.8381 19.4283 14.9318 19.8633 14.1667Z" stroke="#2A2A2A" stroke-width="1.66667"/>
<path id="Vector_3" d="M21.0833 30H6.08334V31.6667H21.0833V30ZM5.39667 29.31C5.61334 27.9533 6.13334 26.025 7.35667 24.4517C8.54834 22.9183 10.4483 21.6667 13.5833 21.6667V20C9.91834 20 7.54 21.5 6.04 23.4283C4.57334 25.3183 3.98834 27.5617 3.75167 29.0467L5.39667 29.31ZM13.5833 21.6667C16.7183 21.6667 18.6167 22.9167 19.81 24.4517C21.0333 26.025 21.5533 27.9517 21.77 29.31L23.415 29.0467C23.1783 27.5633 22.595 25.3183 21.1267 23.43C19.6267 21.5 17.2483 20 13.5833 20V21.6667ZM6.08334 30C5.59667 30 5.345 29.6383 5.39667 29.31L3.75167 29.0467C3.51334 30.5367 4.72834 31.6667 6.08334 31.6667V30ZM21.0833 31.6667C22.4383 31.6667 23.6517 30.5367 23.415 29.0467L21.77 29.31C21.8217 29.6383 21.57 30 21.0833 30V31.6667Z" fill="#2A2A2A"/>
<path id="Vector_4" d="M19.9167 23.3017L19.47 22.5983L18.6117 23.1433L19.315 23.8767L19.9167 23.3017ZM27.575 30H21.0833V31.6667H27.575V30ZM28.27 29.23C28.3583 29.5883 28.0967 30 27.575 30V31.6667C29.025 31.6667 30.275 30.38 29.8867 28.825L28.27 29.23ZM22.75 23.3333C24.4633 23.3333 25.6667 24.1717 26.5467 25.345C27.4467 26.5417 27.9733 28.0533 28.27 29.23L29.8867 28.825C29.5667 27.5517 28.97 25.7983 27.88 24.3433C26.7717 22.8667 25.1167 21.6667 22.75 21.6667V23.3333ZM20.3633 24.005C21.0133 23.5933 21.7933 23.3333 22.75 23.3333V21.6667C21.47 21.6667 20.3817 22.02 19.47 22.5983L20.3633 24.005ZM19.315 23.8767C20.8933 25.5267 21.525 27.775 21.77 29.31L23.415 29.0467C23.1483 27.38 22.4433 24.7367 20.52 22.725L19.315 23.8767ZM21.77 29.31C21.8217 29.6383 21.57 30 21.0833 30V31.6667C22.4383 31.6667 23.6517 30.5367 23.415 29.0467L21.77 29.31Z" fill="#2A2A2A"/>
<path id="Vector_5" d="M34.4167 8.75H27.75C27.5199 8.75 27.3333 8.93655 27.3333 9.16667C27.3333 9.39679 27.5199 9.58333 27.75 9.58333H34.4167C34.6468 9.58333 34.8333 9.39679 34.8333 9.16667C34.8333 8.93655 34.6468 8.75 34.4167 8.75Z" stroke="#2A2A2A" stroke-width="0.833333" stroke-linecap="round"/>
<path id="Vector_6" d="M31.5 12.5V5.83332C31.5 5.6032 31.3135 5.41666 31.0833 5.41666C30.8532 5.41666 30.6667 5.6032 30.6667 5.83332V12.5C30.6667 12.7301 30.8532 12.9167 31.0833 12.9167C31.3135 12.9167 31.5 12.7301 31.5 12.5Z" stroke="#2A2A2A" stroke-width="0.833333" stroke-linecap="round"/>
</g>
</g>
</svg>
