<svg width="40" height="40" viewBox="0 0 40 40" fill="none" xmlns="http://www.w3.org/2000/svg">
<g id="bitcoin-icons:home-outline">
<path id="Vector" d="M20.6517 7.10334C20.4918 6.94049 20.3002 6.81221 20.0888 6.72644C19.8773 6.64066 19.6505 6.59923 19.4223 6.6047C19.1942 6.61017 18.9696 6.66242 18.7625 6.75823C18.5554 6.85404 18.3702 6.99135 18.2183 7.16167L7.92333 18.6933C7.65067 18.9988 7.49998 19.3939 7.5 19.8033V32.5C7.5 32.942 7.6756 33.366 7.98816 33.6785C8.30072 33.9911 8.72464 34.1667 9.16667 34.1667H14.1667C14.6087 34.1667 15.0326 33.9911 15.3452 33.6785C15.6577 33.366 15.8333 32.942 15.8333 32.5V26.6667C15.8333 26.2246 16.0089 25.8007 16.3215 25.4882C16.634 25.1756 17.058 25 17.5 25H22.5C22.942 25 23.3659 25.1756 23.6785 25.4882C23.9911 25.8007 24.1667 26.2246 24.1667 26.6667V32.5C24.1667 32.942 24.3423 33.366 24.6548 33.6785C24.9674 33.9911 25.3913 34.1667 25.8333 34.1667H30.8333C31.2754 34.1667 31.6993 33.9911 32.0118 33.6785C32.3244 33.366 32.5 32.942 32.5 32.5V19.8483C32.4995 19.4118 32.3277 18.9929 32.0217 18.6817L20.6517 7.10334Z" stroke="#2A2A2A" stroke-width="1.66667"/>
</g>
</svg>
