<svg width="41" height="40" viewBox="0 0 41 40" fill="none" xmlns="http://www.w3.org/2000/svg">
<g id="fluent:task-list-20-regular">
<path id="Vector" d="M12.458 8.70801C12.551 8.61504 12.6247 8.50466 12.675 8.38318C12.7254 8.2617 12.7513 8.1315 12.7513 8.00001C12.7513 7.86852 12.7254 7.73832 12.675 7.61685C12.6247 7.49537 12.551 7.38499 12.458 7.29201C12.365 7.19904 12.2546 7.12528 12.1332 7.07497C12.0117 7.02465 11.8815 6.99875 11.75 6.99875C11.6185 6.99875 11.4883 7.02465 11.3668 7.07497C11.2454 7.12528 11.135 7.19904 11.042 7.29201L7.75 10.586L6.458 9.29201C6.27023 9.10424 6.01555 8.99875 5.75 8.99875C5.48445 8.99875 5.22977 9.10424 5.042 9.29201C4.85423 9.47978 4.74874 9.73446 4.74874 10C4.74874 10.1315 4.77464 10.2617 4.82495 10.3832C4.87527 10.5047 4.94902 10.615 5.042 10.708L7.042 12.708C7.13489 12.8011 7.24524 12.875 7.36673 12.9254C7.48822 12.9759 7.61847 13.0018 7.75 13.0018C7.88154 13.0018 8.01178 12.9759 8.13327 12.9254C8.25476 12.875 8.36511 12.8011 8.458 12.708L12.458 8.70801ZM17.75 10C17.4848 10 17.2304 10.1054 17.0429 10.2929C16.8554 10.4804 16.75 10.7348 16.75 11C16.75 11.2652 16.8554 11.5196 17.0429 11.7071C17.2304 11.8947 17.4848 12 17.75 12H35.75C36.0152 12 36.2696 11.8947 36.4571 11.7071C36.6446 11.5196 36.75 11.2652 36.75 11C36.75 10.7348 36.6446 10.4804 36.4571 10.2929C36.2696 10.1054 36.0152 10 35.75 10H17.75ZM17.75 20C17.4848 20 17.2304 20.1054 17.0429 20.2929C16.8554 20.4804 16.75 20.7348 16.75 21C16.75 21.2652 16.8554 21.5196 17.0429 21.7071C17.2304 21.8947 17.4848 22 17.75 22H35.75C36.0152 22 36.2696 21.8947 36.4571 21.7071C36.6446 21.5196 36.75 21.2652 36.75 21C36.75 20.7348 36.6446 20.4804 36.4571 20.2929C36.2696 20.1054 36.0152 20 35.75 20H17.75ZM16.75 31C16.75 30.7348 16.8554 30.4804 17.0429 30.2929C17.2304 30.1054 17.4848 30 17.75 30H35.75C36.0152 30 36.2696 30.1054 36.4571 30.2929C36.6446 30.4804 36.75 30.7348 36.75 31C36.75 31.2652 36.6446 31.5196 36.4571 31.7071C36.2696 31.8947 36.0152 32 35.75 32H17.75C17.4848 32 17.2304 31.8947 17.0429 31.7071C16.8554 31.5196 16.75 31.2652 16.75 31ZM12.458 19.708C12.6458 19.5202 12.7513 19.2656 12.7513 19C12.7513 18.7345 12.6458 18.4798 12.458 18.292C12.2702 18.1042 12.0156 17.9987 11.75 17.9987C11.4844 17.9987 11.2298 18.1042 11.042 18.292L7.75 21.586L6.458 20.292C6.27023 20.1042 6.01555 19.9987 5.75 19.9987C5.48445 19.9987 5.22977 20.1042 5.042 20.292C4.85423 20.4798 4.74874 20.7345 4.74874 21C4.74874 21.2656 4.85423 21.5202 5.042 21.708L7.042 23.708C7.13489 23.8011 7.24524 23.875 7.36673 23.9254C7.48822 23.9758 7.61847 24.0018 7.75 24.0018C7.88154 24.0018 8.01178 23.9758 8.13327 23.9254C8.25476 23.875 8.36511 23.8011 8.458 23.708L12.458 19.708ZM12.458 28.292C12.5511 28.3849 12.625 28.4953 12.6754 28.6167C12.7258 28.7382 12.7518 28.8685 12.7518 29C12.7518 29.1315 12.7258 29.2618 12.6754 29.3833C12.625 29.5048 12.5511 29.6151 12.458 29.708L8.458 33.708C8.36511 33.8011 8.25476 33.875 8.13327 33.9254C8.01178 33.9759 7.88154 34.0018 7.75 34.0018C7.61847 34.0018 7.48822 33.9759 7.36673 33.9254C7.24524 33.875 7.13489 33.8011 7.042 33.708L5.042 31.708C4.85423 31.5202 4.74874 31.2656 4.74874 31C4.74874 30.7345 4.85423 30.4798 5.042 30.292C5.22977 30.1042 5.48445 29.9987 5.75 29.9987C6.01555 29.9987 6.27023 30.1042 6.458 30.292L7.75 31.586L11.042 28.292C11.1349 28.1989 11.2452 28.125 11.3667 28.0746C11.4882 28.0242 11.6185 27.9982 11.75 27.9982C11.8815 27.9982 12.0118 28.0242 12.1333 28.0746C12.2548 28.125 12.3651 28.1989 12.458 28.292Z" fill="#2A2A2A"/>
</g>
</svg>
