<svg width="30" height="30" viewBox="0 0 30 30" fill="none" xmlns="http://www.w3.org/2000/svg">
<g id="ph:gift-thin">
<path id="Vector" d="M25.3125 8.90625H19.548C20.0852 8.66891 20.584 8.35295 21.0281 7.96875C21.3361 7.69486 21.5842 7.36029 21.7568 6.98601C21.9295 6.61174 22.0229 6.20583 22.0312 5.79375C22.0445 5.33708 21.9644 4.88252 21.7957 4.45794C21.627 4.03336 21.3734 3.64772 21.0503 3.32467C20.7273 3.00162 20.3416 2.74798 19.9171 2.5793C19.4925 2.41062 19.0379 2.33047 18.5812 2.34375C18.1692 2.35212 17.7633 2.44554 17.389 2.61816C17.0147 2.79078 16.6801 3.03887 16.4062 3.34687C15.7137 4.12851 15.2777 5.14687 15 6.12305C14.7246 5.14687 14.2887 4.13086 13.5938 3.34687C13.3199 3.03887 12.9853 2.79078 12.611 2.61816C12.2367 2.44554 11.8308 2.35212 11.4188 2.34375C10.9621 2.33047 10.5075 2.41062 10.0829 2.5793C9.65836 2.74798 9.27272 3.00162 8.94967 3.32467C8.62662 3.64772 8.37298 4.03336 8.2043 4.45794C8.03562 4.88252 7.95547 5.33708 7.96875 5.79375C7.97712 6.20583 8.07054 6.61174 8.24316 6.98601C8.41578 7.36029 8.66387 7.69486 8.97187 7.96875C9.41599 8.35295 9.91481 8.66891 10.452 8.90625H4.6875C4.31454 8.90625 3.95685 9.05441 3.69313 9.31813C3.42941 9.58185 3.28125 9.93954 3.28125 10.3125V14.0625C3.28125 14.4355 3.42941 14.7931 3.69313 15.0569C3.95685 15.3206 4.31454 15.4687 4.6875 15.4687H5.15625V23.4375C5.15625 23.8105 5.30441 24.1681 5.56813 24.4319C5.83185 24.6956 6.18954 24.8437 6.5625 24.8437H23.4375C23.8105 24.8437 24.1681 24.6956 24.4319 24.4319C24.6956 24.1681 24.8438 23.8105 24.8438 23.4375V15.4687H25.3125C25.6855 15.4687 26.0431 15.3206 26.3069 15.0569C26.5706 14.7931 26.7188 14.4355 26.7188 14.0625V10.3125C26.7188 9.93954 26.5706 9.58185 26.3069 9.31813C26.0431 9.05441 25.6855 8.90625 25.3125 8.90625ZM17.1094 3.96797C17.2987 3.75644 17.5296 3.58627 17.7877 3.4681C18.0458 3.34994 18.3256 3.28633 18.6094 3.28125H18.6809C19.0037 3.28159 19.3232 3.34662 19.6205 3.47249C19.9177 3.59837 20.1868 3.78253 20.4117 4.01412C20.6366 4.2457 20.8129 4.52001 20.93 4.82084C21.0472 5.12167 21.1028 5.44292 21.0938 5.76562C21.0887 6.04945 21.0251 6.32917 20.9069 6.58727C20.7887 6.84538 20.6186 7.07632 20.407 7.26562C18.9902 8.51953 16.5316 8.81367 15.4852 8.88164C15.5578 7.84336 15.8508 5.39062 17.1094 3.96797ZM8.90625 5.76562C8.89717 5.44292 8.95284 5.12167 9.06999 4.82084C9.18713 4.52001 9.36337 4.2457 9.58829 4.01412C9.81321 3.78253 10.0823 3.59837 10.3795 3.47249C10.6768 3.34662 10.9963 3.28159 11.3191 3.28125H11.3906C11.6744 3.28633 11.9542 3.34994 12.2123 3.4681C12.4704 3.58627 12.7013 3.75644 12.8906 3.96797C14.1457 5.38476 14.4387 7.84336 14.5066 8.88984C13.4648 8.82187 11.0062 8.52773 9.58477 7.27383C9.37372 7.08286 9.20449 6.85027 9.08772 6.59071C8.97095 6.33115 8.90916 6.05023 8.90625 5.76562ZM4.21875 14.0625V10.3125C4.21875 10.1882 4.26814 10.0689 4.35604 9.98104C4.44395 9.89313 4.56318 9.84375 4.6875 9.84375H14.5312V14.5312H4.6875C4.56318 14.5312 4.44395 14.4819 4.35604 14.394C4.26814 14.306 4.21875 14.1868 4.21875 14.0625ZM6.09375 23.4375V15.4687H14.5312V23.9062H6.5625C6.43818 23.9062 6.31895 23.8569 6.23104 23.769C6.14314 23.681 6.09375 23.5618 6.09375 23.4375ZM23.9062 23.4375C23.9062 23.5618 23.8569 23.681 23.769 23.769C23.681 23.8569 23.5618 23.9062 23.4375 23.9062H15.4688V15.4687H23.9062V23.4375ZM25.7812 14.0625C25.7812 14.1868 25.7319 14.306 25.644 14.394C25.556 14.4819 25.4368 14.5312 25.3125 14.5312H15.4688V9.84375H25.3125C25.4368 9.84375 25.556 9.89313 25.644 9.98104C25.7319 10.0689 25.7812 10.1882 25.7812 10.3125V14.0625Z" fill="black"/>
</g>
</svg>
