<svg width="37" height="35" viewBox="0 0 37 35" fill="none" xmlns="http://www.w3.org/2000/svg">
<g id="Group">
<path id="Vector" d="M18.3766 0.267894V0.263992V0.265292L18.3749 0.263992V0.267894L0.123047 26.4804L3.08915 28.4754L7.11421 31.6513L11.979 34.9027H18.4306H18.5351L25.157 34.9235L27.8719 33.2978L36.8427 26.4804L34.6742 23.6309L19.955 3.1525L18.3766 0.267894Z" fill="#D199D6"/>
<path id="Vector_2" d="M24.8065 28.569L24.6513 28.5963L11.9775 28.4455L12.1428 34.7284L13.8021 34.9027H24.9751L24.8065 28.569Z" fill="#DDC5E9"/>
<g id="Group_2">
<g id="Clip path group">
<mask id="mask0_77_3063" style="mask-type:luminance" maskUnits="userSpaceOnUse" x="0" y="0" width="37" height="35">
<g id="SVGID_00000146461236155629723420000015241455671120858500_">
<path id="Vector_3" d="M18.3737 0.267398V0.263496V0.264796L18.372 0.263496V0.267398L0.120117 26.4799L11.3471 34.9022H18.4277H18.5322H25.6128L28.7239 32.6978L36.8398 26.4799L34.6291 23.5732L20.0633 3.31978L18.3737 0.267398Z" fill="white"/>
</g>
</mask>
<g mask="url(#mask0_77_3063)">
<g id="Group_3">
<path id="Vector_4" opacity="0.5" d="M4.97611 1.62659L1.93652 3.93735L36.1171 30.6828L39.1567 28.372L4.97611 1.62659Z" fill="white"/>
<path id="Vector_5" opacity="0.5" d="M-2.49142 7.48628L-3.76562 8.45482L30.4101 35.2002L31.6843 34.2317L-2.49142 7.48628Z" fill="white"/>
</g>
</g>
</g>
</g>
<path id="Vector_6" d="M18.7949 1.40431L24.8064 28.5688L35.971 26.562L36.8411 26.4801L34.9508 24.238L28.3037 14.6686L18.7949 1.40431Z" fill="#DDC5E9"/>
<path id="Vector_7" d="M18.2434 0.466782L11.979 28.4454L1.10275 26.5622L0.123047 26.4803L18.2434 0.466782Z" fill="#DDC5E9"/>
<g id="Group_4">
<g id="Group_5">
<path id="Vector_8" d="M2.15228 26.8081C3.38999 26.1253 4.53832 25.3528 5.68665 24.5842C6.01209 24.367 6.33754 24.1511 6.66467 23.9365C6.7473 23.8819 6.62758 23.7908 6.54495 23.8441C5.39662 24.5933 4.28201 25.3736 3.10164 26.0928C2.7627 26.2996 2.41702 26.5012 2.06628 26.6949C1.9786 26.7444 2.06291 26.8575 2.15228 26.8081Z" fill="#010101"/>
</g>
</g>
<g id="Group_6">
<g id="Group_7">
<path id="Vector_9" d="M4.30674 27.0578C5.82267 26.094 7.30488 25.1004 8.78034 24.099C9.20022 23.8142 9.62009 23.5281 10.04 23.242C10.1209 23.186 10.0012 23.095 9.92025 23.1496C8.43804 24.1588 6.95582 25.1681 5.44664 26.1526C5.02845 26.4257 4.60858 26.6962 4.18702 26.9641C4.10439 27.02 4.22411 27.1111 4.30674 27.0578Z" fill="#010101"/>
</g>
</g>
<g id="Group_8">
<g id="Group_9">
<path id="Vector_10" d="M3.07092 22.5501C4.47556 21.4668 5.94934 20.4367 7.48382 19.4626C7.91887 19.1869 8.35898 18.9151 8.80415 18.6485C8.89015 18.5978 8.77043 18.5054 8.68443 18.5562C7.11453 19.4991 5.60198 20.4992 4.15518 21.5539C3.74879 21.8504 3.34746 22.1522 2.9512 22.4578C2.87532 22.5176 2.99335 22.6087 3.07092 22.5501Z" fill="#010101"/>
</g>
</g>
<g id="Group_10">
<g id="Group_11">
<path id="Vector_11" d="M5.71321 18.7341C6.72664 17.9524 7.74176 17.1721 8.86142 16.4802C8.94573 16.4282 8.82601 16.3359 8.7417 16.3879C7.62203 17.0798 6.60692 17.8614 5.59349 18.6417C5.51592 18.7016 5.63564 18.7939 5.71321 18.7341Z" fill="#010101"/>
</g>
</g>
<g id="Group_12">
<g id="Group_13">
<path id="Vector_12" d="M5.35728 19.439C6.29989 18.8928 7.18517 18.2932 8.07214 17.695C8.15476 17.6404 8.03504 17.548 7.95241 17.6027C7.07725 18.1931 6.20209 18.7875 5.27128 19.3272C5.18528 19.3753 5.2696 19.4884 5.35728 19.439Z" fill="#010101"/>
</g>
</g>
<g id="Group_14">
<g id="Group_15">
<path id="Vector_13" d="M7.6613 15.623C9.15363 14.7412 10.5549 13.7736 11.9848 12.832C12.3828 12.5706 12.7824 12.3118 13.1871 12.0582C13.2714 12.0049 13.1517 11.9138 13.0674 11.9658C11.6307 12.8671 10.2615 13.8282 8.83493 14.736C8.4218 15 8.00192 15.2588 7.57699 15.5098C7.49099 15.5605 7.5753 15.6737 7.6613 15.623Z" fill="#010101"/>
</g>
</g>
<g id="Group_16">
<g id="Group_17">
<path id="Vector_14" d="M7.69093 31.9867C8.24064 31.231 9.08039 30.651 9.81391 30.0059C9.88473 29.9435 9.7667 29.8512 9.69419 29.9136C8.95055 30.5665 8.10069 31.1543 7.54591 31.9203C7.49195 31.9945 7.63865 32.0595 7.69093 31.9867Z" fill="#010101"/>
</g>
</g>
<g id="Group_18">
<g id="Group_19">
<path id="Vector_15" d="M6.68039 31.3768C7.55555 30.4521 8.65667 29.6822 9.70214 28.8759C9.77971 28.8161 9.65999 28.725 9.58242 28.7835C8.52514 29.5977 7.41897 30.3767 6.53369 31.3118C6.4713 31.3781 6.618 31.4432 6.68039 31.3768Z" fill="#010101"/>
</g>
</g>
<g id="Group_20">
<g id="Group_21">
<path id="Vector_16" d="M8.5248 32.6814C8.95142 32.1885 9.43031 31.7268 9.97328 31.3081C10.0509 31.2482 9.93113 31.1572 9.85356 31.2157C9.30047 31.6436 8.81315 32.1144 8.37979 32.6164C8.31908 32.6853 8.4641 32.7504 8.5248 32.6814Z" fill="#010101"/>
</g>
</g>
<g id="Group_22">
<g id="Group_23">
<path id="Vector_17" d="M13.8733 34.9348C14.5444 34.1428 15.3606 33.4327 16.2138 32.7564C17.0772 32.0723 17.981 31.4208 18.8528 30.7432C19.3401 30.3647 19.8173 29.9772 20.2676 29.5727C20.3384 29.509 20.2187 29.4166 20.1478 29.4804C19.3401 30.2048 18.4515 30.8719 17.5662 31.5378C16.6759 32.2076 15.7821 32.8774 14.9711 33.6057C14.5242 34.0063 14.1043 34.4263 13.7283 34.8685C13.6676 34.94 13.8143 35.0051 13.8733 34.9348Z" fill="#010101"/>
</g>
</g>
<g id="Group_24">
<g id="Group_25">
<path id="Vector_18" d="M17.6824 33.0402C18.6301 32.2442 19.6098 31.4717 20.571 30.6862C20.8458 30.4612 21.1207 30.2349 21.3922 30.006C21.4647 29.9449 21.3467 29.8525 21.2725 29.9136C20.3248 30.7096 19.3451 31.4821 18.3839 32.2676C18.1091 32.4926 17.8342 32.7189 17.5627 32.9478C17.4902 33.0102 17.6083 33.1026 17.6824 33.0402Z" fill="#010101"/>
</g>
</g>
<g id="Group_26">
<g id="Group_27">
<path id="Vector_19" d="M20.0571 33.6347C20.7704 32.9025 21.5089 32.1741 22.4043 31.5668C22.4853 31.5109 22.3655 31.4198 22.2846 31.4745C21.3791 32.0883 20.6321 32.827 19.9104 33.5683C19.8463 33.636 19.993 33.701 20.0571 33.6347Z" fill="#010101"/>
</g>
</g>
<g id="Group_28">
<g id="Group_29">
<path id="Vector_20" d="M27.0133 20.7289C28.1195 19.7912 29.342 18.9355 30.3858 17.9548C30.4532 17.8911 30.3352 17.7975 30.2661 17.8625C29.2223 18.8444 27.9998 19.7002 26.8936 20.6366C26.8211 20.699 26.9408 20.79 27.0133 20.7289Z" fill="#010101"/>
</g>
</g>
<g id="Group_30">
<g id="Group_31">
<path id="Vector_21" d="M29.0727 20.7162C29.7236 20.0477 30.4302 19.413 31.1957 18.8213C31.2733 18.7615 31.1536 18.6704 31.076 18.729C30.3003 19.3285 29.587 19.9723 28.9277 20.6499C28.862 20.7175 29.0087 20.7825 29.0727 20.7162Z" fill="#010101"/>
</g>
</g>
<g id="Group_32">
<g id="Group_33">
<path id="Vector_22" d="M29.3891 23.6634C30.2946 22.7062 31.4413 21.9089 32.5238 21.0753C32.6014 21.0155 32.4817 20.9244 32.4041 20.983C31.3114 21.8257 30.158 22.6307 29.2424 23.5971C29.1783 23.666 29.325 23.731 29.3891 23.6634Z" fill="#010101"/>
</g>
</g>
<g id="Group_34">
<g id="Group_35">
<path id="Vector_23" d="M24.9897 17.8682C25.9778 17.1737 26.8631 16.3999 27.7804 15.6507C28.0452 15.4335 28.315 15.219 28.5881 15.007C28.6657 14.9471 28.546 14.8561 28.4684 14.9146C27.514 15.6507 26.6287 16.4389 25.6777 17.1776C25.4146 17.3818 25.1465 17.582 24.87 17.7758C24.7907 17.8318 24.9088 17.9241 24.9897 17.8682Z" fill="#010101"/>
</g>
</g>
<g id="Group_36">
<g id="Group_37">
<path id="Vector_24" d="M28.0079 26.7548C29.3535 25.5128 30.9133 24.4256 32.3533 23.2499C32.753 22.9234 33.1442 22.5905 33.5168 22.2459C33.586 22.1821 33.4679 22.0898 33.3971 22.1535C32.0515 23.3955 30.4917 24.4828 29.0517 25.6585C28.652 25.9849 28.2608 26.3179 27.8882 26.6625C27.819 26.7275 27.9371 26.8199 28.0079 26.7548Z" fill="#010101"/>
</g>
</g>
<g id="Group_38">
<g id="Group_39">
<path id="Vector_25" d="M30.8368 25.8443C31.8485 24.8949 33.0862 24.1068 34.0963 23.1561C34.1654 23.0923 34.0457 22.9987 33.9766 23.0637C32.9648 24.0131 31.7271 24.8013 30.7171 25.752C30.6479 25.817 30.7677 25.9093 30.8368 25.8443Z" fill="#010101"/>
</g>
</g>
<g id="Group_40">
<g id="Group_41">
<path id="Vector_26" d="M24.8767 15.1799C25.6473 14.5023 26.5242 13.908 27.3504 13.272C27.428 13.2122 27.3083 13.1211 27.2307 13.1796C26.4061 13.8156 25.5276 14.41 24.757 15.0875C24.6862 15.1513 24.8059 15.2436 24.8767 15.1799Z" fill="#010101"/>
</g>
</g>
<g id="Group_42">
<g id="Group_43">
<path id="Vector_27" d="M25.2991 15.9079C26.1237 15.2719 26.8943 14.5943 27.7729 14C27.8538 13.9441 27.7358 13.853 27.6531 13.9076C26.7763 14.502 26.004 15.1783 25.1794 15.8155C25.1019 15.8754 25.2216 15.9664 25.2991 15.9079Z" fill="#010101"/>
</g>
</g>
<g id="Group_44">
<g id="Group_45">
<path id="Vector_28" d="M18.919 24.6308C19.9949 23.9389 21.0353 23.2171 22.0706 22.4888C22.3691 22.2781 22.6676 22.0674 22.966 21.8567C23.047 21.7995 22.9272 21.7085 22.8463 21.7644C21.8042 22.5005 20.7638 23.2379 19.6947 23.9519C19.3979 24.1496 19.0995 24.346 18.7993 24.5397C18.7167 24.5918 18.8364 24.6841 18.919 24.6308Z" fill="#010101"/>
</g>
</g>
<g id="Group_46">
<g id="Group_47">
<path id="Vector_29" d="M19.5945 23.2431C20.2724 22.637 21.1644 22.2014 21.8422 21.5953C21.9131 21.5329 21.7933 21.4392 21.7225 21.503C21.0447 22.109 20.1526 22.5447 19.4748 23.1508C19.4039 23.2145 19.5237 23.3068 19.5945 23.2431Z" fill="#010101"/>
</g>
</g>
<g id="Group_48">
<g id="Group_49">
<g id="Group_50">
<path id="Vector_30" d="M18.2288 0.207764C18.4126 0.618736 18.1799 0.952976 17.9151 1.21569C17.5391 1.59414 17.2457 2.00512 16.9793 2.42519C15.8495 4.20304 14.5949 5.92886 13.3538 7.66119C12.7417 8.51434 12.0807 9.34669 11.4669 10.1985C10.4434 11.6239 9.43333 13.0545 8.43676 14.4903C7.77575 15.441 7.15184 16.4086 6.49927 17.3633C5.44537 18.9083 4.40158 20.4572 3.33756 21.9971C2.9278 22.5966 2.49781 23.1897 2.08131 23.7853L1.45065 24.6788C1.24325 24.9779 1.04259 25.2784 0.841922 25.5788C0.786276 25.6633 0.740745 25.7505 0.696903 25.8402C0.658119 25.9299 0.621025 26.0197 0.578869 26.1081C0.526595 26.2148 0.486122 26.3383 0.40181 26.4176C0.342791 26.4736 0.191032 26.5074 0.130327 26.4814C0.0780537 26.4593 0.0780518 26.3357 0.0915418 26.2512C0.101659 26.1887 0.175852 26.1198 0.216322 26.0535C0.943093 24.9207 1.74575 23.8296 2.51973 22.7228C3.02223 22.0075 3.48595 21.2766 3.98171 20.5587C4.23296 20.1945 4.51624 19.8421 4.76412 19.4766L6.54986 16.817C6.66452 16.6479 6.81797 16.4945 6.93263 16.3254C7.70156 15.1848 8.457 14.0378 9.24279 12.9037C9.89536 11.9647 10.58 11.0413 11.2528 10.1101L13.3235 7.23851C13.9609 6.35544 14.6101 5.47627 15.2357 4.5893C15.5358 4.16272 15.7905 3.71924 16.0788 3.28745L17.3671 1.36915L17.8915 0.590124C17.9742 0.475676 18.0838 0.374233 18.2288 0.207764Z" fill="#010101"/>
</g>
</g>
</g>
<g id="Group_51">
<g id="Group_52">
<g id="Group_53">
<path id="Vector_31" d="M0.0664062 26.4971C0.445811 26.328 0.602632 26.4359 0.698748 26.5647C0.830275 26.7533 1.02419 26.882 1.22991 27.0004C2.11013 27.4933 2.85883 28.1019 3.60415 28.7028C3.97006 29.0006 4.29214 29.3296 4.65468 29.6301C5.26004 30.1308 5.87383 30.625 6.51629 31.0971C6.94291 31.4079 7.39314 31.7057 7.82482 32.0114C8.17387 32.2598 8.52629 32.5043 8.88209 32.7449L9.41832 33.1025L9.48577 33.1467C9.49588 33.1545 9.506 33.1584 9.53129 33.1779L9.56333 33.2027C9.59706 33.2287 9.63753 33.256 9.67968 33.282C9.76568 33.3353 9.85842 33.3886 9.95117 33.4407C10.5397 33.7671 11.1535 34.0909 11.7352 34.4707C11.8162 34.5253 11.9274 34.5539 12.0236 34.615C12.0792 34.6515 12.1652 34.697 12.1736 34.7828C12.1753 34.8153 12.1534 34.8517 12.1112 34.8804C12.0708 34.9064 12.0219 34.9077 11.9882 34.9025C11.9291 34.8843 11.8634 34.8791 11.8212 34.8752C11.7942 34.8739 11.7976 34.8387 11.7774 34.8166C11.688 34.7256 11.5598 34.6372 11.4351 34.5526C11.3069 34.4681 11.1737 34.3862 11.0388 34.3068C10.769 34.1469 10.4908 33.9921 10.2108 33.8399C10.0304 33.7411 9.84325 33.6487 9.65945 33.5499C9.56839 33.5005 9.47733 33.4498 9.38965 33.3912C9.36773 33.3769 9.34581 33.3613 9.32557 33.3444C9.31377 33.3353 9.28848 33.3197 9.26824 33.3067L9.14177 33.2235C8.97146 33.109 8.82813 32.9712 8.65951 32.858C8.24806 32.5823 7.83325 32.3079 7.43192 32.0244C7.35604 31.9697 7.30882 31.8917 7.23294 31.8371C6.71695 31.4703 6.17904 31.1231 5.67823 30.7407C5.26341 30.426 4.88232 30.0866 4.48774 29.7588L3.2669 28.7496C2.89087 28.4401 2.51652 28.1279 2.12194 27.834C1.93139 27.6936 1.70544 27.5817 1.5014 27.4542C1.19956 27.2618 0.901098 27.0693 0.594201 26.8859C0.471106 26.8092 0.341266 26.739 0.221543 26.6596C0.164211 26.6245 0.130484 26.5686 0.0664062 26.4971Z" fill="#010101"/>
</g>
</g>
</g>
<g id="Group_54">
<g id="Group_55">
<g id="Group_56">
<path id="Vector_32" d="M36.8772 26.3918C36.9936 26.7234 36.8317 26.8092 36.6479 26.8534C36.3882 26.9211 36.1842 27.0433 36.0105 27.189C35.2686 27.8002 34.4895 28.3751 33.724 28.9681C33.3479 29.2608 32.9331 29.5248 32.5588 29.82L30.6921 31.3052C30.2807 31.6316 29.8979 31.9841 29.4864 32.3144C29.1526 32.581 28.817 32.8464 28.4696 33.1039C28.301 33.2326 28.1088 33.3588 27.9503 33.4849C27.7513 33.6254 27.554 33.7294 27.3516 33.8374C26.7294 34.1625 26.0566 34.4187 25.4715 34.7491C25.3922 34.7959 25.345 34.8726 25.2978 34.9298C25.2658 34.9649 25.2675 35.0079 25.2337 34.9988C25.232 34.9975 25.227 34.9962 25.2219 34.9949C25.2118 34.9923 25.1966 34.9884 25.1848 34.9871C25.1528 34.9832 25.1528 34.9793 25.1393 34.9793C25.114 34.9754 25.0533 34.9871 25.0229 34.9897C24.9943 34.9923 24.9606 34.9806 24.9369 34.9467C24.9184 34.9207 24.9116 34.8778 24.9133 34.8531C24.9167 34.8102 24.9774 34.7894 25.0078 34.7634C25.1444 34.6567 25.2894 34.58 25.4344 34.5033C25.5794 34.4278 25.7278 34.3576 25.8762 34.2874L26.7648 33.8764C26.9537 33.7867 27.1375 33.6878 27.3146 33.5851C27.4916 33.4797 27.667 33.3796 27.8154 33.256C27.9874 33.1364 28.1762 33.0427 28.3398 32.9205C28.731 32.6253 29.1003 32.3144 29.4763 32.0075C29.5471 31.949 29.6517 31.9139 29.7225 31.8553L30.4341 31.2506L31.1508 30.6523C31.5487 30.3246 31.9736 30.0151 32.3834 29.6938C32.805 29.3635 33.2265 29.0332 33.6548 28.7067C34.0494 28.405 34.4592 28.115 34.8554 27.8146C35.0477 27.6728 35.2045 27.4998 35.3917 27.3529C35.5299 27.2423 35.6716 27.1344 35.8166 27.029C35.9599 26.9224 36.1083 26.8183 36.2567 26.7156C36.3764 26.6298 36.4978 26.5465 36.6294 26.4724C36.6934 26.4386 36.7727 26.4256 36.8772 26.3918Z" fill="#010101"/>
</g>
</g>
</g>
<g id="Group_57">
<g id="Group_58">
<g id="Group_59">
<path id="Vector_33" d="M25.0002 28.5144C24.8653 28.8291 24.7017 28.8187 24.5584 28.7641C24.3527 28.6861 24.1469 28.6809 23.9429 28.6978C23.0745 28.7745 22.2078 28.7472 21.341 28.729C20.9144 28.7199 20.4878 28.6666 20.0612 28.6562C19.3479 28.6379 18.6329 28.6314 17.9197 28.634C17.4458 28.6353 16.9737 28.6679 16.4998 28.6757C15.7343 28.6887 14.9687 28.7069 14.2049 28.7004C13.6113 28.6952 13.0177 28.6496 12.4225 28.6314C12.3399 28.6288 12.2556 28.6627 12.1729 28.6757C12.1223 28.6835 12.0667 28.7056 12.0229 28.6796C11.9925 28.6614 11.9588 28.569 11.9621 28.5144C11.9655 28.4689 12.0144 28.4168 12.0498 28.3921C12.0768 28.3739 12.1139 28.396 12.1459 28.3986C12.6973 28.4247 13.2471 28.4624 13.7968 28.4793C14.1526 28.491 14.5101 28.4663 14.8659 28.4663C15.0463 28.4663 15.2267 28.4949 15.4088 28.4923C15.8473 28.4845 16.284 28.4637 16.7224 28.4533C16.8067 28.4507 16.8894 28.4845 16.972 28.4819C17.5352 28.4663 18.1001 28.4364 18.6633 28.4325C19.1304 28.4299 19.5958 28.4572 20.0629 28.4702L21.5012 28.5092C21.9447 28.5209 22.3865 28.543 22.83 28.5443C23.0425 28.5443 23.2549 28.5066 23.4674 28.4962C23.7827 28.4806 24.098 28.4741 24.4134 28.4624C24.5415 28.4585 24.6697 28.452 24.7978 28.4559C24.8552 28.4611 24.9125 28.4897 25.0002 28.5144Z" fill="#010101"/>
</g>
</g>
</g>
<g id="Group_60">
<g id="Group_61">
<g id="Group_62">
<path id="Vector_34" d="M12.0065 28.3204C11.8092 28.6117 11.6591 28.5805 11.5394 28.5077C11.3674 28.4036 11.1786 28.3711 10.9846 28.3594C10.1634 28.3165 9.36921 28.1617 8.57668 28.0135C8.18547 27.9406 7.80944 27.8223 7.41992 27.7456C6.76903 27.6181 6.11645 27.4997 5.4605 27.3905C5.02545 27.319 4.58197 27.2761 4.14523 27.211C3.43869 27.1057 2.73216 27.0094 2.03068 26.8911C1.48602 26.8014 0.951487 26.6726 0.40683 26.5764C0.33095 26.5634 0.246633 26.5855 0.165694 26.5868C0.116793 26.5881 0.0611489 26.6024 0.0257378 26.5712C0.00213035 26.549 -0.00798978 26.4541 0.00718641 26.4008C0.0206764 26.3553 0.0780128 26.3124 0.116796 26.2928C0.145463 26.2785 0.174127 26.3058 0.204479 26.311C0.708666 26.4086 1.20779 26.5204 1.71198 26.6167C2.03743 26.6778 2.37299 26.7051 2.70181 26.7597C2.86874 26.787 3.02725 26.8417 3.19419 26.8664C3.60058 26.921 4.00696 26.9743 4.41334 27.029C4.49091 27.0394 4.55836 27.0849 4.63593 27.0953C5.15866 27.1681 5.68477 27.2266 6.20413 27.3112C6.63412 27.3814 7.054 27.4815 7.47725 27.5661L8.78746 27.8236C9.19047 27.9016 9.5918 27.9888 9.99987 28.0538C10.1955 28.085 10.4012 28.0785 10.5985 28.098C10.8936 28.1253 11.1853 28.1643 11.4787 28.1942C11.5984 28.2072 11.7182 28.2176 11.8345 28.2385C11.8851 28.2502 11.9323 28.2853 12.0065 28.3204Z" fill="#010101"/>
</g>
</g>
</g>
<g id="Group_63">
<g id="Group_64">
<g id="Group_65">
<path id="Vector_35" d="M24.7471 28.6652C24.7993 28.3374 24.9494 28.3257 25.0961 28.3595C25.3052 28.409 25.4958 28.3868 25.6796 28.3374C26.4569 28.1371 27.2562 28.0201 28.0521 27.8861C28.445 27.8211 28.8497 27.7964 29.2409 27.7288C29.8952 27.6156 30.5461 27.4895 31.1953 27.3555C31.6253 27.2671 32.0451 27.1474 32.4751 27.0551C33.1682 26.9042 33.8629 26.7534 34.5678 26.635C35.1158 26.544 35.6773 26.4972 36.2321 26.4347C36.3096 26.4256 36.3788 26.3814 36.453 26.3567C36.4985 26.3424 36.544 26.3125 36.5912 26.332C36.625 26.3463 36.6756 26.4321 36.6857 26.4855C36.6941 26.531 36.6604 26.5882 36.6334 26.6168C36.6132 26.6376 36.5744 26.6207 36.544 26.6233C36.0297 26.6701 35.5154 26.713 35.0045 26.7833C34.674 26.8288 34.3553 26.9094 34.0298 26.9706C33.8646 27.0005 33.6909 27.0031 33.5273 27.0382C33.1311 27.1214 32.7382 27.2203 32.3436 27.3087C32.2677 27.3256 32.1817 27.3087 32.1075 27.3269C31.6 27.444 31.0975 27.5792 30.5865 27.6859C30.1633 27.7756 29.7299 27.8341 29.3016 27.9069L27.9762 28.1254C27.5682 28.1905 27.1567 28.2438 26.7486 28.3127C26.553 28.3452 26.3692 28.4181 26.1753 28.4597C25.887 28.5208 25.5986 28.578 25.3086 28.6301C25.1906 28.6522 25.0725 28.6756 24.9528 28.6886C24.8938 28.6964 24.8331 28.6769 24.7471 28.6652Z" fill="#010101"/>
</g>
</g>
</g>
<g id="Group_66">
<g id="Group_67">
<path id="Vector_36" d="M18.2128 0.30154C18.9632 2.13661 20.184 3.83642 21.4555 5.48291C22.103 6.32176 22.7707 7.15021 23.4216 7.98776C24.054 8.8019 24.6509 9.63035 25.231 10.4679C26.467 12.2509 27.6811 14.0431 28.912 15.8274C29.5157 16.7014 30.1228 17.5741 30.7399 18.4428C31.3284 19.27 31.9405 20.088 32.5341 20.9126C33.7499 22.5994 34.6975 24.4032 36.1511 25.9847C36.3349 26.1837 36.5254 26.3801 36.7227 26.5712C36.8576 26.7026 37.0937 26.5179 36.9605 26.3879C35.4041 24.8675 34.4075 23.091 33.2491 21.3886C32.6757 20.5471 32.0451 19.7291 31.4482 18.898C30.8377 18.0475 30.2391 17.193 29.6439 16.336C28.4146 14.5633 27.2056 12.7816 25.983 11.0063C25.4013 10.161 24.8212 9.31561 24.1956 8.48977C23.5666 7.66002 22.9107 6.84198 22.2649 6.02004C20.9732 4.37485 19.69 2.69844 18.8249 0.886785C18.7221 0.670895 18.626 0.453705 18.5366 0.235213C18.4725 0.0739457 18.1471 0.141573 18.2128 0.30154Z" fill="#010101"/>
</g>
</g>
<g id="Group_68">
<g id="Group_69">
<path id="Vector_37" d="M18.2136 0.52779C17.3502 2.29263 16.927 4.16281 16.5948 6.02519C16.4262 6.96809 16.2811 7.91358 16.1193 8.85648C15.9591 9.78637 15.7635 10.7111 15.551 11.6344C15.1058 13.571 14.6387 15.5049 14.1885 17.4414C13.7568 19.2999 13.3386 21.1609 12.9845 23.0298C12.6878 24.5931 12.3556 26.1511 11.9863 27.7053C11.9306 27.9407 11.875 28.1748 11.8177 28.4102C11.7789 28.574 12.1043 28.6443 12.1431 28.4791C12.5124 26.9315 12.8699 25.3825 13.17 23.8245C13.5309 21.9608 13.917 20.101 14.342 18.2451C14.7871 16.3034 15.2559 14.3643 15.7078 12.4239C15.9253 11.4914 16.1446 10.5602 16.3182 9.6225C16.4902 8.69261 16.6353 7.76012 16.7921 6.82763C17.1091 4.94314 17.4733 3.04564 18.2456 1.23399C18.3367 1.0194 18.4345 0.806108 18.5373 0.595419C18.6149 0.440655 18.2895 0.373026 18.2136 0.52779Z" fill="#010101"/>
</g>
</g>
<g id="Group_70">
<g id="Group_71">
<path id="Vector_38" d="M18.0783 0.596848C18.9382 2.35518 19.3615 4.21626 19.6937 6.07084C20.0276 7.93582 20.3058 9.8021 20.7307 11.6567C21.1759 13.5932 21.643 15.5258 22.0932 17.461C22.5232 19.3104 22.9414 21.1624 23.2938 23.0221C23.6041 24.6556 24.083 26.2657 24.373 27.9018C24.4135 28.1333 24.4506 28.3648 24.486 28.5963C24.5113 28.7601 24.8485 28.7627 24.8232 28.5963C24.5804 26.968 24.1201 25.3709 23.7795 23.7556C23.5855 22.8362 23.4186 21.9141 23.2247 20.9946C23.024 20.0478 22.8116 19.1023 22.5957 18.1568C22.1505 16.2151 21.6818 14.2773 21.2299 12.3369C21.014 11.4096 20.7948 10.4823 20.6228 9.5485C20.4474 8.6043 20.3024 7.6562 20.1422 6.71071C19.8252 4.84313 19.4627 2.96514 18.6971 1.17039C18.6061 0.954499 18.5066 0.741208 18.4037 0.52922C18.3261 0.373154 18.0007 0.440783 18.0783 0.596848Z" fill="#010101"/>
</g>
</g>
<g id="Group_72">
<g id="Group_73">
<g id="Group_74">
<path id="Vector_39" d="M11.8134 28.4455C12.2215 28.5118 12.2097 28.5911 12.1405 28.6614C12.041 28.7628 12.036 28.8642 12.063 28.9644C12.1759 29.3884 12.1675 29.8149 12.1743 30.2415C12.1776 30.4522 12.1237 30.6629 12.1254 30.8736C12.1287 31.2247 12.1456 31.5759 12.1709 31.927C12.1877 32.1585 12.2366 32.3952 12.2586 32.6241C12.2957 32.9961 12.3581 33.368 12.3817 33.7452C12.3901 33.8921 12.3867 34.0365 12.3766 34.19C12.3631 34.3343 12.3513 34.4813 12.3429 34.6296C12.3395 34.6712 12.385 34.7128 12.4019 34.757C12.412 34.783 12.439 34.8168 12.4019 34.8441C12.3867 34.8611 12.3513 34.8637 12.3041 34.878C12.2451 34.9079 12.1995 34.8819 12.1793 34.8624C12.1692 34.8532 12.1591 34.8441 12.1422 34.8402C12.1355 34.8376 12.127 34.8376 12.1186 34.8389C12.1119 34.8376 12.1051 34.835 12.0984 34.8324C12.0714 34.8246 12.0478 34.8168 12.0326 34.8077C12.0107 34.7973 12.0394 34.7804 12.0427 34.7661C12.0613 34.6361 12.0765 34.4995 12.0899 34.3642C12.1034 34.2277 12.1152 34.0937 12.1152 33.9585C12.1152 33.7829 12.068 33.6099 12.0528 33.4344C12.0444 33.3459 12.0748 33.2549 12.063 33.1664C12.0343 32.9519 11.9905 32.7373 11.9685 32.5201C11.9635 32.4785 12.0039 32.4368 12.0006 32.3965C11.9702 32.1195 11.9129 31.8438 11.8893 31.5681C11.8707 31.3392 11.8893 31.109 11.8893 30.8801L11.8876 30.1713C11.8893 29.9528 11.9011 29.7343 11.8927 29.5171C11.8876 29.4131 11.8336 29.309 11.8151 29.2037C11.7881 29.0489 11.7729 28.8929 11.7578 28.7368C11.751 28.6731 11.7426 28.6093 11.7476 28.5456C11.746 28.517 11.783 28.4884 11.8134 28.4455Z" fill="#010101"/>
</g>
</g>
</g>
<g id="Group_75">
<g id="Group_76">
<g id="Group_77">
<path id="Vector_40" d="M24.8259 28.4452C25.234 28.5115 25.2205 28.5922 25.1497 28.6637C25.0485 28.7652 25.0401 28.8653 25.062 28.9667C25.1581 29.3946 25.1176 29.8225 25.0907 30.2491C25.0772 30.4598 25.0064 30.6679 24.9929 30.8772C24.9693 31.2284 24.9625 31.5795 24.9726 31.9294C24.9777 32.1635 25.03 32.3911 25.0451 32.6278C25.0687 33.0075 25.0772 33.3886 25.0536 33.7632C25.0451 33.9075 25.0215 34.0571 24.9996 34.1949C24.9811 34.3432 24.9541 34.4889 24.9423 34.6332C24.9389 34.6735 24.9827 34.7138 24.9996 34.7516C25.0097 34.775 25.0401 34.7971 25.008 34.8127C25.0013 34.814 24.9895 34.8153 24.9743 34.8166C24.9659 34.8179 24.9575 34.8192 24.949 34.8205C24.922 34.8244 24.8816 34.8348 24.8748 34.8296C24.8158 34.827 24.7956 34.8595 24.8006 34.853C24.7922 34.8595 24.7787 34.8673 24.7602 34.866C24.7517 34.866 24.7416 34.8634 24.7315 34.8582L24.7079 34.853C24.6775 34.8439 24.6506 34.8309 24.6354 34.8231C24.6101 34.8075 24.6388 34.788 24.6404 34.7711C24.6539 34.6293 24.6809 34.4967 24.7028 34.3614C24.7231 34.2261 24.7416 34.0909 24.7618 33.9556C24.7838 33.7814 24.7585 33.6045 24.7652 33.4289C24.7686 33.3405 24.8091 33.252 24.8074 33.1636C24.8023 32.9477 24.777 32.7331 24.7568 32.5198C24.7534 32.4795 24.7939 32.4379 24.7905 32.3963C24.7618 32.118 24.7163 31.8396 24.7096 31.5613C24.7028 31.3311 24.7382 31.1022 24.7568 30.872L24.8108 30.1645C24.8276 29.9474 24.858 29.7302 24.863 29.5117C24.8647 29.4076 24.8158 29.3023 24.804 29.1969C24.7855 29.0422 24.777 28.8861 24.7635 28.7313C24.7585 28.6689 24.75 28.6052 24.7568 28.5428C24.7568 28.5155 24.7939 28.4881 24.8259 28.4452Z" fill="#010101"/>
</g>
</g>
</g>
</g>
</svg>
