<svg width="30" height="30" viewBox="0 0 30 30" fill="none" xmlns="http://www.w3.org/2000/svg">
<g id="lets-icons:group-add-light">
<g id="Group">
<path id="Vector" d="M10 13.125C11.7259 13.125 13.125 11.7259 13.125 10C13.125 8.27411 11.7259 6.875 10 6.875C8.27411 6.875 6.875 8.27411 6.875 10C6.875 11.7259 8.27411 13.125 10 13.125Z" stroke="#2A2A2A" stroke-linecap="round"/>
<path id="Vector_2" d="M14.7099 10.625C14.8728 10.3384 15.0909 10.0868 15.3515 9.88483C15.612 9.68283 15.91 9.53436 16.2282 9.44798C16.5463 9.36159 16.8785 9.339 17.2054 9.3815C17.5324 9.42399 17.8477 9.53074 18.1332 9.69559C18.4187 9.86045 18.6688 10.0802 18.8691 10.3421C19.0694 10.604 19.2159 10.9029 19.3001 11.2216C19.3844 11.5404 19.4048 11.8727 19.3601 12.1993C19.3155 12.526 19.2066 12.8406 19.0399 13.125C18.706 13.6945 18.1604 14.1089 17.5222 14.2776C16.8839 14.4463 16.2049 14.3558 15.6332 14.0257C15.0614 13.6956 14.6435 13.1528 14.4705 12.5157C14.2976 11.8786 14.3836 11.1989 14.7099 10.625Z" stroke="#2A2A2A"/>
<path id="Vector_3" d="M15.6249 22.5H4.37495V23.75H15.6249V22.5ZM3.85995 21.9825C4.02245 20.965 4.41245 19.5187 5.32995 18.3387C6.2237 17.1887 7.6487 16.25 9.99995 16.25V15C7.2512 15 5.46745 16.125 4.34245 17.5713C3.24245 18.9887 2.8037 20.6712 2.6262 21.785L3.85995 21.9825ZM9.99995 16.25C12.3512 16.25 13.7749 17.1875 14.6699 18.3387C15.5875 19.5187 15.9774 20.9638 16.1399 21.9825L17.3737 21.785C17.1962 20.6725 16.7587 18.9887 15.6574 17.5725C14.5324 16.125 12.7487 15 9.99995 15V16.25ZM4.37495 22.5C4.00995 22.5 3.8212 22.2288 3.85995 21.9825L2.6262 21.785C2.44745 22.9025 3.3587 23.75 4.37495 23.75V22.5ZM15.6249 23.75C16.6412 23.75 17.5512 22.9025 17.3737 21.785L16.1399 21.9825C16.1787 22.2288 15.9899 22.5 15.6249 22.5V23.75Z" fill="#2A2A2A"/>
<path id="Vector_4" d="M14.75 17.4762L14.415 16.9488L13.7712 17.3575L14.2987 17.9075L14.75 17.4762ZM20.4937 22.5H15.625V23.75H20.4937V22.5ZM21.015 21.9225C21.0812 22.1913 20.885 22.5 20.4937 22.5V23.75C21.5812 23.75 22.5187 22.785 22.2275 21.6188L21.015 21.9225ZM16.875 17.5C18.16 17.5 19.0625 18.1287 19.7225 19.0087C20.3975 19.9062 20.7925 21.04 21.015 21.9225L22.2275 21.6188C21.9875 20.6638 21.54 19.3487 20.7225 18.2575C19.8912 17.15 18.65 16.25 16.875 16.25V17.5ZM15.085 18.0037C15.5725 17.695 16.1575 17.5 16.875 17.5V16.25C15.915 16.25 15.0987 16.515 14.415 16.9488L15.085 18.0037ZM14.2987 17.9075C15.4825 19.145 15.9562 20.8313 16.14 21.9825L17.3737 21.785C17.1737 20.535 16.645 18.5525 15.2025 17.0438L14.2987 17.9075ZM16.14 21.9825C16.1787 22.2288 15.99 22.5 15.625 22.5V23.75C16.6412 23.75 17.5512 22.9025 17.3737 21.785L16.14 21.9825Z" fill="#2A2A2A"/>
<path id="Vector_5" d="M25.625 6.5625H20.625C20.4524 6.5625 20.3125 6.70241 20.3125 6.875C20.3125 7.04759 20.4524 7.1875 20.625 7.1875H25.625C25.7976 7.1875 25.9375 7.04759 25.9375 6.875C25.9375 6.70241 25.7976 6.5625 25.625 6.5625Z" stroke="#2A2A2A" stroke-width="0.833333" stroke-linecap="round"/>
<path id="Vector_6" d="M23.4375 9.375V4.375C23.4375 4.20241 23.2976 4.0625 23.125 4.0625C22.9524 4.0625 22.8125 4.20241 22.8125 4.375V9.375C22.8125 9.54759 22.9524 9.6875 23.125 9.6875C23.2976 9.6875 23.4375 9.54759 23.4375 9.375Z" stroke="#2A2A2A" stroke-width="0.833333" stroke-linecap="round"/>
</g>
</g>
</svg>
