<svg width="36" height="35" viewBox="0 0 36 35" fill="none" xmlns="http://www.w3.org/2000/svg">
<g id="Group">
<g id="Group_2">
<path id="Vector" d="M35.6706 18.1124L26.9465 9.29935L18.0486 0.311768L9.15072 9.29935L0.252869 18.2869L18.0486 35L35.6706 18.1124Z" fill="#67AFD7"/>
</g>
<g id="Group_3">
<path id="Vector_2" d="M6.55007 18.217L0.468872 18.2868L6.14852 23.9554L13.9827 31.2272L17.8959 34.5496L18.141 28.8078L6.55007 18.217Z" fill="#409ACC"/>
<path id="Vector_3" d="M29.4503 18.0606L35.6705 18.1124L18.2937 0.560547L18.1374 6.54326L29.4503 18.0606Z" fill="#409ACC"/>
</g>
<path id="Vector_4" d="M35.8577 18.1641L29.4506 18.0605" stroke="#010101" stroke-width="2" stroke-miterlimit="10"/>
<path id="Vector_5" d="M0.470551 18.217L7.1982 18.1731" stroke="#010101" stroke-width="2" stroke-miterlimit="10"/>
<path id="Vector_6" d="M18.0485 0.311523L18.1373 6.54304" stroke="#010101" stroke-width="2" stroke-miterlimit="10"/>
<path id="Vector_7" d="M18.0485 28.7246L18.1373 34.9561" stroke="#010101" stroke-width="2" stroke-miterlimit="10"/>
<g id="Group_4">
<g id="Clip path group">
<mask id="mask0_77_2664" style="mask-type:luminance" maskUnits="userSpaceOnUse" x="0" y="0" width="36" height="35">
<g id="SVGID_00000099628245816368665970000001759635861027153059_">
<path id="Vector_8" d="M35.8426 18.2869L26.9448 9.29935L18.0469 0.311768L9.14904 9.29935L0.25119 18.2869L8.70117 26.2218L18.0218 34.6758L35.8426 18.2869Z" fill="white"/>
</g>
</mask>
<g mask="url(#mask0_77_2664)">
<g id="Group_5">
<path id="Vector_9" opacity="0.5" d="M4.20163 3.67299L0.72168 5.67334L39.8542 28.826L43.3342 26.8256L4.20163 3.67299Z" fill="white"/>
<path id="Vector_10" opacity="0.5" d="M-5.59618 8.93464L-7.05499 9.7732L32.0775 32.9258L33.5363 32.0873L-5.59618 8.93464Z" fill="white"/>
</g>
</g>
</g>
</g>
<g id="Group_6">
<path id="Vector_11" d="M29.4512 18.0606L23.7503 12.3019L18.0494 6.54321L12.3485 12.3019L6.64761 18.0606L18.0494 28.7684L29.4512 18.0606Z" fill="#8DC2E1"/>
</g>
<g id="Group_7">
<g id="Group_8">
<path id="Vector_12" d="M12.5067 23.7206C13.4123 23.0866 14.2485 22.4177 15.0962 21.7578C15.1715 21.6992 15.0035 21.644 14.9301 21.7015C14.0921 22.3535 13.2656 23.0145 12.3715 23.6418C12.2924 23.6958 12.4275 23.7758 12.5067 23.7206Z" fill="#010101"/>
</g>
</g>
<g id="Group_9">
<g id="Group_10">
<path id="Vector_13" d="M13.4227 24.6095C14.9324 23.3553 16.7935 22.2621 18.4692 21.0856C18.9055 20.7794 19.3302 20.4675 19.7279 20.1433C19.8012 20.0847 19.6333 20.0284 19.5619 20.087C18.0445 21.3209 16.1873 22.3995 14.5405 23.5726C14.0946 23.8912 13.6602 24.2154 13.2548 24.5532C13.1834 24.6117 13.3513 24.668 13.4227 24.6095Z" fill="#010101"/>
</g>
</g>
<g id="Group_11">
<g id="Group_12">
<path id="Vector_14" d="M14.4355 25.4462C15.123 25.0442 15.7447 24.6061 16.3665 24.1703C16.4457 24.1151 16.3105 24.0352 16.2294 24.0904C15.6076 24.5262 14.9859 24.9642 14.2984 25.3663C14.2115 25.4181 14.3486 25.498 14.4355 25.4462Z" fill="#010101"/>
</g>
</g>
<g id="Group_13">
<g id="Group_14">
<path id="Vector_15" d="M15.4826 26.6368C16.2608 25.96 17.2533 25.3823 18.1705 24.7708C18.2516 24.7167 18.1164 24.6368 18.0334 24.6908C17.1046 25.3091 16.1024 25.8935 15.3146 26.5793C15.247 26.6401 15.415 26.6964 15.4826 26.6368Z" fill="#010101"/>
</g>
</g>
<g id="Group_15">
<g id="Group_16">
<path id="Vector_16" d="M9.81908 20.8569C10.8136 19.929 11.8969 19.036 12.9995 18.152C13.3104 17.902 13.6251 17.6531 13.9379 17.4043C14.0113 17.3457 13.8433 17.2894 13.7719 17.348C12.6654 18.2275 11.5609 19.107 10.5239 20.0146C10.2265 20.2747 9.93688 20.5371 9.65302 20.8018C9.58736 20.8626 9.75343 20.9189 9.81908 20.8569Z" fill="#010101"/>
</g>
</g>
<g id="Group_17">
<g id="Group_18">
<path id="Vector_17" d="M22.6913 16.2033C23.5255 15.4949 24.6011 14.9037 25.5724 14.263C25.6535 14.2089 25.5183 14.129 25.4353 14.183C24.4524 14.8317 23.3672 15.4308 22.5233 16.1458C22.4538 16.2066 22.6218 16.263 22.6913 16.2033Z" fill="#010101"/>
</g>
</g>
<g id="Group_19">
<g id="Group_20">
<path id="Vector_18" d="M22.6112 17.7537C23.9533 16.8978 25.39 16.096 26.7957 15.2762C26.8846 15.2244 26.7475 15.1456 26.6586 15.1963C25.2529 16.0161 23.8162 16.8179 22.4741 17.6737C22.3911 17.7266 22.5263 17.8066 22.6112 17.7537Z" fill="#010101"/>
</g>
</g>
<g id="Group_21">
<g id="Group_22">
<path id="Vector_19" d="M25.0556 17.1904C25.6561 16.8402 26.2567 16.49 26.8572 16.1397C26.9461 16.0879 26.809 16.0091 26.7201 16.0598C26.1196 16.41 25.5191 16.7602 24.9185 17.1104C24.8316 17.1622 24.9687 17.2411 25.0556 17.1904Z" fill="#010101"/>
</g>
</g>
<g id="Group_23">
<g id="Group_24">
<path id="Vector_20" d="M18.3767 13.3891C19.2804 12.6582 20.3348 11.9972 21.2732 11.281C21.5436 11.0749 21.8023 10.8655 22.0457 10.6481C22.1132 10.5873 21.9472 10.531 21.8796 10.5918C21.0261 11.3508 19.9756 12.022 19.0043 12.7269C18.732 12.9251 18.4656 13.1256 18.2107 13.3317C18.1373 13.3913 18.3053 13.4477 18.3767 13.3891Z" fill="#010101"/>
</g>
</g>
<g id="Group_25">
<g id="Group_26">
<path id="Vector_21" d="M20.6946 13.2004C21.3357 12.6058 22.1158 12.0698 22.8689 11.5225C22.9461 11.4662 22.811 11.3862 22.7318 11.4425C21.971 11.9977 21.1773 12.5405 20.5285 13.143C20.4629 13.2049 20.6289 13.2623 20.6946 13.2004Z" fill="#010101"/>
</g>
</g>
<g id="Group_27">
<g id="Group_28">
<path id="Vector_22" d="M21.6472 13.3629C22.1493 12.998 22.6803 12.6467 23.1438 12.2627C23.2152 12.203 23.0472 12.1467 22.9777 12.2063C22.5259 12.5813 22.0045 12.9259 21.5121 13.284C21.4329 13.3392 21.5681 13.4192 21.6472 13.3629Z" fill="#010101"/>
</g>
</g>
<g id="Group_29">
<g id="Group_30">
<path id="Vector_23" d="M10.6562 21.4947C11.2027 20.8235 12.062 20.2627 12.7803 19.6557C12.8517 19.596 12.6837 19.5397 12.6142 19.5994C11.8959 20.2064 11.0366 20.7683 10.4901 21.4384C10.436 21.5025 10.6021 21.56 10.6562 21.4947Z" fill="#010101"/>
</g>
</g>
<g id="Group_31">
<g id="Group_32">
<path id="Vector_24" d="M1.43855 17.3035C2.70144 16.5986 4.15934 16.0299 5.55739 15.424C5.94939 15.254 6.33752 15.0806 6.716 14.9015C6.81255 14.8553 6.67546 14.7765 6.57891 14.8215C5.2272 15.4623 3.75962 16.0141 2.40791 16.656C2.0275 16.8373 1.65675 17.0254 1.30145 17.2235C1.21262 17.2742 1.34973 17.3531 1.43855 17.3035Z" fill="#010101"/>
</g>
</g>
<g id="Group_33">
<g id="Group_34">
<path id="Vector_25" d="M4.01233 14.939C5.29453 14.2296 6.66941 13.5798 8.06746 12.9492C8.16594 12.9053 8.02885 12.8253 7.93037 12.8692C6.53231 13.4998 5.15743 14.1485 3.87524 14.8591C3.78641 14.9086 3.92351 14.9886 4.01233 14.939Z" fill="#010101"/>
</g>
</g>
<g id="Group_35">
<g id="Group_36">
<path id="Vector_26" d="M3.30648 15.6515C3.90317 15.2281 4.66399 14.8981 5.41129 14.5715C5.50977 14.5288 5.41322 14.4308 5.31474 14.4747C4.55392 14.8069 3.77958 15.1414 3.17131 15.5727C3.09021 15.6278 3.22731 15.7078 3.30648 15.6515Z" fill="#010101"/>
</g>
</g>
<g id="Group_37">
<g id="Group_38">
<path id="Vector_27" d="M10.0635 27.645C10.8263 27.0876 11.5523 26.5133 12.317 25.9558C12.3943 25.8995 12.2572 25.8196 12.1799 25.8759C11.4172 26.4333 10.6911 27.0076 9.92643 27.5651C9.84919 27.6214 9.98436 27.7013 10.0635 27.645Z" fill="#010101"/>
</g>
</g>
<g id="Group_39">
<g id="Group_40">
<path id="Vector_28" d="M10.7047 28.2646C11.732 27.5169 12.8307 26.7996 13.7441 26.0012C13.8136 25.9403 13.6456 25.884 13.578 25.9449C12.6724 26.7354 11.5852 27.4448 10.5676 28.1858C10.4923 28.241 10.6275 28.321 10.7047 28.2646Z" fill="#010101"/>
</g>
</g>
<g id="Group_41">
<g id="Group_42">
<path id="Vector_29" d="M12.9747 30.0509C13.415 29.614 13.9904 29.2356 14.5678 28.8606C14.6508 28.8066 14.5137 28.7266 14.4307 28.7807C13.8417 29.1624 13.2547 29.5487 12.8067 29.9935C12.7449 30.0566 12.911 30.1129 12.9747 30.0509Z" fill="#010101"/>
</g>
</g>
<g id="Group_43">
<g id="Group_44">
<path id="Vector_30" d="M14.3233 31.5923C14.8447 30.9538 15.7001 30.4425 16.3837 29.8659C16.4552 29.8062 16.2872 29.7499 16.2176 29.8096C15.5341 30.3862 14.6786 30.8974 14.1573 31.536C14.1051 31.6013 14.2712 31.6576 14.3233 31.5923Z" fill="#010101"/>
</g>
</g>
<g id="Group_45">
<g id="Group_46">
<path id="Vector_31" d="M14.8107 31.8685C15.3263 31.418 15.8824 30.9845 16.4695 30.5656C16.5467 30.5104 16.4115 30.4293 16.3323 30.4856C15.7357 30.9124 15.1679 31.3527 14.6446 31.811C14.5751 31.873 14.7431 31.9293 14.8107 31.8685Z" fill="#010101"/>
</g>
</g>
<g id="Group_47">
<g id="Group_48">
<path id="Vector_32" d="M26.8585 12.9868C27.5652 12.4631 28.3048 11.9564 29.112 11.4857C29.2008 11.4339 29.0637 11.3551 28.9749 11.4057C28.1677 11.8776 27.4281 12.3843 26.7214 12.9068C26.6461 12.9643 26.7812 13.0442 26.8585 12.9868Z" fill="#010101"/>
</g>
</g>
<g id="Group_49">
<g id="Group_50">
<path id="Vector_33" d="M28.1583 12.901C28.5928 12.5395 29.0562 12.1916 29.5583 11.8616C29.6413 11.8076 29.5042 11.7276 29.4212 11.7817C28.9075 12.1195 28.4344 12.4753 27.9903 12.8436C27.9208 12.9033 28.0868 12.9596 28.1583 12.901Z" fill="#010101"/>
</g>
</g>
<g id="Group_51">
<g id="Group_52">
<path id="Vector_34" d="M25.1499 11.298C25.8702 10.8386 26.521 10.3465 27.2103 9.87125C27.2895 9.81607 27.1543 9.73612 27.0732 9.7913C26.3858 10.2665 25.7331 10.7586 25.0129 11.2181C24.9298 11.2721 25.0669 11.3521 25.1499 11.298Z" fill="#010101"/>
</g>
</g>
<g id="Group_53">
<g id="Group_54">
<path id="Vector_35" d="M24.7029 9.75236C25.2184 9.4134 25.7051 9.05868 26.1839 8.7017C26.2593 8.64539 26.1241 8.56544 26.0468 8.62174C25.5699 8.97985 25.0833 9.33345 24.5658 9.67241C24.4847 9.72759 24.6198 9.80754 24.7029 9.75236Z" fill="#010101"/>
</g>
</g>
<g id="Group_55">
<g id="Group_56">
<path id="Vector_36" d="M29.4302 15.8768C30.2779 15.3452 31.1932 14.8509 32.1336 14.3757C32.2282 14.3284 32.0911 14.2484 31.9965 14.2957C31.0561 14.7709 30.1408 15.2653 29.2931 15.7968C29.2101 15.8497 29.3452 15.9297 29.4302 15.8768Z" fill="#010101"/>
</g>
</g>
<g id="Group_57">
<g id="Group_58">
<path id="Vector_37" d="M30.8468 16.327C31.457 15.9329 32.1039 15.5579 32.7778 15.2009C32.8705 15.1525 32.7334 15.0726 32.6408 15.121C31.9668 15.478 31.3199 15.853 30.7097 16.2471C30.6286 16.3011 30.7638 16.3811 30.8468 16.327Z" fill="#010101"/>
</g>
</g>
<g id="Group_59">
<g id="Group_60">
<path id="Vector_38" d="M31.364 16.8902C31.9433 16.5152 32.5593 16.1604 33.2313 15.8395C33.3279 15.7933 33.1908 15.7145 33.0942 15.7595C32.4242 16.0805 31.8082 16.4352 31.2269 16.8102C31.1439 16.8643 31.281 16.9442 31.364 16.8902Z" fill="#010101"/>
</g>
</g>
<g id="Group_61">
<g id="Group_62">
<g id="Group_63">
<g id="Group_64">
<g id="Group_65">
<g id="Group_66">
<path id="Vector_39" d="M17.8847 0.256348C18.1009 0.580589 17.8673 0.797877 17.6028 0.973508C17.2244 1.22457 16.9406 1.50716 16.6916 1.79875C15.6356 3.03492 14.4541 4.23056 13.2784 5.42845C12.6992 6.01952 12.0622 6.58919 11.4772 7.17801C10.5023 8.16199 9.53509 9.14823 8.57561 10.1367C7.93853 10.792 7.34007 11.4596 6.70685 12.1148C5.68173 13.1765 4.65469 14.237 3.59482 15.2852C2.77048 16.1003 1.89208 16.8974 1.0465 17.7057C0.928742 17.8183 0.857311 17.9478 0.756923 18.0683C0.697077 18.1403 0.648815 18.227 0.554219 18.2765C0.488581 18.3103 0.324479 18.3159 0.258841 18.2878C0.202855 18.2642 0.206718 18.173 0.224092 18.1133C0.237606 18.0694 0.316755 18.0288 0.365018 17.9849C1.16233 17.2419 1.9693 16.5022 2.74924 15.7535C3.25311 15.2694 3.71258 14.7684 4.20293 14.2776C4.45197 14.0287 4.7377 13.7923 4.98095 13.5424C5.56783 12.9367 6.1412 12.3253 6.72037 11.7163C6.83041 11.6003 6.98678 11.499 7.09682 11.3819C7.84201 10.5972 8.5621 9.80459 9.31501 9.02326C9.93858 8.3759 10.5988 7.74093 11.2378 7.09807L13.2031 5.11435C13.8074 4.50414 14.4213 3.89619 15.012 3.28148C15.2939 2.98651 15.5275 2.67465 15.7958 2.37518C16.1955 1.92935 16.6067 1.48802 17.0179 1.04556C17.1858 0.865427 17.3519 0.684166 17.5333 0.508535C17.6183 0.431978 17.7341 0.365554 17.8847 0.256348Z" fill="#010101"/>
</g>
</g>
</g>
</g>
<g id="Group_67">
<g id="Group_68">
<g id="Group_69">
<g id="Group_70">
<path id="Vector_40" d="M17.6765 0.142822C18.2673 0.192359 18.4835 0.424282 18.609 0.64945C18.7924 0.970314 19.0646 1.26191 19.3677 1.54112C20.6495 2.72325 21.7963 3.95041 22.9681 5.16857C23.5454 5.76977 24.0666 6.38785 24.6458 6.98793C25.613 7.99105 26.6033 8.98517 27.6072 9.9759C28.2732 10.6311 28.9798 11.2729 29.6594 11.9247C30.7559 12.9785 31.866 14.0278 32.9413 15.0906C33.7753 15.9158 34.5591 16.7602 35.3718 17.5933C35.4857 17.7093 35.646 17.8106 35.7792 17.9198C35.8603 17.9862 35.9665 18.0549 35.9954 18.127C36.0147 18.1776 35.9433 18.2643 35.8699 18.2835C35.8062 18.3004 35.6711 18.2531 35.59 18.2148C35.5301 18.1866 35.507 18.1247 35.4626 18.0797C34.7232 17.304 33.9954 16.5249 33.2386 15.7548C32.7482 15.2561 32.2135 14.7742 31.7077 14.2811C31.4509 14.0312 31.2308 13.7677 30.9721 13.5189L29.0648 11.7187C28.9451 11.6039 28.8678 11.4733 28.7462 11.3584C27.9315 10.5839 27.1014 9.81604 26.308 9.03358C25.6516 8.38622 25.0357 7.72423 24.4064 7.06786L22.4662 5.04135C21.8716 4.41651 21.2924 3.78717 20.6901 3.1657C20.4005 2.86735 20.0627 2.58702 19.7576 2.29318L18.4217 0.980447C18.2402 0.802564 18.0549 0.625808 17.8831 0.445673C17.8097 0.365739 17.7672 0.274545 17.6765 0.142822Z" fill="#010101"/>
</g>
</g>
</g>
</g>
</g>
<g id="Group_71">
<g id="Group_72">
<g id="Group_73">
<g id="Group_74">
<g id="Group_75">
<path id="Vector_41" d="M18.0975 34.7038C17.5145 34.6666 17.3137 34.4583 17.1785 34.2489C16.9913 33.9517 16.7056 33.6883 16.3909 33.4394C15.0549 32.3868 13.8271 31.2891 12.6128 30.1869C12.0144 29.6431 11.4757 29.0779 10.8869 28.5319L7.93898 25.7916C7.28646 25.187 6.6069 24.5915 5.95631 23.9858C4.91189 23.0029 3.8694 22.0189 2.86359 21.0237C2.08172 20.2502 1.35197 19.4576 0.591342 18.6763C0.485162 18.5671 0.332649 18.4737 0.205234 18.3712C0.128012 18.3093 0.0256959 18.2462 0.00252943 18.1776C-0.0148454 18.1292 0.0604423 18.0458 0.131872 18.0256C0.19365 18.0087 0.324921 18.0515 0.404073 18.0864C0.46199 18.1123 0.481304 18.1708 0.521845 18.2136C1.21298 18.9409 1.89253 19.6727 2.59911 20.3943C3.05665 20.8616 3.56244 21.313 4.03542 21.7758C4.27481 22.0099 4.47944 22.2576 4.72462 22.4907C5.31923 23.0525 5.92928 23.6097 6.53354 24.1682C6.64937 24.2751 6.7208 24.3967 6.83664 24.5037C7.61657 25.2219 8.42934 25.9301 9.21121 26.6473C9.85794 27.2417 10.4757 27.8474 11.1147 28.4452C11.773 29.0599 12.4371 29.6713 13.107 30.2815C13.7229 30.8455 14.3368 31.4107 14.9719 31.968C15.277 32.2348 15.6302 32.4825 15.9507 32.7448C16.4256 33.1332 16.887 33.5273 17.3465 33.9247C17.5318 34.0868 17.721 34.2478 17.8909 34.4178C17.9681 34.4932 18.0106 34.5799 18.0975 34.7038Z" fill="#010101"/>
</g>
</g>
</g>
</g>
<g id="Group_76">
<g id="Group_77">
<g id="Group_78">
<g id="Group_79">
<path id="Vector_42" d="M18.1839 34.7305C17.96 34.4175 18.1916 34.2104 18.4561 34.0505C18.8326 33.822 19.1241 33.563 19.3828 33.2951C20.4813 32.158 21.7207 31.0727 22.9311 29.9784C23.5277 29.4391 24.1783 28.9189 24.7729 28.3785L27.7362 25.6619C28.3868 25.0607 28.995 24.4449 29.6185 23.8347C30.6282 22.8495 31.5742 21.8408 32.5819 20.8512C33.3618 20.0811 34.1939 19.329 34.9931 18.5669C35.1051 18.4599 35.1707 18.3372 35.2634 18.2235C35.3194 18.1548 35.3638 18.0726 35.4545 18.0276C35.5182 17.9961 35.6804 17.9927 35.7441 18.0208C35.8001 18.0445 35.8001 18.1312 35.7847 18.1886C35.7731 18.2302 35.6959 18.2685 35.6515 18.3102C34.8966 19.0116 34.1321 19.7085 33.3947 20.4155C32.9178 20.8726 32.4854 21.3466 32.024 21.8093C31.7884 22.0446 31.5182 22.2664 31.2884 22.5028C30.7344 23.0758 30.1842 23.6511 29.6031 24.2152C29.493 24.3233 29.3386 24.4156 29.2266 24.5237C28.4795 25.251 27.7343 25.9794 26.9621 26.6954C26.3192 27.2876 25.657 27.8708 25.0045 28.4619L22.9871 30.279C22.3636 30.8374 21.7245 31.389 21.1106 31.9508C20.8153 32.2199 20.5701 32.507 20.2901 32.7817L19.0314 33.9999C18.8615 34.1654 18.6975 34.3331 18.5198 34.4952C18.4407 34.5684 18.3307 34.6292 18.1839 34.7305Z" fill="#010101"/>
</g>
</g>
</g>
</g>
</g>
</g>
<g id="Group_80">
<g id="Group_81">
<g id="Group_82">
<g id="Group_83">
<g id="Group_84">
<g id="Group_85">
<path id="Vector_43" d="M17.9948 6.41382C18.2767 6.67276 18.1203 6.81237 17.9234 6.91819C17.6415 7.06906 17.4562 7.25257 17.3018 7.44509C16.6512 8.2602 15.8751 9.0359 15.1087 9.81273C14.7303 10.1955 14.294 10.5603 13.9117 10.9419C13.2746 11.5803 12.6472 12.222 12.0295 12.8671C11.6202 13.2938 11.2476 13.734 10.8422 14.163C10.1858 14.8565 9.53133 15.55 8.84019 16.2323C8.3035 16.7625 7.7147 17.2737 7.15677 17.7961C7.07955 17.8692 7.04673 17.9582 6.98881 18.0381C6.95406 18.0865 6.93089 18.1462 6.85946 18.1743C6.80733 18.1935 6.66061 18.1833 6.59498 18.1563C6.53899 18.1338 6.51776 18.0663 6.51776 18.0246C6.51776 17.9931 6.57954 17.9706 6.61236 17.9424C7.14132 17.4628 7.68188 16.9877 8.1954 16.5036C8.52745 16.1895 8.81317 15.8596 9.12978 15.541C9.29001 15.3789 9.48886 15.2291 9.64524 15.0659C10.0217 14.6696 10.3808 14.2688 10.7514 13.8703C10.8229 13.7948 10.9368 13.7329 11.0082 13.6575C11.4831 13.1441 11.9329 12.6228 12.4175 12.1128C12.8171 11.6906 13.2573 11.2808 13.6762 10.8643L14.9639 9.57743C15.3596 9.18113 15.767 8.78934 16.1492 8.38854C16.3326 8.19602 16.4658 7.98774 16.6357 7.79185C16.8867 7.49913 17.1512 7.21091 17.4137 6.92157C17.5218 6.80336 17.6261 6.68514 17.7458 6.57144C17.7998 6.52077 17.8867 6.48137 17.9948 6.41382Z" fill="#010101"/>
</g>
</g>
</g>
</g>
<g id="Group_86">
<g id="Group_87">
<g id="Group_88">
<g id="Group_89">
<path id="Vector_44" d="M17.8595 6.37905C18.3846 6.36329 18.5217 6.5164 18.5796 6.67064C18.6645 6.89131 18.8383 7.08157 19.0448 7.25946C19.9136 8.01602 20.651 8.81649 21.4098 9.61021C21.7823 10.0009 22.1009 10.4107 22.4754 10.8013C23.1009 11.4543 23.7457 12.1006 24.404 12.7423C24.8403 13.1667 25.3172 13.5788 25.7651 13.9999C26.489 14.681 27.2226 15.3587 27.9215 16.05C28.464 16.587 28.9543 17.1421 29.4756 17.6859C29.5489 17.7613 29.6686 17.8221 29.7613 17.8919C29.8173 17.9335 29.8964 17.9752 29.9041 18.0259C29.908 18.0619 29.8211 18.1328 29.7497 18.1531C29.6879 18.1711 29.5779 18.1486 29.5142 18.1272C29.4659 18.1114 29.462 18.0686 29.435 18.0382C28.9659 17.5305 28.5083 17.0182 28.0219 16.5161C27.7072 16.1907 27.3462 15.8811 27.016 15.5614C26.8481 15.3993 26.7187 15.2236 26.5469 15.0626L25.2824 13.9008C25.2033 13.8265 25.1666 13.7364 25.0874 13.6632C24.5488 13.1634 23.9909 12.6691 23.4696 12.1636C23.0391 11.7437 22.6472 11.3114 22.2418 10.8835L20.9889 9.56292C20.6066 9.15537 20.236 8.74444 19.8441 8.34026C19.6549 8.14662 19.4174 7.96986 19.2147 7.78072C18.9136 7.50039 18.624 7.21555 18.3286 6.93296C18.2089 6.81813 18.0854 6.70442 17.9753 6.5862C17.9232 6.53216 17.9078 6.46799 17.8595 6.37905Z" fill="#010101"/>
</g>
</g>
</g>
</g>
</g>
<g id="Group_90">
<g id="Group_91">
<g id="Group_92">
<g id="Group_93">
<g id="Group_94">
<path id="Vector_45" d="M18.2462 28.8068C17.7249 28.8305 17.6013 28.6954 17.5376 28.5513C17.4508 28.3453 17.2674 28.173 17.055 28.0154C16.1515 27.3444 15.3619 26.6272 14.5743 25.9101C14.1862 25.5565 13.858 25.1805 13.4777 24.8248L11.5568 23.0448C11.1282 22.653 10.6707 22.2725 10.2402 21.8807C9.55099 21.2446 8.86179 20.6096 8.20734 19.9634C7.69961 19.4601 7.244 18.9389 6.75557 18.4289C6.688 18.3579 6.57216 18.3016 6.48529 18.2375C6.43123 18.1981 6.35594 18.1609 6.35208 18.1125C6.35015 18.0787 6.43896 18.01 6.51039 17.9887C6.57216 17.9706 6.68028 17.9898 6.74205 18.0089C6.78839 18.0236 6.79032 18.0641 6.81542 18.0922C7.25365 18.5696 7.67837 19.0492 8.13398 19.5209C8.42742 19.826 8.76913 20.1154 9.07802 20.4148C9.23439 20.5668 9.35601 20.7323 9.51624 20.8832C9.90814 21.2468 10.3174 21.6049 10.717 21.9651C10.7943 22.0338 10.8271 22.1182 10.9043 22.1869C11.4217 22.6508 11.9661 23.1045 12.4815 23.5683C12.9063 23.9534 13.2982 24.3496 13.7113 24.7392L14.997 25.936C15.3947 26.3041 15.7847 26.6745 16.1998 27.0359C16.3986 27.2093 16.6457 27.3635 16.8581 27.5324C17.1747 27.7823 17.4797 28.0368 17.7828 28.2935C17.9064 28.3982 18.0319 28.5017 18.14 28.6132C18.1844 28.6605 18.1998 28.7224 18.2462 28.8068Z" fill="#010101"/>
</g>
</g>
</g>
</g>
<g id="Group_95">
<g id="Group_96">
<g id="Group_97">
<g id="Group_98">
<path id="Vector_46" d="M18.3042 28.8632C18.0165 28.6111 18.1729 28.4771 18.3698 28.3825C18.6498 28.2463 18.8409 28.0785 19.0011 27.9018C19.6807 27.1497 20.4934 26.4472 21.285 25.7368C21.6749 25.3867 22.119 25.0568 22.507 24.7067L24.4298 22.9391C24.8487 22.5473 25.2271 22.1397 25.6248 21.7412C26.2696 21.0983 26.8719 20.4375 27.5283 19.7946C28.0341 19.2936 28.594 18.8118 29.1229 18.3186C29.1963 18.25 29.2233 18.1644 29.2774 18.089C29.3102 18.0428 29.3295 17.9865 29.4009 17.9606C29.4511 17.9426 29.5979 17.955 29.6635 17.982C29.7195 18.0045 29.7427 18.0687 29.7446 18.1092C29.7446 18.1396 29.6847 18.161 29.6558 18.1869C29.1538 18.6384 28.6403 19.0865 28.1557 19.5436C27.8411 19.8396 27.5727 20.1515 27.2754 20.4532C27.1229 20.6063 26.9356 20.7471 26.787 20.9013C26.4318 21.2762 26.0862 21.6545 25.7155 22.0238C25.6441 22.0947 25.5302 22.1499 25.4607 22.2197C24.9858 22.6959 24.5186 23.1766 24.0205 23.6439C23.6074 24.03 23.1672 24.4061 22.7406 24.7888L21.4201 25.9676C21.0108 26.329 20.59 26.6859 20.1903 27.0506C19.9992 27.2263 19.8564 27.4188 19.6787 27.5989L18.8776 28.3972C18.7695 28.5052 18.6652 28.6144 18.5494 28.7191C18.4934 28.7664 18.4084 28.8013 18.3042 28.8632Z" fill="#010101"/>
</g>
</g>
</g>
</g>
</g>
</g>
</g>
</svg>
