<svg width="37" height="36" viewBox="0 0 37 36" fill="none" xmlns="http://www.w3.org/2000/svg">
<g id="Group">
<path id="Vector" d="M18.4875 35.3698L36.5996 21.5127L36.7339 7.98441L32.7262 0.910816H22.348L18.4875 5.37022L14.6298 0.910816H4.25025L0.242493 7.98441L0.376847 21.5127L18.4875 35.3698Z" fill="#F7B6DE"/>
<path id="Vector_2" d="M8.83389 6.52083L15.8832 6.50082L18.4945 9.51807L18.3402 5.28163L14.6297 0.993733L4.21011 0.939419L8.83389 6.52083Z" fill="#F9D2DF"/>
<g id="Group_2">
<g id="Clip path group">
<mask id="mask0_77_2816" style="mask-type:luminance" maskUnits="userSpaceOnUse" x="0" y="0" width="37" height="36">
<g id="SVGID_00000153681318098383101060000006638486358176227464_">
<path id="Vector_3" d="M18.4873 35.3698L36.5994 21.5127L36.7337 7.98441L32.726 0.910816H22.3478L18.4873 5.37022L14.6296 0.910816H4.25006L0.24231 7.98441L0.376664 21.5127L18.4873 35.3698Z" fill="white"/>
</g>
</mask>
<g mask="url(#mask0_77_2816)">
<g id="Group_3">
<path id="Vector_4" opacity="0.5" d="M6.61503 -2.17115L4.0386 0.368374L33.0108 29.7616L35.5873 27.2221L6.61503 -2.17115Z" fill="white"/>
<path id="Vector_5" opacity="0.5" d="M-1.94276 3.71932L-3.0228 4.78374L25.9453 34.1769L27.0254 33.1125L-1.94276 3.71932Z" fill="white"/>
</g>
</g>
</g>
</g>
<g id="Group_4">
<path id="Vector_6" d="M30.8842 11.0904V20.2894L36.6014 21.5128L36.6714 8.2175L30.8842 11.0904Z" fill="#F9D2DF"/>
<path id="Vector_7" d="M28.2586 6.5924L31.0186 11.2105L36.6715 8.21751L36.7315 8.33043L36.7343 8.13319L32.8281 1.23825L28.2586 6.5924Z" fill="#F9D2DF"/>
</g>
<path id="Vector_8" d="M0.375344 21.2898L5.96391 20.2492L6.15972 11.4419L0.256714 8.21453L0.375344 21.2898Z" fill="#F9D2DF"/>
<g id="Group_5">
<g id="Group_6">
<path id="Vector_9" d="M15.6516 27.6858C16.6335 26.2465 17.9442 25.0716 19.1877 23.8667C19.535 23.5308 19.8795 23.1907 20.2139 22.8405C20.2768 22.7733 20.1768 22.6733 20.1124 22.739C18.9004 24.0068 17.554 25.1431 16.4091 26.4738C16.0961 26.8382 15.7988 27.2156 15.5287 27.6129C15.4758 27.6901 15.6001 27.7616 15.6516 27.6858Z" fill="#010101"/>
</g>
</g>
<g id="Group_7">
<g id="Group_8">
<path id="Vector_10" d="M15.1406 26.9855C15.9396 26.1865 16.7043 25.3518 17.4275 24.4843C17.4861 24.4142 17.3861 24.3127 17.326 24.3828C16.6028 25.2504 15.8381 26.0851 15.0392 26.8841C14.9748 26.9498 15.0763 27.0513 15.1406 26.9855Z" fill="#010101"/>
</g>
</g>
<g id="Group_9">
<g id="Group_10">
<path id="Vector_11" d="M12.9959 25.1989C13.995 24.0869 15.0198 22.9963 15.9918 21.8601C16.2605 21.547 16.5235 21.2312 16.7836 20.911C16.8408 20.8395 16.7407 20.7381 16.6821 20.8095C15.7702 21.9344 14.7954 23.0035 13.8207 24.074C13.5105 24.4142 13.2018 24.7544 12.8945 25.0974C12.8344 25.166 12.9345 25.2675 12.9959 25.1989Z" fill="#010101"/>
</g>
</g>
<g id="Group_11">
<g id="Group_12">
<path id="Vector_12" d="M14.2814 24.9846C15.0861 23.9626 16.008 23.0436 16.9256 22.126C16.9913 22.0602 16.8899 21.9602 16.8241 22.0245C15.9065 22.9421 14.9846 23.8611 14.1799 24.8831C14.1242 24.956 14.2256 25.0574 14.2814 24.9846Z" fill="#010101"/>
</g>
</g>
<g id="Group_13">
<g id="Group_14">
<path id="Vector_13" d="M16.7123 28.5577C17.7114 27.6273 18.5718 26.5582 19.5709 25.6277C19.6381 25.5648 19.5366 25.4633 19.4694 25.5262C18.4703 26.4567 17.6099 27.5258 16.6108 28.4563C16.5436 28.5206 16.6451 28.6206 16.7123 28.5577Z" fill="#010101"/>
</g>
</g>
<g id="Group_15">
<g id="Group_16">
<path id="Vector_14" d="M10.3512 22.9836C11.1345 22.0903 11.9606 21.2371 12.7467 20.3452C12.9768 20.085 13.2026 19.8206 13.4242 19.5533C13.4828 19.4833 13.3813 19.3818 13.3227 19.4519C12.5609 20.3752 11.7348 21.2428 10.9272 22.1261C10.6985 22.3762 10.4727 22.6278 10.2497 22.8822C10.1897 22.9522 10.2912 23.0537 10.3512 22.9836Z" fill="#010101"/>
</g>
</g>
<g id="Group_17">
<g id="Group_18">
<path id="Vector_15" d="M8.77994 22.1259C9.83763 20.9568 10.8967 19.7862 11.9544 18.617C12.2546 18.2854 12.5533 17.9552 12.8534 17.6236C12.9149 17.555 12.8149 17.4536 12.752 17.5222C11.6943 18.6913 10.6352 19.8619 9.5775 21.0311C9.27734 21.3627 8.97862 21.6929 8.67847 22.0245C8.61844 22.0931 8.71848 22.1945 8.77994 22.1259Z" fill="#010101"/>
</g>
</g>
<g id="Group_19">
<g id="Group_20">
<path id="Vector_16" d="M10.852 23.6981C11.5781 22.9006 12.3413 22.1373 13.0674 21.3398C13.1289 21.2712 13.0288 21.1711 12.966 21.2383C12.2399 22.0358 11.4766 22.7991 10.7505 23.5966C10.6891 23.6652 10.7906 23.7667 10.852 23.6981Z" fill="#010101"/>
</g>
</g>
<g id="Group_21">
<g id="Group_22">
<path id="Vector_17" d="M6.44544 17.3148C7.48597 16.0542 8.73232 14.9879 9.93008 13.8817C10.2674 13.5701 10.6004 13.2556 10.9234 12.9312C10.9892 12.8654 10.8877 12.7654 10.822 12.8297C9.66708 13.9832 8.40072 15.018 7.26443 16.19C6.94427 16.5187 6.63554 16.8589 6.34396 17.2134C6.28679 17.2834 6.38684 17.3849 6.44544 17.3148Z" fill="#010101"/>
</g>
</g>
<g id="Group_23">
<g id="Group_24">
<path id="Vector_18" d="M6.30329 18.9816C7.05796 18.1168 7.94126 17.3822 8.78455 16.6089C9.0261 16.3874 9.26336 16.163 9.49491 15.9329C9.56066 15.8671 9.45918 15.7671 9.39343 15.8314C8.57873 16.6447 7.68113 17.3693 6.86214 18.1797C6.63345 18.4056 6.41191 18.6385 6.20038 18.8801C6.14177 18.9501 6.24326 19.0516 6.30329 18.9816Z" fill="#010101"/>
</g>
</g>
<g id="Group_25">
<g id="Group_26">
<path id="Vector_19" d="M6.92094 20.8879C7.80282 20.006 8.68327 19.1242 9.54085 18.2194C9.60374 18.1522 9.50368 18.0508 9.43936 18.1179C8.58179 19.0227 7.69991 19.9046 6.81947 20.7864C6.75515 20.8522 6.85662 20.9522 6.92094 20.8879Z" fill="#010101"/>
</g>
</g>
<g id="Group_27">
<g id="Group_28">
<path id="Vector_20" d="M9.54389 28.3448C10.2214 27.5944 10.9732 26.9155 11.6878 26.2008C11.7536 26.1351 11.6521 26.035 11.5864 26.0993C10.8717 26.814 10.1199 27.4929 9.44241 28.2433C9.38095 28.3119 9.48243 28.4134 9.54389 28.3448Z" fill="#010101"/>
</g>
</g>
<g id="Group_29">
<g id="Group_30">
<path id="Vector_21" d="M10.6492 29.3939C11.3181 28.3605 12.2758 27.5558 13.1391 26.6925C13.2048 26.6267 13.1033 26.5267 13.0376 26.591C12.1643 27.4629 11.2009 28.2762 10.5249 29.321C10.4763 29.3996 10.5992 29.471 10.6492 29.3939Z" fill="#010101"/>
</g>
</g>
<g id="Group_31">
<g id="Group_32">
<path id="Vector_22" d="M11.972 30.3302C12.3893 29.7757 12.9124 29.3126 13.3298 28.758C13.3855 28.6851 13.2612 28.6136 13.2069 28.6865C12.7895 29.2411 12.2664 29.7042 11.8491 30.2588C11.7933 30.3317 11.9177 30.4031 11.972 30.3302Z" fill="#010101"/>
</g>
</g>
<g id="Group_33">
<g id="Group_34">
<path id="Vector_23" d="M6.89869 26.521C7.5676 25.9264 8.2308 25.329 8.89971 24.7344C8.96831 24.6729 8.86683 24.5729 8.79822 24.6329C8.12931 25.2275 7.46612 25.8249 6.79721 26.4195C6.7286 26.481 6.83008 26.5824 6.89869 26.521Z" fill="#010101"/>
</g>
</g>
<g id="Group_35">
<g id="Group_36">
<path id="Vector_24" d="M14.4253 32.3454C15.007 31.6193 15.6302 30.9275 16.2119 30.2014C16.2691 30.13 16.169 30.0285 16.1104 30.1C15.5287 30.8261 14.9055 31.5178 14.3238 32.2439C14.2681 32.3154 14.3681 32.4183 14.4253 32.3454Z" fill="#010101"/>
</g>
</g>
<g id="Group_37">
<g id="Group_38">
<path id="Vector_25" d="M23.7149 6.54641C24.7268 5.60736 25.7774 4.6969 26.645 3.61635C26.7021 3.54488 26.6021 3.4434 26.5435 3.51487C25.6759 4.59542 24.6254 5.50588 23.6134 6.44493C23.5462 6.50925 23.6477 6.6093 23.7149 6.54641Z" fill="#010101"/>
</g>
</g>
<g id="Group_39">
<g id="Group_40">
<path id="Vector_26" d="M25.1451 6.47508C25.6568 5.89192 26.2399 5.37881 26.7888 4.83139C26.8545 4.76564 26.753 4.66559 26.6873 4.72991C26.1385 5.27733 25.5553 5.79045 25.0436 6.3736C24.9836 6.44364 25.0851 6.54511 25.1451 6.47508Z" fill="#010101"/>
</g>
</g>
<g id="Group_41">
<g id="Group_42">
<path id="Vector_27" d="M28.2179 3.7594C29.1227 2.85466 30.0289 1.94848 30.9336 1.04373C30.9994 0.977986 30.8979 0.877936 30.8321 0.942255C29.9274 1.847 29.0212 2.75318 28.1165 3.65792C28.0521 3.72367 28.1536 3.82515 28.2179 3.7594Z" fill="#010101"/>
</g>
</g>
<g id="Group_43">
<g id="Group_44">
<path id="Vector_28" d="M29.7905 9.40513C30.6066 8.73907 31.507 8.1888 32.3489 7.55848C32.4218 7.50416 32.3503 7.37982 32.2774 7.43556C31.4256 8.07302 30.5151 8.63188 29.6904 9.30508C29.6189 9.36225 29.7204 9.46373 29.7905 9.40513Z" fill="#010101"/>
</g>
</g>
<g id="Group_45">
<g id="Group_46">
<path id="Vector_29" d="M30.2192 10.1198C31.2969 9.18787 32.4961 8.41177 33.6352 7.55848C33.7081 7.50416 33.6367 7.37982 33.5638 7.43556C32.6705 8.10447 31.7428 8.72622 30.861 9.41228C30.608 9.60809 30.3607 9.81105 30.1192 10.0197C30.0491 10.0798 30.1506 10.1798 30.2192 10.1198Z" fill="#010101"/>
</g>
</g>
<g id="Group_47">
<g id="Group_48">
<path id="Vector_30" d="M33.1493 15.1223C34.217 14.2676 35.2575 13.3814 36.351 12.561C36.4239 12.5067 36.3524 12.3824 36.2795 12.4381C35.1761 13.2657 34.1255 14.1604 33.0493 15.0223C32.9764 15.0795 33.0793 15.1795 33.1493 15.1223Z" fill="#010101"/>
</g>
</g>
<g id="Group_49">
<g id="Group_50">
<path id="Vector_31" d="M34.2205 15.4084C34.998 14.7038 35.8699 14.1177 36.7075 13.4903C36.7804 13.436 36.7089 13.3116 36.636 13.3674C35.7885 14.002 34.9066 14.5951 34.1205 15.3084C34.0519 15.3698 34.1533 15.4713 34.2205 15.4084Z" fill="#010101"/>
</g>
</g>
<g id="Group_51">
<g id="Group_52">
<path id="Vector_32" d="M30.9332 20.3392C31.7222 19.6231 32.5741 18.9828 33.363 18.2667C33.4316 18.2053 33.3302 18.1038 33.2616 18.1653C32.4726 18.8813 31.6207 19.5217 30.8317 20.2377C30.7646 20.3006 30.866 20.4021 30.9332 20.3392Z" fill="#010101"/>
</g>
</g>
<g id="Group_53">
<g id="Group_54">
<path id="Vector_33" d="M33.5069 19.41C34.556 18.501 35.6394 17.6334 36.7228 16.7658C36.7943 16.7087 36.6928 16.6072 36.6214 16.6644C35.538 17.5319 34.4546 18.3995 33.4055 19.3086C33.3368 19.37 33.4383 19.4701 33.5069 19.41Z" fill="#010101"/>
</g>
</g>
<g id="Group_55">
<g id="Group_56">
<path id="Vector_34" d="M34.4922 19.636C35.2626 19.0729 35.9072 18.3639 36.6505 17.7665C36.7219 17.7093 36.6205 17.6078 36.549 17.665C35.8158 18.2539 35.1797 18.9557 34.4193 19.5117C34.3464 19.566 34.4179 19.6903 34.4922 19.636Z" fill="#010101"/>
</g>
</g>
<g id="Group_57">
<g id="Group_58">
<path id="Vector_35" d="M11.7669 4.19964C12.8546 3.40209 13.9666 2.63884 15.0543 1.84129C15.1272 1.78698 15.0572 1.66406 14.9829 1.71838C13.8952 2.51592 12.7832 3.27917 11.6955 4.07672C11.6212 4.1296 11.6926 4.25395 11.7669 4.19964Z" fill="#010101"/>
</g>
</g>
<g id="Group_59">
<g id="Group_60">
<path id="Vector_36" d="M13.8536 3.90231C14.4296 3.25769 15.1385 2.75744 15.7831 2.18715C15.8517 2.12569 15.7502 2.02564 15.6816 2.08567C15.037 2.65596 14.3281 3.15621 13.7521 3.80083C13.692 3.86943 13.7921 3.97091 13.8536 3.90231Z" fill="#010101"/>
</g>
</g>
<g id="Group_61">
<g id="Group_62">
<path id="Vector_37" d="M28.6539 7.72709C27.1703 9.03918 25.711 10.3799 24.2874 11.7577C23.8815 12.1508 23.4799 12.5453 23.0796 12.944C23.0139 13.0098 23.1154 13.1098 23.1811 13.0455C24.5876 11.6391 26.0369 10.2755 27.5119 8.94199C27.925 8.56894 28.3395 8.19733 28.7554 7.82857C28.824 7.76711 28.7225 7.66563 28.6539 7.72709Z" fill="#010101"/>
</g>
</g>
<g id="Group_63">
<g id="Group_64">
<path id="Vector_38" d="M24.2168 10.9059C25.1573 9.96543 26.1007 9.02496 27.0754 8.11878C27.1426 8.05589 27.0411 7.95585 26.974 8.01731C25.9992 8.92348 25.0558 9.86396 24.1154 10.8044C24.051 10.8702 24.1525 10.9717 24.2168 10.9059Z" fill="#010101"/>
</g>
</g>
<g id="Group_65">
<g id="Group_66">
<path id="Vector_39" d="M26.5028 17.9809C27.4433 17.0404 28.3852 16.0985 29.3428 15.1738C29.6101 14.9165 29.8774 14.6607 30.1475 14.4077C30.2147 14.3448 30.1132 14.2433 30.046 14.3062C29.0827 15.2124 28.1422 16.1414 27.206 17.0762C26.9373 17.3435 26.67 17.6122 26.4013 17.8794C26.337 17.9452 26.4385 18.0467 26.5028 17.9809Z" fill="#010101"/>
</g>
</g>
<g id="Group_67">
<g id="Group_68">
<path id="Vector_40" d="M28.8616 16.8375C29.4576 16.3144 29.9836 15.7184 30.5053 15.1224C30.5653 15.0537 30.4653 14.9523 30.4038 15.0209C29.8821 15.6169 29.3561 16.2129 28.7601 16.736C28.6915 16.7975 28.793 16.899 28.8616 16.8375Z" fill="#010101"/>
</g>
</g>
<g id="Group_69">
<g id="Group_70">
<path id="Vector_41" d="M0.347638 16.9802C1.1409 15.9725 2.0142 15.0278 2.92038 14.1216C2.98612 14.0558 2.88464 13.9558 2.8189 14.0201C1.91272 14.9263 1.03942 15.8711 0.246159 16.8787C0.190416 16.9516 0.291895 17.0531 0.347638 16.9802Z" fill="#010101"/>
</g>
</g>
<g id="Group_71">
<g id="Group_72">
<path id="Vector_42" d="M0.428984 18.6813C1.16364 17.6665 2.02694 16.746 2.93883 15.8884C3.19039 15.6526 3.44624 15.421 3.70494 15.1938C3.77497 15.1338 3.6735 15.0323 3.60346 15.0923C2.65726 15.9213 1.75394 16.8075 0.950677 17.7765C0.726277 18.0467 0.510455 18.324 0.304636 18.6084C0.251752 18.6841 0.3761 18.7556 0.428984 18.6813Z" fill="#010101"/>
</g>
</g>
<g id="Group_73">
<g id="Group_74">
<path id="Vector_43" d="M0.715483 19.396C1.29006 18.6084 2.01901 17.9524 2.70507 17.2663C2.77082 17.2005 2.66934 17.1005 2.60359 17.1648C1.90752 17.8609 1.17429 18.5255 0.591135 19.3231C0.538251 19.3988 0.662599 19.4703 0.715483 19.396Z" fill="#010101"/>
</g>
</g>
<g id="Group_75">
<g id="Group_76">
<path id="Vector_44" d="M7.84998 4.18798C8.72757 3.26037 9.70092 2.44137 10.73 1.68813C11.0287 1.46945 11.3303 1.25649 11.6333 1.04352C11.7077 0.99064 11.6362 0.867718 11.5619 0.920602C10.5156 1.6524 9.48796 2.41136 8.55463 3.28609C8.27877 3.5448 8.01007 3.81207 7.74993 4.08793C7.68562 4.15368 7.78709 4.25516 7.84998 4.18798Z" fill="#010101"/>
</g>
</g>
<g id="Group_77">
<g id="Group_78">
<g id="Group_79">
<path id="Vector_45" d="M18.6565 9.52084C18.3106 9.47081 18.3221 9.41507 18.3821 9.36505C18.4679 9.29501 18.475 9.22355 18.455 9.15351C18.3692 8.85336 18.3921 8.55463 18.4035 8.25448C18.4093 8.10726 18.4636 7.96005 18.4693 7.81283C18.4807 7.56699 18.4779 7.31973 18.4664 7.07246C18.4579 6.90952 18.4178 6.74514 18.4035 6.5822C18.3807 6.31778 18.3521 6.05336 18.3549 5.78894C18.3564 5.58312 18.405 5.37873 18.425 5.17291C18.4279 5.14433 18.3907 5.11574 18.3764 5.08573C18.3678 5.06858 18.3435 5.04856 18.3721 5.03427C18.3921 5.02427 18.4936 5.01283 18.5536 5.01426C18.6036 5.01569 18.6608 5.03284 18.688 5.04571C18.708 5.05571 18.6837 5.06714 18.6808 5.07858C18.6508 5.26868 18.6108 5.45878 18.5951 5.64887C18.5851 5.77179 18.6137 5.89471 18.6165 6.01906C18.6179 6.08194 18.5879 6.1434 18.5922 6.20629C18.6051 6.3578 18.6337 6.50931 18.6494 6.66082C18.6522 6.6894 18.6179 6.71799 18.6208 6.74657C18.6437 6.94096 18.6851 7.13677 18.6966 7.33116C18.7051 7.49267 18.6808 7.65274 18.6723 7.81425C18.6637 7.98005 18.6551 8.14586 18.6451 8.31166C18.6365 8.46459 18.6165 8.61752 18.6165 8.77046C18.6165 8.84335 18.6594 8.91768 18.6723 8.99057C18.6908 9.0992 18.6994 9.20925 18.7109 9.31788C18.7151 9.36219 18.7223 9.40649 18.7166 9.4508C18.7137 9.47224 18.6837 9.49082 18.6565 9.52084Z" fill="#010101"/>
</g>
</g>
</g>
<g id="Group_80">
<g id="Group_81">
<g id="Group_82">
<path id="Vector_46" d="M18.6565 35.3725C18.3106 35.3125 18.3221 35.2439 18.3821 35.1824C18.4679 35.0953 18.475 35.0081 18.455 34.9209C18.3692 34.5507 18.3921 34.1819 18.4035 33.8132C18.4093 33.6316 18.4636 33.4501 18.4693 33.2672C18.4807 32.9627 18.4779 32.6583 18.4664 32.3553C18.4579 32.1538 18.4178 31.9522 18.4035 31.7507C18.3807 31.4248 18.3521 31.0989 18.3549 30.773C18.3564 30.5201 18.405 30.2671 18.425 30.0141C18.4279 29.9784 18.3907 29.9426 18.3764 29.9069C18.3678 29.8855 18.3435 29.8612 18.3721 29.8426C18.3921 29.8297 18.4936 29.8168 18.5536 29.8183C18.6036 29.8197 18.6608 29.8411 18.688 29.8569C18.708 29.8683 18.6837 29.884 18.6808 29.8969C18.6508 30.1313 18.6108 30.3657 18.5951 30.6001C18.5851 30.7516 18.6137 30.9045 18.6165 31.0561C18.6179 31.1332 18.5879 31.2104 18.5922 31.2876C18.6051 31.4734 18.6337 31.6606 18.6494 31.8465C18.6522 31.8822 18.6179 31.9179 18.6208 31.9536C18.6437 32.1938 18.6851 32.4339 18.6966 32.674C18.7051 32.8727 18.6808 33.0714 18.6723 33.27C18.6637 33.4744 18.6551 33.6788 18.6451 33.8832C18.6365 34.0719 18.6165 34.2605 18.6165 34.4492C18.6165 34.5393 18.6594 34.6307 18.6723 34.7208C18.6908 34.8551 18.6994 34.9895 18.7109 35.1253C18.7151 35.1796 18.7223 35.2353 18.7166 35.2896C18.7137 35.3111 18.6837 35.3354 18.6565 35.3725Z" fill="#010101"/>
</g>
</g>
</g>
<g id="Group_83">
<g id="Group_84">
<g id="Group_85">
<g id="Group_86">
<path id="Vector_47" d="M28.2812 6.6137C28.074 6.32784 28.1412 6.26923 28.2384 6.25208C28.3756 6.22778 28.4556 6.14918 28.5142 6.05341C28.7629 5.64749 29.0945 5.31446 29.4161 4.97286C29.5747 4.8042 29.7691 4.66985 29.9278 4.50119C30.1936 4.22105 30.4495 3.93233 30.6982 3.6379C30.8625 3.44208 31.0026 3.22483 31.1641 3.02473C31.4228 2.7017 31.6787 2.37582 31.9574 2.06852C32.1732 1.83126 32.4233 1.62401 32.6535 1.39818C32.6849 1.36674 32.6878 1.30814 32.7078 1.26526C32.7192 1.23953 32.7221 1.20094 32.7592 1.20237C32.785 1.2038 32.8721 1.25812 32.915 1.29957C32.9522 1.3353 32.975 1.39247 32.9822 1.42534C32.9879 1.44964 32.955 1.44678 32.9422 1.45965C32.7206 1.66118 32.4934 1.85556 32.2818 2.06567C32.1461 2.20145 32.0389 2.36439 31.9117 2.51018C31.8473 2.5845 31.7587 2.63596 31.6987 2.71314C31.55 2.89752 31.4128 3.0919 31.267 3.27914C31.2399 3.31487 31.1827 3.32488 31.1556 3.36061C30.9697 3.60359 30.7968 3.85801 30.601 4.09099C30.4395 4.28537 30.2522 4.45546 30.0779 4.63841C29.8978 4.82564 29.7191 5.01288 29.5376 5.20012C29.3704 5.37163 29.196 5.53744 29.0359 5.7161C28.9602 5.80186 28.9144 5.91619 28.8472 6.01053C28.7472 6.14917 28.6386 6.2821 28.5328 6.41788C28.4899 6.4722 28.4485 6.52937 28.3984 6.57653C28.377 6.59512 28.3327 6.59797 28.2812 6.6137Z" fill="#010101"/>
</g>
</g>
</g>
<g id="Group_87">
<g id="Group_88">
<g id="Group_89">
<path id="Vector_48" d="M30.6676 11.216C30.5862 10.8715 30.6705 10.8444 30.7662 10.8644C30.9035 10.8944 31.0064 10.8515 31.0978 10.7858C31.4838 10.5056 31.9168 10.3256 32.3442 10.1326C32.5543 10.0383 32.7858 9.98681 32.9974 9.89248C33.3504 9.73525 33.6977 9.56659 34.0393 9.38936C34.2666 9.27216 34.4796 9.12351 34.704 9.0006C35.067 8.80192 35.4286 8.59753 35.8017 8.42172C36.0918 8.28451 36.4034 8.18875 36.7021 8.06869C36.7436 8.05154 36.7693 7.99866 36.8036 7.96578C36.825 7.94577 36.8422 7.91147 36.8751 7.92719C36.8994 7.93862 36.958 8.02295 36.9823 8.07727C37.0023 8.12443 37.0023 8.18589 36.9966 8.21876C36.9923 8.24306 36.9637 8.22877 36.9465 8.23448C36.665 8.33596 36.3805 8.42744 36.1047 8.54179C35.926 8.61611 35.7659 8.72474 35.593 8.8105C35.5058 8.85337 35.4043 8.8691 35.3186 8.91626C35.1113 9.03061 34.9098 9.15782 34.704 9.27502C34.6639 9.29789 34.6082 9.28502 34.5696 9.30789C34.3052 9.46082 34.0479 9.62948 33.7778 9.77098C33.5548 9.88818 33.3161 9.97537 33.0846 10.0754C32.8473 10.1798 32.61 10.2841 32.3713 10.387C32.1512 10.4828 31.9268 10.5671 31.711 10.6714C31.6081 10.7215 31.5224 10.8101 31.4237 10.8701C31.2779 10.9602 31.1279 11.0416 30.9778 11.126C30.9178 11.1603 30.8577 11.196 30.792 11.2217C30.762 11.2346 30.7219 11.2203 30.6676 11.216Z" fill="#010101"/>
</g>
</g>
</g>
</g>
<g id="Group_90">
<g id="Group_91">
<g id="Group_92">
<g id="Group_93">
<g id="Group_94">
<path id="Vector_49" d="M14.7685 0.843597C14.657 1.18949 14.5226 1.17805 14.404 1.11802C14.2339 1.03226 14.0652 1.02654 13.8966 1.04512C13.1819 1.12945 12.4673 1.09944 11.7526 1.07943C11.401 1.06943 11.0494 1.01082 10.6978 0.99939C10.1104 0.97938 9.5215 0.972232 8.93406 0.97509C8.54386 0.97652 8.15366 1.01225 7.76489 1.02083C7.13457 1.03512 6.50425 1.05513 5.87393 1.04799C5.38511 1.04227 4.89486 0.992243 4.40604 0.972233C4.33743 0.969375 4.26883 1.00654 4.20022 1.02083C4.15877 1.0294 4.11304 1.0537 4.0773 1.02512C4.05158 1.00511 4.02442 0.903628 4.02728 0.843597C4.03014 0.793572 4.07015 0.7364 4.10017 0.709243C4.12161 0.689233 4.15305 0.713529 4.17878 0.716388C4.6333 0.744974 5.08639 0.786423 5.53947 0.805003C5.83248 0.817867 6.12691 0.79071 6.42135 0.79071C6.56999 0.79071 6.71864 0.822156 6.86872 0.819297C7.2289 0.810722 7.59052 0.787854 7.9507 0.77642C8.01931 0.773562 8.08791 0.810723 8.15652 0.807865C8.62104 0.790713 9.08556 0.757839 9.55008 0.753551C9.93457 0.750692 10.319 0.780704 10.7021 0.794997L11.887 0.837879C12.2515 0.850743 12.6159 0.875039 12.9804 0.876468C13.1548 0.876468 13.3306 0.835019 13.505 0.823585C13.7651 0.806433 14.0252 0.799286 14.2854 0.786422C14.3911 0.782134 14.4969 0.774989 14.6027 0.779277C14.6498 0.784994 14.697 0.816441 14.7685 0.843597Z" fill="#010101"/>
</g>
</g>
</g>
<g id="Group_95">
<g id="Group_96">
<g id="Group_97">
<path id="Vector_50" d="M0.32378 21.5141C-0.0206807 21.3726 -0.0106762 21.2039 0.0507837 21.0553C0.136542 20.8423 0.143689 20.6294 0.123679 20.4164C0.0393507 19.5174 0.0636493 18.6183 0.0750837 17.7179C0.0808009 17.2748 0.136544 16.8317 0.142261 16.3886C0.153695 15.6483 0.152265 14.9079 0.14083 14.1675C0.133684 13.6773 0.0922351 13.1856 0.0793714 12.6953C0.0579319 11.9021 0.0307742 11.1074 0.0336328 10.3141C0.0364914 9.69667 0.0850889 9.08064 0.106528 8.46318C0.109387 8.37742 0.0722214 8.29023 0.0579284 8.20448C0.0493526 8.15159 0.0250547 8.09442 0.0536407 8.04868C0.0736509 8.01723 0.175134 7.98293 0.235164 7.98579C0.28519 7.98865 0.342361 8.04011 0.368088 8.07727C0.388098 8.10442 0.362373 8.14301 0.360943 8.17589C0.329499 8.74618 0.289475 9.3179 0.272323 9.88819C0.260889 10.2584 0.290906 10.6271 0.292335 10.9973C0.293765 11.1846 0.262318 11.3732 0.268035 11.5605C0.280899 12.015 0.308058 12.4681 0.32378 12.9226C0.326639 13.0098 0.292334 13.0955 0.295193 13.1827C0.318061 13.7673 0.358084 14.3519 0.369519 14.9365C0.378095 15.421 0.352364 15.9041 0.343788 16.3886C0.333783 16.886 0.326639 17.3849 0.315205 17.8823C0.3052 18.3425 0.285191 18.8013 0.285191 19.2601C0.285191 19.4802 0.328066 19.7003 0.3395 19.9219C0.356652 20.2492 0.365229 20.5765 0.376664 20.9052C0.380951 21.0381 0.388099 21.1725 0.382382 21.3054C0.382382 21.364 0.350937 21.4226 0.32378 21.5141Z" fill="#010101"/>
</g>
</g>
</g>
<g id="Group_98">
<g id="Group_99">
<g id="Group_100">
<path id="Vector_51" d="M18.784 35.4373C18.381 35.5645 18.1551 35.3801 17.9851 35.1743C17.7421 34.8827 17.4505 34.654 17.1446 34.4482C15.8483 33.5777 14.6162 32.6201 13.3784 31.6711C12.7681 31.2037 12.1878 30.6977 11.5789 30.2289C10.5613 29.4456 9.53647 28.671 8.50738 27.9034C7.8256 27.3946 7.12524 26.9101 6.44061 26.4041C5.33576 25.5837 4.22663 24.7661 3.14465 23.9143C2.3028 23.2525 1.49381 22.5493 0.677682 21.8546C0.564767 21.756 0.424694 21.6888 0.300345 21.6031C0.224592 21.5516 0.13169 21.5045 0.0888114 21.433C0.0587961 21.3815 0.0788035 21.2658 0.121682 21.2243C0.158844 21.1886 0.263186 21.2029 0.330363 21.2243C0.378959 21.24 0.41469 21.3001 0.457569 21.3387C1.19366 21.9976 1.9469 22.6422 2.71158 23.2696C3.20897 23.6741 3.73209 24.0458 4.23949 24.4374C4.49819 24.6361 4.73689 24.859 4.99702 25.0534C5.62734 25.5251 6.2691 25.981 6.90228 26.447C7.02377 26.5356 7.12239 26.6557 7.24388 26.7428C8.06286 27.3403 8.89472 27.9206 9.70799 28.5252C10.3826 29.0254 11.0358 29.5514 11.7004 30.0645L13.7515 31.6468C14.3818 32.1342 15.0064 32.6301 15.6424 33.1089C15.9483 33.3391 16.2785 33.5349 16.5915 33.755C17.056 34.0823 17.5148 34.4182 17.9751 34.7512C18.1623 34.887 18.351 35.0213 18.5325 35.1657C18.6125 35.2329 18.6754 35.3201 18.784 35.4373Z" fill="#010101"/>
</g>
</g>
</g>
<g id="Group_101">
<g id="Group_102">
<g id="Group_103">
<path id="Vector_52" d="M0.381036 8.27736C0.110899 8.04438 0.166644 7.9572 0.262407 7.90288C0.396761 7.82427 0.462507 7.71135 0.502528 7.58557C0.672614 7.0553 0.944179 6.57364 1.20574 6.0891C1.33438 5.85041 1.50876 5.63458 1.63882 5.39732C1.85893 4.99997 2.06904 4.59834 2.27343 4.19385C2.40921 3.92514 2.51641 3.64071 2.64791 3.37057C2.86087 2.93321 3.07527 2.49441 3.31825 2.07134C3.50692 1.7426 3.73703 1.43959 3.94571 1.12372C3.97429 1.07941 3.97 1.01509 3.9843 0.962205C3.99287 0.93076 3.99001 0.886452 4.0286 0.877876C4.05576 0.872159 4.15438 0.905034 4.20298 0.936478C4.24586 0.963635 4.27731 1.01938 4.29017 1.05368C4.29875 1.07798 4.26587 1.08513 4.25301 1.10228C4.05005 1.38814 3.83994 1.66971 3.6527 1.96414C3.53121 2.15567 3.44402 2.36577 3.33683 2.56445C3.28251 2.66593 3.19819 2.75026 3.14816 2.85317C3.02524 3.10187 2.91518 3.35914 2.79655 3.61069C2.77368 3.65929 2.71794 3.68788 2.69507 3.73647C2.545 4.06235 2.41207 4.39681 2.25342 4.71697C2.12335 4.98282 1.96327 5.23295 1.81748 5.49022L1.37297 6.2892C1.23576 6.53504 1.0914 6.7766 0.964193 7.02672C0.904162 7.14678 0.88129 7.28685 0.831265 7.41263C0.756941 7.59986 0.675472 7.78281 0.595431 7.96719C0.562557 8.04295 0.532541 8.11871 0.491091 8.18874C0.473939 8.22162 0.429633 8.2402 0.381036 8.27736Z" fill="#010101"/>
</g>
</g>
</g>
<g id="Group_104">
<g id="Group_105">
<g id="Group_106">
<path id="Vector_53" d="M18.592 5.2803C18.2904 5.4604 18.2504 5.39751 18.2532 5.30889C18.2561 5.18311 18.2003 5.10879 18.1246 5.05162C17.8016 4.81293 17.56 4.50277 17.3099 4.20119C17.187 4.05254 17.0998 3.87102 16.9769 3.72237C16.7725 3.47224 16.5581 3.23212 16.3351 2.99629C16.1879 2.84049 16.0149 2.70614 15.8634 2.55463C15.6176 2.3088 15.3689 2.06724 15.1416 1.80568C14.9658 1.60272 14.8243 1.36974 14.6628 1.15392C14.64 1.1239 14.5871 1.11962 14.5513 1.10104C14.5299 1.0896 14.4942 1.08674 14.5042 1.05244C14.5099 1.02814 14.5771 0.95096 14.6242 0.913799C14.6643 0.882354 14.7214 0.862345 14.7529 0.856628C14.7757 0.85234 14.7686 0.880923 14.7757 0.893786C14.9172 1.10103 15.0502 1.314 15.2031 1.51124C15.3017 1.63845 15.4304 1.74136 15.539 1.85999C15.5933 1.92002 15.6247 2.00149 15.6833 2.06009C15.8234 2.20017 15.9749 2.33023 16.1179 2.46888C16.145 2.4946 16.1436 2.54606 16.1707 2.57179C16.3565 2.74759 16.5566 2.91196 16.7325 3.09634C16.8782 3.24927 16.9997 3.42365 17.1312 3.58801L17.54 4.09542C17.6658 4.25264 17.7816 4.41558 17.9145 4.56565C17.9788 4.63712 18.0746 4.68143 18.146 4.74575C18.2547 4.84151 18.3547 4.94299 18.4576 5.04304C18.4991 5.08306 18.5434 5.12308 18.5777 5.17025C18.5934 5.19312 18.5863 5.23314 18.592 5.2803Z" fill="#010101"/>
</g>
</g>
</g>
</g>
<g id="Group_107">
<g id="Group_108">
<g id="Group_109">
<g id="Group_110">
<path id="Vector_54" d="M22.2445 1.12229C22.356 0.776402 22.4889 0.786408 22.6075 0.846439C22.7776 0.930768 22.9463 0.936486 23.1149 0.915047C23.8281 0.822143 24.5414 0.833573 25.256 0.830714C25.6076 0.829285 25.9607 0.875027 26.3123 0.875027C26.8997 0.872168 27.4886 0.856442 28.076 0.830714C28.4648 0.813563 28.8536 0.763541 29.2438 0.740672C29.8741 0.703511 30.5044 0.663491 31.1347 0.656344C31.625 0.650627 32.1166 0.692073 32.6069 0.710654C32.6755 0.713513 32.7441 0.674925 32.8127 0.660632C32.8542 0.652056 32.8999 0.627758 32.9371 0.656344C32.9628 0.676354 32.9899 0.777832 32.9871 0.836433C32.9842 0.886458 32.9442 0.943631 32.9142 0.970787C32.8928 0.990797 32.8627 0.966498 32.8356 0.965069C32.3825 0.936483 31.9294 0.902183 31.4749 0.892178C31.1819 0.88646 30.8874 0.919334 30.5944 0.92791C30.4458 0.932198 30.2957 0.90361 30.1471 0.912186C29.7869 0.932196 29.4267 0.967928 29.0679 0.992226C28.9993 0.996514 28.9293 0.963639 28.8607 0.969357C28.3976 1.00366 27.9345 1.05512 27.47 1.07798C27.0855 1.09657 26.701 1.08084 26.3165 1.08084L25.1302 1.07942C24.7643 1.07799 24.3999 1.06369 24.034 1.06941C23.8596 1.07227 23.6838 1.11801 23.5094 1.1323C23.2493 1.15231 22.9891 1.16517 22.7276 1.17804C22.6218 1.18375 22.516 1.1909 22.4088 1.18661C22.3645 1.17947 22.3159 1.14802 22.2445 1.12229Z" fill="#010101"/>
</g>
</g>
</g>
<g id="Group_111">
<g id="Group_112">
<g id="Group_113">
<path id="Vector_55" d="M36.8251 21.3711C36.4807 21.2296 36.4921 21.0638 36.5521 20.9166C36.6393 20.7065 36.6465 20.4949 36.6265 20.2848C36.5436 19.3944 36.5707 18.5054 36.5836 17.6149C36.5907 17.1761 36.6465 16.7387 36.6536 16.3C36.6665 15.5667 36.6665 14.8349 36.6579 14.1017C36.6522 13.6157 36.6122 13.1312 36.5993 12.6452C36.5793 11.8605 36.5536 11.0744 36.5593 10.2897C36.5636 9.67943 36.6122 9.06912 36.635 8.45881C36.6379 8.37306 36.6007 8.2873 36.5879 8.20154C36.5793 8.15009 36.555 8.09148 36.585 8.04718C36.605 8.01573 36.7065 7.98143 36.7665 7.98572C36.8166 7.98857 36.8737 8.04003 36.8995 8.07719C36.9195 8.10435 36.8937 8.14151 36.8923 8.17582C36.8594 8.74039 36.818 9.30496 36.8008 9.86953C36.7894 10.2354 36.818 10.6013 36.8194 10.9672C36.8208 11.153 36.7894 11.3389 36.7937 11.5247C36.8051 11.9735 36.8323 12.4223 36.8466 12.8725C36.8494 12.9582 36.8137 13.044 36.818 13.1298C36.8394 13.7086 36.8794 14.2861 36.888 14.8649C36.8952 15.3437 36.8694 15.8226 36.8594 16.3014C36.848 16.7945 36.8394 17.2862 36.828 17.7793C36.818 18.2338 36.7965 18.6883 36.7951 19.1428C36.7951 19.3615 36.8366 19.5788 36.848 19.7974C36.8651 20.1219 36.8723 20.4463 36.8837 20.7708C36.888 20.9023 36.8952 21.0352 36.888 21.1667C36.8823 21.2239 36.8523 21.2825 36.8251 21.3711Z" fill="#010101"/>
</g>
</g>
</g>
<g id="Group_114">
<g id="Group_115">
<g id="Group_116">
<path id="Vector_56" d="M18.61 35.48C18.5914 35.0597 18.8258 34.8925 19.0659 34.7839C19.409 34.6295 19.7034 34.4123 19.9793 34.175C21.1498 33.1702 22.389 32.2512 23.6182 31.3221C24.2243 30.8647 24.8603 30.446 25.4663 29.9886C26.4797 29.2253 27.4859 28.4507 28.4836 27.6674C29.1453 27.1486 29.7857 26.6026 30.4431 26.078C31.5065 25.229 32.5642 24.3757 33.6391 23.541C34.4723 22.8921 35.3356 22.279 36.1703 21.6329C36.2875 21.5429 36.379 21.4214 36.4819 21.3156C36.5448 21.2527 36.6049 21.1698 36.6835 21.1427C36.7378 21.1241 36.8493 21.1627 36.8836 21.2113C36.9121 21.2527 36.8807 21.3528 36.8493 21.4128C36.8264 21.4585 36.7592 21.4814 36.7135 21.5171C35.9359 22.1174 35.1427 22.6892 34.3609 23.2795C33.8563 23.6625 33.3732 24.0727 32.8744 24.4658C32.6214 24.6644 32.3484 24.8374 32.0968 25.0375L30.2859 26.5097C30.1702 26.6026 30.0315 26.6655 29.9157 26.7598C29.1368 27.3901 28.3678 28.0333 27.5803 28.6522C26.9271 29.1639 26.2553 29.6498 25.5907 30.1472L23.5425 31.6823C22.9122 32.154 22.2747 32.6171 21.6487 33.0959C21.3485 33.326 21.0755 33.589 20.7825 33.8291C20.348 34.185 19.9078 34.5338 19.469 34.8839C19.2903 35.0269 19.1131 35.1712 18.9287 35.3056C18.8487 35.3699 18.7486 35.4071 18.61 35.48Z" fill="#010101"/>
</g>
</g>
</g>
<g id="Group_117">
<g id="Group_118">
<g id="Group_119">
<path id="Vector_57" d="M36.8794 8.15169C36.532 8.2303 36.4949 8.13454 36.5063 8.02591C36.5235 7.87155 36.4691 7.75148 36.392 7.64571C36.0632 7.19549 35.8303 6.69667 35.583 6.20499C35.4615 5.96201 35.3815 5.69758 35.26 5.45603C35.0556 5.05154 34.8369 4.6542 34.6082 4.264C34.4567 4.0053 34.2752 3.76231 34.1151 3.5079C33.8578 3.09626 33.5934 2.68891 33.3504 2.2687C33.1632 1.94139 33.0131 1.59264 32.8359 1.25961C32.8116 1.21244 32.7515 1.18672 32.713 1.14812C32.6887 1.12526 32.6501 1.10668 32.6601 1.06808C32.6672 1.04093 32.7444 0.970895 32.7959 0.942309C32.8402 0.918011 32.9045 0.91658 32.9388 0.922297C32.9645 0.926585 32.9559 0.959461 32.9645 0.978042C33.1189 1.29392 33.2632 1.61408 33.4262 1.92424C33.5305 2.12434 33.6706 2.30586 33.7864 2.50167C33.845 2.60029 33.8764 2.71464 33.9379 2.81183C34.0865 3.04624 34.248 3.27492 34.3981 3.50933C34.4267 3.55364 34.4224 3.61796 34.451 3.66226C34.6454 3.96385 34.8555 4.25685 35.037 4.56701C35.1871 4.82285 35.3071 5.09585 35.4386 5.3617L35.8446 6.18211C35.9675 6.4351 36.0804 6.69381 36.2105 6.94393C36.2733 7.06399 36.3734 7.16404 36.4463 7.27838C36.5549 7.44847 36.655 7.62285 36.7564 7.7958C36.7979 7.86583 36.8422 7.93586 36.8736 8.01161C36.8894 8.04449 36.8794 8.09023 36.8794 8.15169Z" fill="#010101"/>
</g>
</g>
</g>
<g id="Group_120">
<g id="Group_121">
<g id="Group_122">
<path id="Vector_58" d="M18.629 5.46166C18.4074 5.18866 18.4631 5.14007 18.5518 5.13006C18.6775 5.11577 18.7433 5.04859 18.7876 4.96569C18.9763 4.61123 19.2493 4.32822 19.5123 4.03807C19.6423 3.89514 19.8081 3.78366 19.9382 3.64073C20.1554 3.40204 20.3641 3.15477 20.5642 2.90178C20.6971 2.73456 20.8043 2.54446 20.933 2.37294C21.1402 2.09423 21.3432 1.81409 21.569 1.55253C21.7448 1.34957 21.9564 1.17519 22.1465 0.983664C22.1736 0.956508 22.1693 0.903623 22.1822 0.866461C22.1908 0.843592 22.1879 0.807863 22.2236 0.812151C22.2479 0.81501 22.3351 0.869321 22.3794 0.907912C22.4166 0.942215 22.4452 0.9951 22.4552 1.02512C22.4623 1.04655 22.4323 1.0437 22.4223 1.0537C22.2379 1.22379 22.0464 1.38673 21.872 1.56539C21.7591 1.68116 21.6776 1.82267 21.5747 1.94701C21.5233 2.0099 21.4461 2.05278 21.3975 2.11853C21.2789 2.27718 21.1717 2.44584 21.0559 2.60735C21.0345 2.63879 20.983 2.64451 20.9616 2.67595C20.8143 2.88463 20.68 3.10617 20.5228 3.30627C20.3927 3.4735 20.2369 3.61786 20.094 3.77223L19.6509 4.24961C19.5137 4.3954 19.3693 4.53547 19.2393 4.68841C19.1778 4.7613 19.1478 4.86278 19.0949 4.94425C19.0163 5.06431 18.9305 5.17866 18.8462 5.29586C18.8119 5.34303 18.779 5.39162 18.7376 5.43307C18.7161 5.45022 18.6761 5.45022 18.629 5.46166Z" fill="#010101"/>
</g>
</g>
</g>
</g>
</g>
<g id="Group_123">
<g id="Group_124">
<g id="Group_125">
<g id="Group_126">
<g id="Group_127">
<path id="Vector_59" d="M15.9767 6.41121C15.9009 6.7571 15.8109 6.74567 15.7294 6.68563C15.6151 6.59988 15.5007 6.59416 15.3864 6.61417C14.9019 6.69993 14.4187 6.67277 13.9356 6.65705C13.697 6.6499 13.4597 6.5913 13.2224 6.58272C12.8251 6.567 12.4263 6.56272 12.029 6.56986C11.7645 6.57415 11.5015 6.61131 11.2371 6.62274C10.8098 6.6399 10.3838 6.66419 9.95791 6.65848C9.62631 6.65419 9.29614 6.60559 8.96597 6.58701C8.92023 6.58415 8.87307 6.62131 8.82733 6.6356C8.79875 6.64418 8.76873 6.66848 8.74443 6.6399C8.72728 6.61989 8.7087 6.5184 8.71013 6.45837C8.71156 6.40835 8.73872 6.35117 8.75873 6.32402C8.77302 6.30401 8.79446 6.32831 8.81161 6.33117C9.11891 6.35976 9.42478 6.39977 9.73208 6.41693C9.93075 6.42836 10.1294 6.39977 10.3281 6.39977C10.4296 6.39977 10.5296 6.42979 10.6297 6.42693C10.8741 6.4155 11.1185 6.3912 11.3629 6.37833C11.4101 6.37547 11.4558 6.41121 11.5016 6.40835C11.816 6.38834 12.1304 6.35261 12.4449 6.34546C12.705 6.33974 12.9652 6.36833 13.2239 6.37976L14.0257 6.41549C14.273 6.42693 14.5188 6.4498 14.7661 6.4498C14.8847 6.4498 15.0033 6.40835 15.122 6.39548C15.2978 6.3769 15.4736 6.36976 15.6494 6.3569C15.7208 6.35261 15.7923 6.34403 15.8638 6.34974C15.8966 6.3526 15.9281 6.38405 15.9767 6.41121Z" fill="#010101"/>
</g>
</g>
</g>
<g id="Group_128">
<g id="Group_129">
<g id="Group_130">
<path id="Vector_60" d="M6.24998 20.4409C5.90409 20.3451 5.91552 20.2308 5.97555 20.1293C6.06131 19.9849 6.06846 19.8406 6.04845 19.6976C5.96269 19.0888 5.98556 18.4813 5.99699 17.8724C6.00271 17.5723 6.05703 17.2736 6.06275 16.9734C6.07275 16.4731 6.07132 15.9715 6.05845 15.4712C6.04988 15.1396 6.00843 14.8066 5.99413 14.475C5.97126 13.9376 5.94268 13.4016 5.94554 12.8642C5.94697 12.4468 5.99557 12.0295 6.01558 11.6121C6.01843 11.5535 5.98127 11.4949 5.96698 11.4363C5.9584 11.4006 5.93411 11.362 5.96269 11.3305C5.9827 11.3091 6.08418 11.2862 6.14421 11.2891C6.19423 11.2919 6.25141 11.3262 6.27856 11.352C6.29857 11.3705 6.27428 11.3963 6.27142 11.4191C6.2414 11.8051 6.20139 12.191 6.18566 12.5769C6.17566 12.827 6.20424 13.0771 6.2071 13.3273C6.20853 13.4545 6.17851 13.5817 6.1828 13.7075C6.19567 14.0148 6.22425 14.3221 6.23998 14.6294C6.24284 14.688 6.20853 14.7466 6.21139 14.8052C6.23426 15.2011 6.2757 15.5956 6.28714 15.9915C6.29571 16.3188 6.27142 16.6461 6.26284 16.9734C6.25427 17.3107 6.24712 17.6466 6.23569 17.9839C6.22711 18.2955 6.2071 18.6057 6.2071 18.9158C6.2071 19.0645 6.24998 19.2145 6.26284 19.3632C6.28142 19.5847 6.29 19.8063 6.30144 20.0278C6.30572 20.1179 6.31287 20.2079 6.30715 20.2979C6.30858 20.3394 6.27714 20.3794 6.24998 20.4409Z" fill="#010101"/>
</g>
</g>
</g>
<g id="Group_131">
<g id="Group_132">
<g id="Group_133">
<path id="Vector_61" d="M18.7217 29.8242C18.3801 29.9986 18.2301 29.8714 18.1272 29.717C17.9799 29.4983 17.7841 29.3411 17.5726 29.2082C16.6778 28.6422 15.8489 27.989 15.0127 27.3444C14.6011 27.0271 14.218 26.6712 13.8064 26.3524C13.1189 25.8207 12.4257 25.2976 11.7267 24.7816C11.2637 24.44 10.7806 24.1227 10.3146 23.784C9.56137 23.2351 8.80526 22.6906 8.07346 22.1131C7.50317 21.6658 6.96576 21.1769 6.41691 20.7024C6.34115 20.6352 6.23825 20.5995 6.15106 20.5452C6.09818 20.5123 6.02957 20.4866 6.0067 20.4308C5.99098 20.3908 6.02528 20.2879 6.06673 20.245C6.10246 20.2093 6.18536 20.205 6.23538 20.2122C6.27255 20.2179 6.29113 20.2651 6.31972 20.2908C6.8114 20.7424 7.31308 21.1884 7.82762 21.6172C8.16208 21.893 8.52227 22.1374 8.86673 22.4004C9.0411 22.5333 9.19689 22.6934 9.37413 22.8235C9.80292 23.1394 10.2431 23.4395 10.6762 23.7511C10.7591 23.8097 10.8191 23.8998 10.902 23.9584C11.4609 24.3557 12.0326 24.7373 12.5843 25.1432C13.0431 25.4791 13.4805 25.8407 13.9279 26.1895L15.3114 27.2658C15.7374 27.5974 16.1547 27.9375 16.5864 28.262C16.7936 28.4178 17.0252 28.5378 17.2396 28.6836C17.5583 28.8994 17.8699 29.1253 18.1843 29.3468C18.3115 29.4369 18.4416 29.5269 18.5631 29.6255C18.616 29.6713 18.6531 29.7384 18.7217 29.8242Z" fill="#010101"/>
</g>
</g>
</g>
<g id="Group_134">
<g id="Group_135">
<g id="Group_136">
<path id="Vector_62" d="M6.28325 11.5047C6.00025 11.2975 6.0417 11.2389 6.12317 11.2117C6.23894 11.1717 6.28468 11.0945 6.30612 11.0073C6.39616 10.6357 6.58483 10.3127 6.76492 9.98536C6.85354 9.82385 6.98646 9.68664 7.07651 9.52656C7.22802 9.25928 7.36808 8.98629 7.50244 8.71043C7.59105 8.52748 7.65109 8.32881 7.73685 8.143C7.87406 7.84285 8.00984 7.54127 8.17421 7.25541C8.30285 7.03386 8.47007 6.83519 8.61729 6.62366C8.6373 6.59364 8.62444 6.54362 8.63016 6.50645C8.63444 6.48359 8.62444 6.44928 8.65874 6.44785C8.68304 6.44642 8.77738 6.48645 8.8274 6.51789C8.87028 6.54505 8.90744 6.59221 8.92316 6.61937C8.9346 6.63938 8.90458 6.64081 8.896 6.65082C8.75022 6.83948 8.59871 7.02386 8.46721 7.2211C8.38289 7.34974 8.33286 7.49696 8.25996 7.63131C8.2228 7.69992 8.15849 7.75281 8.12562 7.82284C8.04558 7.99436 7.97983 8.17159 7.9055 8.34453C7.89121 8.3774 7.84405 8.3917 7.82975 8.426C7.73542 8.6504 7.65824 8.88337 7.5539 9.10206C7.46814 9.28358 7.35379 9.44938 7.25374 9.62232L6.94645 10.1583C6.85211 10.3227 6.74777 10.4842 6.66201 10.6543C6.62199 10.7358 6.61914 10.8372 6.58912 10.9244C6.54481 11.0545 6.49193 11.1788 6.4419 11.306C6.42189 11.3575 6.40331 11.4104 6.3733 11.4575C6.36186 11.4747 6.32327 11.4833 6.28325 11.5047Z" fill="#010101"/>
</g>
</g>
</g>
<g id="Group_137">
<g id="Group_138">
<g id="Group_139">
<path id="Vector_63" d="M18.5978 9.42691C18.309 9.62129 18.2847 9.57698 18.3005 9.50552C18.3233 9.40261 18.2876 9.35115 18.2304 9.31685C17.9903 9.17392 17.8317 8.95952 17.6644 8.75371C17.5815 8.65223 17.5372 8.5193 17.4543 8.41639C17.3185 8.24631 17.1713 8.08337 17.0184 7.92758C16.9169 7.82467 16.7897 7.7432 16.6825 7.64315C16.5096 7.48307 16.3338 7.32584 16.1808 7.14861C16.0622 7.01139 15.9779 6.84417 15.8721 6.69409C15.8578 6.67265 15.8121 6.67837 15.7849 6.66836C15.7678 6.66265 15.7377 6.6655 15.752 6.63691C15.762 6.6169 15.8321 6.54258 15.8778 6.50542C15.9164 6.47255 15.9693 6.44825 15.9979 6.43825C16.0179 6.4311 16.0065 6.4554 16.0122 6.46398C16.1008 6.60976 16.1823 6.76127 16.2809 6.89848C16.3452 6.9871 16.4395 7.04998 16.5138 7.13002C16.551 7.17004 16.5653 7.2315 16.6053 7.27009C16.7039 7.36157 16.814 7.44447 16.9155 7.53309C16.9355 7.55024 16.9255 7.59169 16.9455 7.60884C17.077 7.72319 17.2228 7.82467 17.3457 7.94616C17.4472 8.04764 17.5229 8.17055 17.6116 8.28347L17.8831 8.63079C17.966 8.73799 18.0403 8.85233 18.1304 8.95381C18.1733 9.00241 18.249 9.02242 18.3019 9.06387C18.3791 9.1239 18.4506 9.19107 18.5234 9.25539C18.5535 9.28112 18.5849 9.30685 18.6063 9.33972C18.6121 9.35687 18.6006 9.38975 18.5978 9.42691Z" fill="#010101"/>
</g>
</g>
</g>
</g>
<g id="Group_140">
<g id="Group_141">
<g id="Group_142">
<g id="Group_143">
<path id="Vector_64" d="M21.0341 6.6879C21.1099 6.34201 21.1999 6.352 21.28 6.41203C21.3943 6.49636 21.5101 6.50351 21.623 6.48065C22.1047 6.38917 22.5878 6.40346 23.0709 6.40489C23.3096 6.40489 23.5483 6.45349 23.7855 6.45492C24.1829 6.45635 24.5816 6.44348 24.979 6.42204C25.242 6.40775 25.505 6.35916 25.768 6.33915C26.1939 6.30627 26.6198 6.26911 27.0472 6.26339C27.3788 6.26053 27.7118 6.30198 28.0434 6.32056C28.0891 6.32342 28.1363 6.28483 28.182 6.27053C28.2106 6.26196 28.2421 6.23766 28.2664 6.26625C28.2835 6.28626 28.3021 6.38774 28.3007 6.44634C28.2992 6.49637 28.2721 6.55354 28.2521 6.5807C28.2378 6.60071 28.2163 6.5764 28.1992 6.57498C27.8933 6.54639 27.586 6.51066 27.2787 6.49923C27.0801 6.49208 26.8814 6.52495 26.6827 6.53067C26.5827 6.53353 26.4812 6.50494 26.3797 6.51352C26.1367 6.5321 25.8937 6.56497 25.6493 6.58784C25.6036 6.59213 25.555 6.55782 25.5093 6.56354C25.1962 6.59498 24.8832 6.64358 24.5688 6.66359C24.3086 6.67931 24.0485 6.66074 23.7884 6.65931L22.9851 6.65073C22.7378 6.64644 22.4906 6.63215 22.2433 6.63643C22.1247 6.63929 22.0075 6.6836 21.8888 6.69789C21.713 6.7179 21.5372 6.72934 21.36 6.7422C21.2885 6.74792 21.2171 6.75507 21.1442 6.75079C21.1156 6.74507 21.0827 6.71505 21.0341 6.6879Z" fill="#010101"/>
</g>
</g>
</g>
<g id="Group_144">
<g id="Group_145">
<g id="Group_146">
<path id="Vector_65" d="M30.9423 20.3438C30.5978 20.248 30.6079 20.1351 30.6693 20.035C30.7551 19.8921 30.7622 19.7492 30.7422 19.6077C30.6579 19.0059 30.6822 18.4028 30.6936 17.801C30.6993 17.5038 30.7551 17.2079 30.7608 16.912C30.7722 16.4161 30.7708 15.9201 30.7594 15.4255C30.7522 15.0968 30.7108 14.7681 30.6979 14.4393C30.6765 13.9076 30.6493 13.3759 30.6522 12.8457C30.655 12.4326 30.7036 12.0195 30.7251 11.6065C30.7279 11.5493 30.6908 11.4907 30.6765 11.4321C30.6679 11.3964 30.6436 11.3578 30.6722 11.3277C30.6922 11.3063 30.7937 11.2834 30.8537 11.2863C30.9037 11.2892 30.9609 11.3235 30.9866 11.3478C31.0066 11.3663 30.9809 11.3921 30.9795 11.4135C30.948 11.7951 30.908 12.1767 30.8909 12.5598C30.8794 12.8071 30.9094 13.0543 30.9109 13.303C30.9123 13.4288 30.8809 13.5546 30.8866 13.6804C30.8994 13.9848 30.9266 14.2878 30.9423 14.5923C30.9452 14.6509 30.9109 14.708 30.9137 14.7666C30.9366 15.1583 30.9766 15.5499 30.988 15.9401C30.9966 16.2645 30.9709 16.5876 30.9623 16.912C30.9523 17.245 30.9452 17.5781 30.9337 17.9111C30.9237 18.2184 30.9037 18.5257 30.9037 18.8344C30.9037 18.9816 30.9466 19.1303 30.958 19.2775C30.9752 19.4962 30.9838 19.7163 30.9952 19.935C30.9995 20.0236 31.0066 20.1136 31.0009 20.2023C31.0009 20.2451 30.9695 20.2837 30.9423 20.3438Z" fill="#010101"/>
</g>
</g>
</g>
<g id="Group_147">
<g id="Group_148">
<g id="Group_149">
<path id="Vector_66" d="M18.6037 29.924C18.5222 29.551 18.6837 29.4409 18.8581 29.3823C19.1068 29.2994 19.3069 29.1536 19.4898 28.9878C20.2645 28.2846 21.1064 27.6686 21.9411 27.0426C22.3527 26.7338 22.7929 26.4637 23.2046 26.1564C23.8921 25.6419 24.571 25.1173 25.2442 24.5842C25.6901 24.2311 26.1146 23.8509 26.5563 23.4922C27.2709 22.9119 27.9813 22.3259 28.7074 21.7613C29.272 21.3225 29.8637 20.9195 30.4311 20.4864C30.5112 20.4263 30.564 20.3349 30.6312 20.2591C30.6727 20.2148 30.707 20.1533 30.7656 20.1419C30.807 20.1348 30.9028 20.1862 30.9385 20.2334C30.9685 20.2734 30.9599 20.3549 30.9428 20.4035C30.9314 20.4392 30.8799 20.4492 30.8499 20.4721C30.3168 20.8723 29.7722 21.2482 29.2419 21.6455C28.8989 21.9028 28.5773 22.1887 28.2414 22.4545C28.0699 22.5889 27.8798 22.6989 27.7112 22.8361L26.4977 23.8481C26.4205 23.9124 26.319 23.9453 26.2418 24.0096C25.7201 24.4427 25.2085 24.8886 24.6782 25.3103C24.2394 25.659 23.7792 25.982 23.3289 26.3165L21.9382 27.3499C21.5094 27.6672 21.0749 27.9759 20.6533 28.3004C20.4503 28.4561 20.2745 28.6462 20.0787 28.8106C19.7886 29.0564 19.4927 29.2951 19.1983 29.5353C19.0782 29.6339 18.9596 29.7325 18.8338 29.8226C18.7766 29.864 18.7037 29.8826 18.6037 29.924Z" fill="#010101"/>
</g>
</g>
</g>
<g id="Group_150">
<g id="Group_151">
<g id="Group_152">
<path id="Vector_67" d="M30.9752 11.3787C30.6407 11.483 30.6178 11.4158 30.6436 11.3344C30.6793 11.2172 30.645 11.1357 30.5864 11.0671C30.3391 10.7755 30.1876 10.4353 30.0218 10.1023C29.9403 9.93793 29.9018 9.7507 29.8203 9.58633C29.6845 9.3119 29.5358 9.04319 29.3772 8.78163C29.2714 8.60726 29.1371 8.45003 29.0242 8.28138C28.8426 8.00695 28.6554 7.73682 28.4925 7.45239C28.3653 7.23227 28.2766 6.98787 28.1623 6.75918C28.1466 6.72774 28.0965 6.7163 28.0651 6.692C28.0465 6.67771 28.0137 6.66913 28.0279 6.63912C28.0394 6.61768 28.118 6.55336 28.1694 6.52334C28.2138 6.49904 28.2724 6.48761 28.3038 6.48761C28.3267 6.48761 28.3138 6.51334 28.3195 6.5262C28.4167 6.74489 28.5025 6.96786 28.6097 7.17939C28.6783 7.31661 28.7812 7.4338 28.8598 7.5653C28.8998 7.63247 28.9127 7.71394 28.9556 7.77969C29.0599 7.93692 29.1785 8.08556 29.2843 8.24278C29.3043 8.2728 29.2914 8.3214 29.3129 8.34998C29.4515 8.55008 29.6059 8.74161 29.7317 8.95029C29.836 9.1218 29.9103 9.31048 29.9975 9.49057L30.2662 10.0494C30.3477 10.2224 30.4177 10.3996 30.5078 10.5683C30.5507 10.6497 30.6307 10.7098 30.6836 10.7855C30.7622 10.8984 30.8322 11.0142 30.9051 11.13C30.9351 11.1771 30.9666 11.2229 30.9866 11.2743C30.9995 11.2972 30.9823 11.3329 30.9752 11.3787Z" fill="#010101"/>
</g>
</g>
</g>
<g id="Group_153">
<g id="Group_154">
<g id="Group_155">
<path id="Vector_68" d="M18.6233 9.60949C18.3889 9.35222 18.429 9.32077 18.5033 9.32649C18.6091 9.33506 18.6548 9.29075 18.6805 9.2293C18.7863 8.97059 18.9764 8.78336 19.1565 8.58897C19.2451 8.49321 19.3709 8.42888 19.4595 8.33312C19.6081 8.17304 19.7482 8.00582 19.8797 7.83145C19.9669 7.71567 20.0298 7.57845 20.1127 7.45839C20.247 7.26544 20.3771 7.0682 20.53 6.89096C20.6487 6.75375 20.803 6.64512 20.936 6.52077C20.9545 6.50362 20.9431 6.45931 20.9488 6.43073C20.9517 6.41357 20.9445 6.385 20.976 6.39357C20.9974 6.39929 21.0817 6.45789 21.126 6.49648C21.1646 6.52935 21.1975 6.57795 21.2104 6.60367C21.2204 6.62225 21.1947 6.61511 21.1861 6.62226C21.0546 6.73088 20.9145 6.83379 20.7944 6.95099C20.7158 7.02675 20.6672 7.12966 20.5986 7.21399C20.5643 7.25687 20.5043 7.27973 20.4729 7.32547C20.3957 7.43552 20.3314 7.55702 20.257 7.66993C20.2427 7.69137 20.1999 7.68851 20.1856 7.70995C20.0912 7.85717 20.0112 8.01582 19.9083 8.15446C19.8225 8.2688 19.7125 8.36172 19.6124 8.46605L19.308 8.78479C19.2136 8.88198 19.1107 8.97202 19.0236 9.07636C18.9821 9.12638 18.9721 9.20356 18.9392 9.26217C18.8906 9.34792 18.8349 9.42797 18.7806 9.50801C18.7591 9.54088 18.7391 9.57518 18.7091 9.60234C18.6962 9.61377 18.6619 9.60663 18.6233 9.60949Z" fill="#010101"/>
</g>
</g>
</g>
</g>
</g>
<g id="Group_156">
<g id="Group_157">
<g id="Group_158">
<path id="Vector_69" d="M9.05542 6.36214C8.74812 6.53652 8.69666 6.46219 8.68809 6.36357C8.67665 6.22207 8.60662 6.13345 8.51657 6.06342C8.13495 5.76612 7.83622 5.39737 7.52607 5.03575C7.37313 4.85709 7.25879 4.64698 7.10728 4.46832C6.8543 4.1696 6.59131 3.87945 6.32117 3.59645C6.14251 3.40921 5.93811 3.24341 5.75516 3.05904C5.45787 2.76174 5.15772 2.4673 4.879 2.15429C4.66318 1.90988 4.48023 1.63545 4.2787 1.37961C4.25011 1.34388 4.19151 1.33387 4.15149 1.30957C4.12719 1.29528 4.0886 1.28813 4.09289 1.25097C4.09718 1.22524 4.16007 1.14377 4.2058 1.10661C4.2444 1.07374 4.30443 1.05659 4.33873 1.05373C4.36303 1.05087 4.35874 1.08231 4.36874 1.09661C4.5474 1.34102 4.71892 1.59257 4.90759 1.82841C5.03051 1.98134 5.18201 2.10712 5.31494 2.25005C5.38211 2.32295 5.425 2.41728 5.49503 2.48732C5.66512 2.6574 5.84521 2.81748 6.01816 2.98471C6.05103 3.01615 6.05532 3.07476 6.08819 3.1062C6.31116 3.3206 6.54842 3.52356 6.76282 3.74653C6.94005 3.93091 7.09299 4.13815 7.25736 4.33397C7.42602 4.5355 7.5961 4.73703 7.76476 4.93999C7.92055 5.12723 8.06777 5.32161 8.22928 5.50171C8.30789 5.58889 8.41652 5.64607 8.5037 5.72468C8.63234 5.84188 8.75526 5.9648 8.87961 6.08629C8.92963 6.13631 8.98252 6.18348 9.0254 6.23922C9.04541 6.26495 9.04398 6.30926 9.05542 6.36214Z" fill="#010101"/>
</g>
</g>
</g>
<g id="Group_159">
<g id="Group_160">
<g id="Group_161">
<path id="Vector_70" d="M0.407166 21.597C0.432893 21.2454 0.497212 21.2468 0.568677 21.2969C0.670157 21.3683 0.761634 21.3569 0.847392 21.3212C1.20758 21.1639 1.58634 21.0996 1.96367 21.0224C2.14948 20.9824 2.34673 20.991 2.53254 20.951C2.84412 20.8852 3.15142 20.8052 3.45729 20.718C3.66025 20.6594 3.85463 20.5693 4.05616 20.5036C4.38204 20.4007 4.70793 20.2921 5.04381 20.2206C5.30395 20.1634 5.57694 20.1563 5.84565 20.1334C5.88424 20.1305 5.91711 20.0891 5.95285 20.0691C5.97429 20.0577 5.99858 20.0291 6.02145 20.0548C6.0386 20.0734 6.0629 20.172 6.06862 20.2306C6.07291 20.2806 6.05719 20.3407 6.04432 20.3692C6.03575 20.3907 6.01716 20.3678 6.00287 20.3678C5.76275 20.3678 5.51405 20.3807 5.2725 20.4136C5.11528 20.4378 4.96663 20.5007 4.81369 20.5393C4.73508 20.5593 4.65076 20.5479 4.57357 20.5708C4.38777 20.6279 4.20481 20.7023 4.01901 20.7637C3.98327 20.7752 3.93896 20.7509 3.90466 20.7637C3.66597 20.8466 3.43299 20.9481 3.19144 21.0196C2.99134 21.0782 2.78409 21.1053 2.5797 21.1468L1.94938 21.2726C1.755 21.3097 1.55775 21.3354 1.3648 21.3783C1.27189 21.3998 1.18756 21.4612 1.09609 21.4927C0.961734 21.5413 0.821664 21.5741 0.681593 21.6113C0.624421 21.6256 0.565818 21.6399 0.505787 21.6427C0.48006 21.6456 0.450044 21.6185 0.407166 21.597Z" fill="#010101"/>
</g>
</g>
</g>
<g id="Group_162">
<g id="Group_163">
<g id="Group_164">
<path id="Vector_71" d="M36.4512 21.3208C36.3568 21.6567 36.2782 21.6367 36.2225 21.5681C36.1424 21.4709 36.0538 21.4466 35.9595 21.4523C35.5607 21.4681 35.1848 21.3623 34.8103 21.268C34.626 21.2208 34.4516 21.125 34.2686 21.0764C33.9613 20.995 33.6512 20.9235 33.3382 20.8635C33.1309 20.8234 32.9165 20.8163 32.7078 20.782C32.3705 20.7291 32.0332 20.6805 31.703 20.609C31.4458 20.5533 31.1985 20.4575 30.9441 20.3989C30.9084 20.3918 30.8683 20.4232 30.8312 20.4332C30.8083 20.439 30.7826 20.4604 30.7669 20.429C30.7569 20.4075 30.7526 20.3046 30.7597 20.246C30.7654 20.196 30.794 20.1431 30.814 20.1174C30.8283 20.0988 30.8426 20.1259 30.8569 20.1302C31.1042 20.1888 31.3357 20.276 31.5744 20.3389C31.7274 20.3804 31.8903 20.3847 32.0461 20.4161C32.1247 20.4318 32.1976 20.479 32.2776 20.4918C32.4706 20.5219 32.6678 20.5376 32.8608 20.5662C32.8979 20.5719 32.9265 20.6133 32.9637 20.6191C33.2138 20.6534 33.4682 20.6705 33.7155 20.7162C33.9199 20.7548 34.1171 20.8263 34.3172 20.8806L34.9361 21.0493C35.1262 21.1007 35.3149 21.1622 35.5064 21.2008C35.5993 21.2208 35.6994 21.1951 35.7937 21.2008C35.9323 21.2122 36.071 21.2236 36.2096 21.2351C36.2654 21.2394 36.3197 21.2379 36.374 21.2508C36.3969 21.2551 36.4169 21.288 36.4512 21.3208Z" fill="#010101"/>
</g>
</g>
</g>
<g id="Group_165">
<g id="Group_166">
<g id="Group_167">
<path id="Vector_72" d="M6.21822 11.3161C6.00525 11.5963 5.92807 11.5477 5.88519 11.4591C5.82373 11.3347 5.73083 11.2761 5.6222 11.2447C5.16912 11.106 4.7732 10.8616 4.37299 10.6272C4.17575 10.5115 4.00281 10.3528 3.80699 10.2356C3.47968 10.0398 3.14666 9.85398 2.80791 9.67675C2.58351 9.55954 2.34339 9.47235 2.11613 9.36087C1.74737 9.18221 1.37719 9.0064 1.02129 8.81059C0.744006 8.65766 0.486733 8.46756 0.213737 8.30891C0.175146 8.28747 0.119402 8.30176 0.0736645 8.29462C0.0465078 8.29033 0.00934469 8.30033 0.000768895 8.26317C-0.0049483 8.23744 0.0222079 8.13882 0.0493645 8.08594C0.0722333 8.0402 0.120831 8.00161 0.149417 7.98588C0.170857 7.97445 0.178001 8.00589 0.192294 8.01447C0.448139 8.17026 0.688264 8.34321 0.94125 8.49614C1.10419 8.59477 1.28571 8.66052 1.45437 8.75056C1.54013 8.7963 1.61016 8.8692 1.69735 8.91207C1.90888 9.01355 2.12614 9.1036 2.3391 9.20365C2.37912 9.22223 2.40199 9.27511 2.44201 9.29369C2.71644 9.4209 2.99944 9.53239 3.26672 9.67103C3.48826 9.78538 3.69408 9.92973 3.90704 10.0584L4.56595 10.4557C4.76891 10.5786 4.96615 10.7101 5.17483 10.8216C5.27488 10.8759 5.39494 10.8902 5.50071 10.9331C5.65793 10.9974 5.81086 11.0632 5.96523 11.1303C6.02812 11.1561 6.09244 11.1789 6.14961 11.2132C6.17534 11.2304 6.18963 11.2718 6.21822 11.3161Z" fill="#010101"/>
</g>
</g>
</g>
</g>
</svg>
