<svg width="34" height="37" viewBox="0 0 34 37" fill="none" xmlns="http://www.w3.org/2000/svg">
<g id="Group">
<path id="Vector" d="M33.7245 8.35504C33.7245 7.83315 33.932 6.92968 33.7045 6.36583C33.6907 6.28453 33.6476 6.20717 33.5784 6.14947C33.5692 6.13767 33.5615 6.12456 33.5508 6.11276C33.2172 5.74953 32.8851 5.38631 32.5515 5.02177C31.5153 3.89145 30.4791 2.75851 29.443 1.62819C29.0694 1.21907 28.8726 0.836182 28.2377 0.836182C27.3552 0.836182 26.4728 0.836182 25.5903 0.836182C22.2389 0.836182 18.8875 0.836182 15.5375 0.836182C12.6704 0.836182 9.80166 0.836182 6.93449 0.836182C6.3134 0.836182 5.69384 0.836182 5.07275 0.836182C4.49316 0.836182 3.98584 1.77768 3.70296 2.11205C2.78055 3.20697 1.85659 4.30057 0.934179 5.39418C0.698963 5.67348 0.76507 6.15472 0.528317 6.43402C0.311549 6.69103 0.526779 6.97295 0.526779 7.2693C0.526779 7.92232 0.348446 8.69073 0.348446 9.34506C0.348446 14.796 0.528317 20.2182 0.160888 25.6993C0.123991 25.8094 0.296175 26.0389 0.291563 26.0363C0.290026 26.035 0.294638 26.0389 0.296175 26.0402C0.29925 26.0428 0.302325 26.0455 0.3054 26.0468C5.37253 29.8219 11.565 32.3094 16.6291 36.0846C16.7275 36.158 16.8382 36.1856 16.9427 36.1816C17.0472 36.1856 17.1579 36.1593 17.2563 36.0846C22.3204 32.3081 28.5113 29.8219 33.58 26.0468C33.5831 26.0442 33.5861 26.0415 33.5892 26.0402C33.5908 26.0389 33.5923 26.0376 33.5938 26.0363C33.7307 25.934 33.7599 25.8108 33.7245 25.6993C33.7245 19.9166 33.7245 14.1351 33.7245 8.35504Z" fill="#FFF38D"/>
<path id="Vector_2" d="M0.254181 26.064L5.14452 23.8938L17.0529 30.934L16.9976 36.0651L0.254181 26.064Z" fill="#FFF06D"/>
<path id="Vector_3" d="M29.0704 1.09692L33.7517 6.46922L29.0704 10.0385L25.516 6.56364L29.0704 1.09692Z" fill="#FFF9C5"/>
<path id="Vector_4" d="M5.23236 0.903076L8.16257 6.07868L25.5885 6.17048L29.0645 0.903076H5.23236Z" fill="#FFF9C5"/>
<g id="Group_2">
<g id="Clip path group">
<mask id="mask0_77_3188" style="mask-type:luminance" maskUnits="userSpaceOnUse" x="0" y="0" width="34" height="37">
<g id="SVGID_00000057125803514765697450000018212935939145303463_">
<path id="Vector_5" d="M33.9134 8.35528C33.9134 7.83339 34.1209 6.92993 33.8934 6.36608C33.8796 6.28478 33.8365 6.20741 33.7674 6.14972C33.7581 6.13792 33.7504 6.1248 33.7397 6.113C33.4061 5.74978 33.074 5.38655 32.7404 5.02202C31.7042 3.8917 30.668 2.75875 29.6319 1.62843C29.2583 1.21932 29.0615 0.836426 28.4266 0.836426C27.5441 0.836426 26.6617 0.836426 25.7792 0.836426C22.4278 0.836426 19.0764 0.836426 15.7264 0.836426C12.8593 0.836426 9.99057 0.836426 7.12339 0.836426C6.5023 0.836426 5.88274 0.836426 5.26165 0.836426C4.68207 0.836426 4.17474 1.77792 3.89187 2.1123C2.96945 3.20721 2.0455 4.30082 1.12308 5.39442C0.887867 5.67372 0.65265 5.95303 0.415897 6.23233C0.199129 6.48934 0.349792 7.08728 0.349792 7.38363C0.349792 8.03664 0.349792 8.69097 0.349792 9.34399C0.349792 14.795 0.349792 20.2472 0.349792 25.6982C0.312895 25.8084 0.342105 25.9329 0.480467 26.0352C0.482004 26.0365 0.483541 26.0379 0.485079 26.0392C0.488154 26.0418 0.491228 26.0444 0.494303 26.0457C5.56144 29.8209 11.7539 32.3084 16.818 36.0835C16.9179 36.157 17.0271 36.1845 17.1316 36.1806C17.2377 36.1845 17.3468 36.1583 17.4452 36.0835C22.5093 32.3071 28.7002 29.8209 33.7689 26.0457C33.772 26.0431 33.775 26.0405 33.7781 26.0392C33.7797 26.0379 33.7812 26.0365 33.7827 26.0352C33.9196 25.9329 33.9488 25.8097 33.9134 25.6982C33.9134 19.9168 33.9134 14.1354 33.9134 8.35528Z" fill="white"/>
</g>
</mask>
<g mask="url(#mask0_77_3188)">
<g id="Group_3">
<path id="Vector_6" opacity="0.5" d="M2.83688 1.47413L0.0656738 3.80396L31.2283 30.7701L33.9995 28.4402L2.83688 1.47413Z" fill="white"/>
<path id="Vector_7" opacity="0.5" d="M-4.96445 7.60013L-6.12614 8.57666L25.0321 35.5428L26.1938 34.5662L-4.96445 7.60013Z" fill="white"/>
</g>
</g>
</g>
</g>
<path id="Vector_8" d="M27.9894 8.96368C27.2376 8.19921 26.4858 7.43474 25.7356 6.67157C25.4404 6.37129 25.259 6.09985 24.7717 6.09985C24.1721 6.09985 23.571 6.09985 22.9714 6.09985C20.6792 6.09985 18.387 6.09985 16.0948 6.09985C13.9794 6.09985 11.864 6.09985 9.74707 6.09985C9.36734 6.09985 8.98761 6.09985 8.60789 6.09985C8.0652 6.09985 7.44257 7.19608 7.18583 7.50161C6.60163 8.19659 6.0159 8.89156 5.4317 9.58654C5.31948 9.72029 5.14114 9.87108 5.08733 10.035C4.97357 10.3903 5.07042 10.8716 5.07042 11.2401C5.07042 11.6924 5.07042 12.1448 5.07042 12.5972C5.07042 16.2504 5.07042 19.905 5.07042 23.5582C5.03199 23.6775 5.06274 23.81 5.21032 23.9201C5.21186 23.9214 5.2134 23.9227 5.21494 23.924C5.21801 23.9267 5.22262 23.9293 5.2257 23.9319C8.74932 26.5623 13.0539 28.2971 16.5745 30.9289C16.6806 31.0089 16.7989 31.0377 16.9112 31.0325C17.0234 31.0364 17.1418 31.0075 17.2478 30.9289C20.7499 28.3103 25.0253 26.5807 28.5382 23.9739C28.5613 23.9608 28.5813 23.945 28.5997 23.9293C28.7919 23.8926 28.9564 23.7667 28.9564 23.5477C28.9564 20.3574 28.9564 17.167 28.9564 13.9767C28.9564 12.6969 28.9564 11.4184 28.9564 10.1386C28.9579 9.72816 28.2661 9.24561 27.9894 8.96368ZM24.8778 6.91678C24.9162 6.92203 24.9269 6.9194 24.8778 6.91678V6.91678Z" fill="#FFF9C5"/>
<g id="Group_4">
<g id="Group_5">
<path id="Vector_9" d="M6.17071 13.3679C7.28069 12.3163 8.44601 11.3053 9.68512 10.3638C10.0449 10.091 10.4108 9.82483 10.7828 9.5652C10.8397 9.52455 10.7582 9.45636 10.7013 9.49569C9.40224 10.4031 8.18312 11.3931 7.02702 12.4316C6.71033 12.7175 6.39671 13.006 6.08923 13.2984C6.0385 13.3443 6.11998 13.4138 6.17071 13.3679Z" fill="#010101"/>
</g>
</g>
<g id="Group_6">
<g id="Group_7">
<path id="Vector_10" d="M6.1699 15.5974C6.93704 14.7923 7.78874 14.0488 8.68041 13.3446C9.55824 12.651 10.476 11.994 11.3923 11.3371C11.9089 10.9673 12.4254 10.5975 12.9343 10.2212C12.9912 10.1792 12.9081 10.1097 12.8528 10.1517C11.9519 10.8178 11.0295 11.4629 10.1224 12.1238C9.20926 12.79 8.31144 13.4744 7.4705 14.2088C6.98777 14.631 6.52349 15.0703 6.08688 15.5279C6.04076 15.5764 6.12224 15.6459 6.1699 15.5974Z" fill="#010101"/>
</g>
</g>
<g id="Group_8">
<g id="Group_9">
<path id="Vector_11" d="M6.01755 17.4329C7.04604 16.4534 8.16063 15.5407 9.31211 14.6661C10.4544 13.798 11.6335 12.968 12.8127 12.138C13.4707 11.6751 14.1287 11.2135 14.7805 10.7454C14.8374 10.7048 14.7559 10.6353 14.699 10.6759C13.5352 11.5112 12.3515 12.3281 11.1846 13.1621C10.0085 14.0026 8.84936 14.8602 7.74554 15.7689C7.12137 16.2829 6.51565 16.8127 5.93607 17.3647C5.88533 17.4093 5.96681 17.4801 6.01755 17.4329Z" fill="#010101"/>
</g>
</g>
<g id="Group_10">
<g id="Group_11">
<path id="Vector_12" d="M5.85976 19.4003C6.76065 18.6843 7.68307 17.988 8.60241 17.2878C9.52021 16.5889 10.4365 15.886 11.3205 15.1557C11.8186 14.7452 12.3059 14.3243 12.7794 13.8929C12.8301 13.847 12.7487 13.7775 12.6979 13.8234C11.8585 14.5905 10.9715 15.3183 10.066 16.029C9.15893 16.7397 8.23498 17.4347 7.31718 18.1349C6.80062 18.5296 6.28715 18.9269 5.77982 19.3294C5.72294 19.3727 5.80442 19.4422 5.85976 19.4003Z" fill="#010101"/>
</g>
</g>
<g id="Group_12">
<g id="Group_13">
<path id="Vector_13" d="M6.17152 21.4978C7.07702 20.6743 8.01789 19.881 8.97105 19.0969C9.9196 18.3166 10.8804 17.5469 11.8321 16.7693C12.3578 16.3392 12.8806 15.9052 13.3971 15.4659C13.4494 15.4213 13.3679 15.3518 13.3156 15.3964C12.3978 16.1793 11.457 16.9411 10.5161 17.703C9.55524 18.4819 8.5944 19.2595 7.65507 20.0567C7.12468 20.5065 6.60198 20.9628 6.09004 21.4283C6.03777 21.4742 6.11925 21.5437 6.17152 21.4978Z" fill="#010101"/>
</g>
</g>
<g id="Group_14">
<g id="Group_15">
<path id="Vector_14" d="M6.01614 24.1208C7.07231 23.2213 8.16076 22.3506 9.26766 21.4969C10.3592 20.6551 11.4676 19.8277 12.573 18.999C13.2079 18.523 13.8413 18.0457 14.4716 17.5644C14.527 17.5225 14.4455 17.453 14.3901 17.4949C13.2771 18.3446 12.1502 19.1825 11.0295 20.0257C9.92565 20.8557 8.82797 21.6923 7.7549 22.5499C7.13995 23.0429 6.53116 23.5425 5.93466 24.0513C5.88086 24.0959 5.96234 24.1654 6.01614 24.1208Z" fill="#010101"/>
</g>
</g>
<g id="Group_16">
<g id="Group_17">
<path id="Vector_15" d="M7.39946 25.0382C8.61858 23.7925 10.0806 22.7421 11.5426 21.7128C11.9547 21.423 12.3682 21.1332 12.7802 20.8421C12.8371 20.8014 12.7556 20.7319 12.6987 20.7726C11.2398 21.8098 9.73624 22.8103 8.39567 23.9629C8.02055 24.2855 7.65927 24.6199 7.31798 24.9687C7.27032 25.0159 7.3518 25.0867 7.39946 25.0382Z" fill="#010101"/>
</g>
</g>
<g id="Group_18">
<g id="Group_19">
<path id="Vector_16" d="M9.70637 26.3495C10.6995 25.6074 11.645 24.8206 12.5828 24.026C12.8549 23.7952 13.1255 23.5644 13.396 23.3336C13.4483 23.289 13.3668 23.2195 13.3146 23.2641C12.3675 24.0719 11.4221 24.8796 10.4382 25.6546C10.1707 25.8657 9.89854 26.0742 9.62489 26.28C9.56801 26.3207 9.64949 26.3902 9.70637 26.3495Z" fill="#010101"/>
</g>
</g>
<g id="Group_20">
<g id="Group_21">
<path id="Vector_17" d="M22.7737 12.4505C23.9882 11.5195 25.2858 10.6724 26.5033 9.74399C26.8569 9.47387 27.2044 9.19588 27.5395 8.91002C27.5918 8.86544 27.5103 8.79594 27.458 8.84052C26.2896 9.83578 24.9921 10.7091 23.7284 11.6152C23.3779 11.867 23.032 12.1213 22.6922 12.381C22.6369 12.4229 22.7184 12.4924 22.7737 12.4505Z" fill="#010101"/>
</g>
</g>
<g id="Group_22">
<g id="Group_23">
<path id="Vector_18" d="M24.4652 12.4503C25.4599 11.6032 26.5929 10.882 27.6475 10.0926C27.8735 9.92348 28.0995 9.75039 28.3086 9.5655C28.3593 9.51961 28.2778 9.45011 28.2271 9.496C27.8151 9.86316 27.3493 10.1884 26.8927 10.5149C26.3269 10.9201 25.7566 11.32 25.2016 11.7344C24.9218 11.9442 24.6466 12.1566 24.3822 12.3808C24.3299 12.4254 24.4114 12.4949 24.4652 12.4503Z" fill="#010101"/>
</g>
</g>
<g id="Group_24">
<g id="Group_25">
<path id="Vector_19" d="M24.6196 14.1548C25.8495 13.2369 27.0793 12.319 28.3092 11.4011C28.3646 11.3591 28.2831 11.2896 28.2278 11.3316C26.9979 12.2495 25.768 13.1674 24.5381 14.0853C24.4812 14.1259 24.5627 14.1954 24.6196 14.1548Z" fill="#010101"/>
</g>
</g>
<g id="Group_26">
<g id="Group_27">
<path id="Vector_20" d="M9.79089 31.5184C10.5796 30.5834 11.7572 29.9711 12.7026 29.1686C12.7549 29.124 12.6734 29.0545 12.6212 29.0991C11.8709 29.7363 10.9885 30.2491 10.2521 30.9008C10.0507 31.0791 9.86161 31.2679 9.69096 31.4699C9.64791 31.5197 9.74784 31.5695 9.79089 31.5184Z" fill="#010101"/>
</g>
</g>
<g id="Group_28">
<g id="Group_29">
<path id="Vector_21" d="M11.3206 31.6606C11.9371 31.1348 12.5551 30.6103 13.2423 30.1527C13.3007 30.1133 13.2193 30.0452 13.1608 30.0832C12.4736 30.5408 11.8556 31.0653 11.2391 31.5911C11.1853 31.6357 11.2668 31.7052 11.3206 31.6606Z" fill="#010101"/>
</g>
</g>
<g id="Group_30">
<g id="Group_31">
<path id="Vector_22" d="M0.791017 17.3015C1.68268 16.4046 2.70657 15.6021 3.78887 14.8756C3.84729 14.8363 3.76581 14.7668 3.70739 14.8061C2.62509 15.5326 1.60121 16.3351 0.709537 17.232C0.660341 17.2792 0.741821 17.3487 0.791017 17.3015Z" fill="#010101"/>
</g>
</g>
<g id="Group_32">
<g id="Group_33">
<path id="Vector_23" d="M0.790648 18.4825C1.7515 17.663 2.67391 16.8106 3.63476 15.9911C3.68703 15.9465 3.60555 15.877 3.55328 15.9216C2.59243 16.7411 1.67002 17.5935 0.709168 18.413C0.655361 18.4576 0.736841 18.5271 0.790648 18.4825Z" fill="#010101"/>
</g>
</g>
<g id="Group_34">
<g id="Group_35">
<path id="Vector_24" d="M0.866912 19.859C1.64789 19.1273 2.42887 18.3956 3.24982 17.6954C3.30209 17.6508 3.22061 17.5813 3.16834 17.6259C2.34739 18.3261 1.56641 19.0578 0.785432 19.7895C0.734699 19.8354 0.816179 19.9049 0.866912 19.859Z" fill="#010101"/>
</g>
</g>
<g id="Group_36">
<g id="Group_37">
<path id="Vector_25" d="M30.2329 21.4323C31.1753 20.4292 32.2822 19.5506 33.3845 18.6786C33.4383 18.6354 33.3568 18.5659 33.303 18.6091C32.2007 19.4811 31.0938 20.3597 30.1514 21.3628C30.1053 21.4113 30.1852 21.4808 30.2329 21.4323Z" fill="#010101"/>
</g>
</g>
<g id="Group_38">
<g id="Group_39">
<path id="Vector_26" d="M30.9987 21.6289C31.6659 20.9968 32.37 20.3936 33.0742 19.7931C33.1264 19.7485 33.0449 19.679 32.9927 19.7236C32.2886 20.3241 31.5845 20.9273 30.9172 21.5594C30.8665 21.6053 30.948 21.6748 30.9987 21.6289Z" fill="#010101"/>
</g>
</g>
<g id="Group_40">
<g id="Group_41">
<path id="Vector_27" d="M31.8453 23.3337C32.4003 22.8616 32.9937 22.4171 33.4687 21.8808C33.5133 21.8296 33.4134 21.7811 33.3688 21.8309C32.9014 22.3594 32.3111 22.7973 31.7638 23.2629C31.71 23.3087 31.7915 23.3782 31.8453 23.3337Z" fill="#010101"/>
</g>
</g>
<g id="Group_42">
<g id="Group_43">
<path id="Vector_28" d="M20.071 4.19558C21.2409 3.49536 22.3171 2.69154 23.4624 1.96641C23.7852 1.76185 24.1142 1.56385 24.4525 1.37633C24.514 1.34224 24.4571 1.25701 24.394 1.2911C23.2026 1.9533 22.1249 2.74662 21.0026 3.48618C20.6782 3.69992 20.3492 3.90841 20.0126 4.11035C19.9526 4.14706 20.0095 4.23229 20.071 4.19558Z" fill="#010101"/>
</g>
</g>
<g id="Group_44">
<g id="Group_45">
<path id="Vector_29" d="M23.3114 2.9436C24.097 2.34172 24.9456 1.79623 25.8358 1.31237C25.8988 1.27828 25.8404 1.19304 25.7773 1.22714C24.8795 1.71624 24.0217 2.26698 23.2284 2.8741C23.1731 2.91606 23.2561 2.98556 23.3114 2.9436Z" fill="#010101"/>
</g>
</g>
<g id="Group_46">
<g id="Group_47">
<path id="Vector_30" d="M12.2295 4.85143C13.7423 3.8719 15.2704 2.91074 16.8201 1.97317C17.2613 1.70698 17.704 1.44211 18.1483 1.17985C18.2083 1.14445 18.1514 1.05922 18.0899 1.09462C16.5264 2.01776 14.9845 2.96843 13.4594 3.93878C13.0289 4.21283 12.5985 4.48952 12.1711 4.76619C12.1127 4.80422 12.1695 4.89076 12.2295 4.85143Z" fill="#010101"/>
</g>
</g>
<g id="Group_48">
<g id="Group_49">
<path id="Vector_31" d="M16.6112 3.1465C17.6381 2.49087 18.6712 1.84834 19.6413 1.13107C19.6982 1.08911 19.6152 1.01961 19.5598 1.06158C18.5975 1.77229 17.572 2.41088 16.5528 3.06127C16.4944 3.0993 16.5512 3.18453 16.6112 3.1465Z" fill="#010101"/>
</g>
</g>
<g id="Group_50">
<g id="Group_51">
<path id="Vector_32" d="M12.7952 3.08535C13.6177 2.45725 14.5985 1.99436 15.5471 1.52231C15.6331 1.48034 15.5547 1.36627 15.4702 1.40954C14.5093 1.88684 13.5193 2.35759 12.6876 2.99356C12.6138 3.04994 12.7229 3.14173 12.7952 3.08535Z" fill="#010101"/>
</g>
</g>
<g id="Group_52">
<g id="Group_53">
<g id="Group_54">
<path id="Vector_33" d="M17.0715 36.0207C16.6995 35.9656 16.7118 35.8987 16.7763 35.8397C16.8686 35.7558 16.8747 35.6719 16.8547 35.5879C16.764 35.2326 16.7963 34.8785 16.8178 34.5258C16.8286 34.3514 16.8916 34.1796 16.9039 34.0052C16.9255 33.7141 16.9331 33.4243 16.9301 33.1319C16.9285 32.9392 16.8901 32.7451 16.8809 32.5523C16.8655 32.2402 16.844 31.9282 16.8517 31.6174C16.8578 31.3761 16.9116 31.1348 16.9331 30.8936C16.9362 30.8595 16.8962 30.8254 16.8809 30.7926C16.8716 30.7716 16.8455 30.7493 16.8763 30.7323C16.8978 30.7192 17.0069 30.7061 17.0715 30.7074C17.1253 30.7087 17.1868 30.7283 17.216 30.7428C17.2375 30.7533 17.2114 30.769 17.2083 30.7821C17.1776 31.0076 17.133 31.2319 17.113 31.4561C17.0992 31.6017 17.1284 31.7472 17.1284 31.8928C17.1284 31.9662 17.0946 32.0396 17.0976 32.1131C17.1069 32.2914 17.1315 32.471 17.1438 32.6494C17.1468 32.6835 17.1069 32.7162 17.1099 32.7503C17.1284 32.9811 17.1637 33.2119 17.1684 33.4414C17.1714 33.6315 17.1391 33.8203 17.1238 34.0105L17.0776 34.5953C17.0638 34.7749 17.0377 34.9546 17.0361 35.1355C17.0361 35.2221 17.0807 35.3086 17.093 35.3952C17.1115 35.5237 17.1192 35.6522 17.133 35.7807C17.1376 35.8331 17.1453 35.8856 17.1407 35.9367C17.133 35.9617 17.0992 35.9853 17.0715 36.0207Z" fill="#010101"/>
</g>
</g>
</g>
<g id="Group_55">
<g id="Group_56">
<g id="Group_57">
<path id="Vector_34" d="M28.8893 10.1317C28.6864 9.85899 28.754 9.81834 28.8524 9.81571C28.9908 9.81178 29.0723 9.7554 29.1337 9.68066C29.392 9.36464 29.7302 9.12336 30.0592 8.87291C30.2222 8.74965 30.419 8.65917 30.5819 8.53591C30.854 8.33135 31.1169 8.1163 31.3721 7.896C31.5412 7.75045 31.6858 7.5813 31.8518 7.43181C32.1178 7.18923 32.3822 6.94271 32.6666 6.71586C32.888 6.54015 33.1432 6.39591 33.3784 6.232C33.4107 6.20971 33.4153 6.15988 33.4353 6.12447C33.4476 6.10349 33.4506 6.07071 33.4875 6.07727C33.5137 6.08251 33.5998 6.14021 33.6428 6.18086C33.6782 6.21626 33.7012 6.26871 33.7074 6.29756C33.712 6.31854 33.6797 6.3133 33.6674 6.32116C33.4414 6.46409 33.2077 6.60177 32.9925 6.75388C32.8526 6.85223 32.7419 6.97811 32.6128 7.08695C32.5467 7.14202 32.4575 7.17481 32.3945 7.2325C32.2423 7.3715 32.1008 7.52098 31.9502 7.66129C31.921 7.68883 31.8656 7.69013 31.8364 7.71636C31.6443 7.89994 31.4659 8.09532 31.2661 8.26972C31.1 8.41527 30.9094 8.53722 30.7295 8.66966C30.545 8.80603 30.3621 8.94372 30.1761 9.08009C30.0054 9.20597 29.8271 9.32399 29.6626 9.45643C29.5842 9.51937 29.5365 9.61247 29.4674 9.68327C29.3643 9.78949 29.2537 9.88915 29.1445 9.99143C29.0999 10.0334 29.0584 10.0753 29.0061 10.1108C28.9846 10.1278 28.94 10.1239 28.8893 10.1317Z" fill="#010101"/>
</g>
</g>
</g>
<g id="Group_58">
<g id="Group_59">
<g id="Group_60">
<path id="Vector_35" d="M25.7255 6.22201C25.4149 6.03975 25.4626 5.97156 25.5533 5.93354C25.6824 5.87846 25.7347 5.79454 25.7639 5.70144C25.8807 5.30281 26.1282 4.95663 26.3665 4.61177C26.4849 4.4413 26.6509 4.29575 26.7724 4.12922C26.9784 3.84992 27.1736 3.56668 27.3597 3.27951C27.4827 3.08806 27.5749 2.8822 27.6887 2.68813C27.8747 2.37342 28.0469 2.05609 28.239 1.74794C28.3866 1.50798 28.5742 1.28506 28.7233 1.0451C28.7448 1.011 28.7264 0.962484 28.7295 0.923145C28.7325 0.899542 28.7202 0.866762 28.7587 0.858894C28.7848 0.853649 28.8924 0.877252 28.9508 0.899543C29 0.919212 29.0446 0.961174 29.0631 0.986088C29.0769 1.00445 29.0446 1.011 29.0354 1.02412C28.8847 1.24703 28.7187 1.46208 28.5696 1.68107C28.4727 1.82268 28.4112 1.98266 28.3205 2.1269C28.2744 2.20164 28.2006 2.26065 28.1576 2.33539C28.0546 2.51766 27.9638 2.70517 27.8593 2.88744C27.8393 2.92284 27.784 2.93989 27.7655 2.97398C27.6333 3.2087 27.5149 3.45129 27.3689 3.67945C27.2474 3.86828 27.0983 4.04136 26.9615 4.22232L26.5526 4.78354C26.428 4.95663 26.2958 5.12579 26.1882 5.30805C26.1375 5.3946 26.1236 5.4995 26.0867 5.59129C26.0329 5.72897 25.9637 5.8601 25.9084 5.99647C25.8853 6.05155 25.8638 6.10794 25.8315 6.15908C25.8131 6.18399 25.77 6.19579 25.7255 6.22201Z" fill="#010101"/>
</g>
</g>
</g>
<g id="Group_61">
<g id="Group_62">
<g id="Group_63">
<g id="Group_64">
<path id="Vector_36" d="M29.0223 0.77327C28.7717 1.0906 28.4719 1.08011 28.2044 1.02504C27.8232 0.94636 27.4434 0.941114 27.0652 0.958161C25.4618 1.03553 23.8568 1.00799 22.2533 0.98963C21.4631 0.980451 20.6729 0.926689 19.8827 0.916199C18.5621 0.897841 17.2415 0.891287 15.9209 0.893909C15.0462 0.895221 14.1714 0.927999 13.2966 0.935867C11.8807 0.94898 10.4664 0.967338 9.05046 0.960782C7.95125 0.955537 6.8505 0.909642 5.75129 0.891284C5.59756 0.888662 5.44382 0.922754 5.29009 0.935867C5.19631 0.943735 5.0933 0.966026 5.01182 0.939801C4.95494 0.921443 4.89345 0.828344 4.8996 0.77327C4.90421 0.727375 4.99645 0.674924 5.06256 0.65001C5.11175 0.631652 5.1794 0.653942 5.23935 0.656565C6.25708 0.68279 7.27635 0.720821 8.29408 0.737867C8.95361 0.749669 9.61314 0.724754 10.2727 0.724754C10.6078 0.724754 10.9414 0.753599 11.2766 0.750977L13.704 0.71164C13.8578 0.709017 14.0131 0.743111 14.1683 0.740488C15.2107 0.724753 16.253 0.694593 17.2953 0.690659C18.1578 0.688037 19.0218 0.715574 19.8842 0.728687L22.5469 0.768024C23.3664 0.779825 24.1858 0.80212 25.0052 0.803431C25.3987 0.803431 25.7908 0.765401 26.1843 0.75491C26.7685 0.739175 27.3527 0.732621 27.9369 0.72082C28.1752 0.716886 28.412 0.710327 28.6503 0.714261C28.7548 0.720817 28.8609 0.748356 29.0223 0.77327Z" fill="#010101"/>
</g>
</g>
</g>
<g id="Group_65">
<g id="Group_66">
<g id="Group_67">
<path id="Vector_37" d="M33.8273 6.28938C33.4783 6.42051 33.4276 6.34576 33.426 6.25266C33.4245 6.11891 33.3538 6.02844 33.2616 5.95369C32.8665 5.63505 32.5667 5.25609 32.2561 4.88369C32.1024 4.70011 31.9917 4.49031 31.8395 4.30673C31.5843 3.99989 31.3199 3.69961 31.0447 3.40457C30.8633 3.20919 30.6527 3.03217 30.4651 2.83941C30.1622 2.52864 29.8563 2.22049 29.575 1.8966C29.3567 1.64484 29.1783 1.36685 28.9769 1.10459C28.9493 1.06788 28.8862 1.05345 28.8432 1.02591C28.817 1.00887 28.7755 0.998377 28.7848 0.964284C28.7909 0.940681 28.8662 0.871185 28.9185 0.839715C28.9631 0.813489 29.0307 0.802997 29.0661 0.804308C29.0938 0.804308 29.0845 0.833155 29.0953 0.848891C29.2721 1.09803 29.4412 1.35242 29.6303 1.5937C29.7533 1.74974 29.9101 1.8848 30.0439 2.03297C30.1115 2.10903 30.153 2.20213 30.2237 2.27556C30.3975 2.45258 30.5819 2.62305 30.7587 2.79876C30.7926 2.83286 30.7926 2.88662 30.8264 2.9194C31.0554 3.14494 31.2983 3.35999 31.5166 3.59208C31.6965 3.78353 31.8487 3.99464 32.0132 4.19658C32.1823 4.40376 32.353 4.61094 32.5221 4.81944C32.6774 5.01088 32.8249 5.20889 32.9879 5.3964C33.0663 5.48557 33.1831 5.55244 33.2723 5.63505C33.4045 5.75831 33.5291 5.88682 33.6551 6.01401C33.7074 6.06515 33.7597 6.11629 33.8027 6.17399C33.8227 6.19628 33.8181 6.23693 33.8273 6.28938Z" fill="#010101"/>
</g>
</g>
</g>
<g id="Group_68">
<g id="Group_69">
<g id="Group_70">
<path id="Vector_38" d="M0.373935 6.44074C0.124883 6.19553 0.192526 6.13127 0.297067 6.10374C0.446191 6.06309 0.527671 5.97917 0.584553 5.88082C0.825919 5.46515 1.1626 5.10848 1.48698 4.74526C1.64687 4.56692 1.8498 4.4135 2.01122 4.23517C2.28026 3.93751 2.53854 3.63198 2.78759 3.32121C2.95362 3.11534 3.08891 2.89242 3.2488 2.68262C3.50707 2.34431 3.76227 2.00338 4.04207 1.67949C4.26038 1.42773 4.51865 1.19956 4.75233 0.958289C4.78462 0.924196 4.78308 0.869121 4.80153 0.825849C4.81229 0.799623 4.81229 0.762907 4.85226 0.760285C4.88147 0.758974 4.9814 0.799626 5.03059 0.832407C5.07364 0.861256 5.10439 0.912395 5.11361 0.942554C5.1213 0.964846 5.08594 0.966157 5.07364 0.97927C4.84765 1.19694 4.61243 1.40937 4.3972 1.63491C4.25884 1.78046 4.1543 1.9483 4.0267 2.10172C3.96213 2.17909 3.86989 2.23941 3.80839 2.31939C3.66081 2.51346 3.52552 2.71409 3.38101 2.90947C3.35334 2.94618 3.29338 2.96323 3.26571 3.00126C3.08122 3.25433 2.91211 3.51659 2.71687 3.7618C2.55545 3.96505 2.36328 4.15125 2.18648 4.34401C2.00354 4.54332 1.82213 4.74395 1.63918 4.94195C1.47007 5.12553 1.29174 5.30386 1.13032 5.49268C1.05345 5.58316 1.01348 5.69724 0.945832 5.79428C0.847441 5.93852 0.739826 6.07751 0.633749 6.21913C0.590703 6.27683 0.550732 6.33452 0.498462 6.38697C0.475401 6.41058 0.42928 6.41844 0.373935 6.44074Z" fill="#010101"/>
</g>
</g>
</g>
<g id="Group_71">
<g id="Group_72">
<g id="Group_73">
<path id="Vector_39" d="M17.0312 36.2278C16.9912 35.8646 17.2049 35.7492 17.4248 35.6836C17.7399 35.5905 18.0074 35.4384 18.2549 35.2666C19.3065 34.5402 20.4272 33.8951 21.5418 33.242C22.0906 32.9208 22.6702 32.6362 23.2206 32.3163C24.1399 31.7813 25.0516 31.2371 25.9586 30.689C26.5597 30.3244 27.1409 29.9376 27.7404 29.5705C28.709 28.9765 29.6775 28.3824 30.6676 27.8133C31.4378 27.3728 32.2372 26.9676 33.0228 26.548C33.132 26.489 33.2196 26.3998 33.3195 26.3277C33.381 26.2844 33.4394 26.2241 33.5132 26.2149C33.5655 26.2083 33.6685 26.2621 33.6992 26.3093C33.7254 26.35 33.6931 26.4299 33.6639 26.4758C33.6408 26.5099 33.5793 26.5178 33.5363 26.5401C32.8014 26.9177 32.0635 27.2928 31.3425 27.6888C30.8751 27.9445 30.4339 28.233 29.9758 28.5005C29.7436 28.6355 29.4915 28.7496 29.2624 28.8886C28.7074 29.2256 28.1632 29.577 27.6098 29.9179C27.5052 29.9835 27.3761 30.0202 27.2715 30.0858C26.5628 30.5277 25.8664 30.9853 25.1515 31.4207C24.5596 31.7813 23.9478 32.117 23.3467 32.4658L21.4911 33.5423C20.9192 33.8728 20.3427 34.1966 19.7769 34.535C19.5063 34.6976 19.2619 34.8916 18.999 35.0634C18.607 35.3178 18.2103 35.5669 17.8152 35.8161C17.6538 35.9184 17.4939 36.0219 17.3279 36.115C17.251 36.1609 17.1588 36.1806 17.0312 36.2278Z" fill="#010101"/>
</g>
</g>
</g>
<g id="Group_74">
<g id="Group_75">
<g id="Group_76">
<path id="Vector_40" d="M17.1567 36.1748C16.7678 36.3295 16.5618 36.1958 16.4111 36.0397C16.1959 35.8155 15.9299 35.6516 15.6501 35.51C14.4633 34.9068 13.3395 34.2236 12.211 33.547C11.6545 33.2139 11.1272 32.8441 10.5722 32.5098C9.64519 31.9512 8.71047 31.4004 7.77269 30.8536C7.15159 30.4917 6.51051 30.1534 5.88788 29.7915C4.87938 29.208 3.87548 28.6192 2.89465 28.0029C2.13519 27.5204 1.40495 27.0024 0.671626 26.491C0.568623 26.4202 0.439485 26.3769 0.32572 26.3179C0.256539 26.2825 0.170447 26.2524 0.13355 26.1947C0.108953 26.154 0.13355 26.053 0.178134 26.0137C0.21503 25.9796 0.314958 25.9809 0.37799 25.9914C0.424111 25.9993 0.45332 26.0478 0.493292 26.0753C1.16204 26.5566 1.83233 27.0378 2.52414 27.4954C2.97151 27.7931 3.4481 28.0567 3.90777 28.3386C4.13991 28.4828 4.35514 28.6481 4.59189 28.7884C5.16379 29.1267 5.74798 29.4492 6.32603 29.781C6.43672 29.8439 6.52435 29.9357 6.63504 29.9987C7.3822 30.4222 8.14011 30.83 8.88266 31.2575C9.4976 31.6115 10.0926 31.9918 10.6983 32.3577L12.5677 33.4867C13.1427 33.8342 13.7115 34.1895 14.2926 34.5304C14.5709 34.693 14.8753 34.8242 15.1612 34.9789C15.5855 35.2084 16.0052 35.4457 16.4249 35.6804C16.5956 35.7762 16.7693 35.8706 16.9338 35.9742C17.003 36.0201 17.0599 36.0869 17.1567 36.1748Z" fill="#010101"/>
</g>
</g>
</g>
<g id="Group_77">
<g id="Group_78">
<g id="Group_79">
<path id="Vector_41" d="M33.6957 26.675C33.3237 26.4612 33.336 26.2055 33.4006 25.9774C33.4928 25.6522 33.499 25.3283 33.479 25.0057C33.3883 23.6381 33.4206 22.2691 33.4421 20.9014C33.4528 20.2274 33.5159 19.5534 33.5282 18.8794C33.5497 17.753 33.5574 16.6267 33.5543 15.5003C33.5528 14.7542 33.5143 14.008 33.5051 13.2619C33.4897 12.0542 33.4682 10.8479 33.4759 9.64018C33.482 8.70262 33.5359 7.76374 33.5574 6.82618C33.5605 6.69505 33.5205 6.56392 33.5051 6.43279C33.4959 6.35281 33.4697 6.26495 33.5005 6.19545C33.522 6.14694 33.6312 6.09448 33.6957 6.09973C33.7495 6.10366 33.811 6.18234 33.8402 6.23872C33.8618 6.28068 33.8356 6.33838 33.8326 6.38952C33.8018 7.25758 33.7572 8.12696 33.7372 8.99503C33.7234 9.55756 33.7526 10.1201 33.7526 10.6826C33.7526 10.9685 33.7188 11.253 33.7219 11.5389L33.768 13.6094C33.7711 13.7405 33.7311 13.873 33.7342 14.0054C33.7526 14.8945 33.788 15.7835 33.7926 16.6725C33.7957 17.4082 33.7634 18.1451 33.748 18.8807L33.7019 21.1519C33.6881 21.8508 33.6619 22.5497 33.6604 23.2486C33.6604 23.5843 33.705 23.9187 33.7173 24.2543C33.7357 24.7526 33.7434 25.2509 33.7572 25.7492C33.7618 25.9525 33.7695 26.1544 33.7649 26.3576C33.7572 26.4468 33.7249 26.5373 33.6957 26.675Z" fill="#010101"/>
</g>
</g>
</g>
<g id="Group_80">
<g id="Group_81">
<g id="Group_82">
<path id="Vector_42" d="M0.33026 26.123C-0.0417808 25.9158 -0.0294816 25.668 0.0350874 25.4477C0.127329 25.133 0.135016 24.8183 0.111955 24.5062C0.0227886 23.1805 0.0519978 21.8548 0.0765956 20.5291C0.0873571 19.8761 0.153464 19.2231 0.1673 18.57C0.191898 17.4791 0.204196 16.3881 0.208809 15.2958C0.211883 14.572 0.178061 13.8494 0.174986 13.1256C0.168837 11.956 0.158076 10.7863 0.174986 9.61664C0.188823 8.70793 0.247243 7.79922 0.271841 6.8905C0.274916 6.76331 0.234944 6.63611 0.21957 6.50892C0.210346 6.43155 0.184211 6.34632 0.214958 6.27945C0.236481 6.23224 0.345634 6.1811 0.410203 6.18635C0.464011 6.19028 0.525505 6.26633 0.553178 6.32141C0.574701 6.36206 0.547028 6.41844 0.545491 6.46696C0.514743 7.3088 0.464011 8.14933 0.437876 8.99117C0.420965 9.53535 0.445562 10.0808 0.439412 10.6263C0.436338 10.903 0.400978 11.1797 0.400978 11.4564L0.430189 13.4626C0.431726 13.5898 0.391755 13.7183 0.393292 13.8455C0.404054 14.707 0.4348 15.5685 0.4348 16.43C0.4348 17.1434 0.399441 17.8567 0.380993 18.57L0.33026 20.7704C0.313349 21.447 0.290289 22.1249 0.285676 22.8015C0.284139 23.1267 0.33026 23.4506 0.342559 23.7758L0.382531 25.2235C0.387143 25.4201 0.394829 25.6168 0.390217 25.8135C0.391754 25.9014 0.357932 25.9892 0.33026 26.123Z" fill="#010101"/>
</g>
</g>
</g>
</g>
<g id="Group_83">
<g id="Group_84">
<g id="Group_85">
<path id="Vector_43" d="M5.31551 9.61006C5.01418 9.80544 4.96653 9.7543 4.95884 9.67431C4.94808 9.56023 4.88043 9.4986 4.79281 9.45795C4.4223 9.28093 4.12867 9.0331 3.82273 8.79576C3.67207 8.67774 3.55523 8.52826 3.40457 8.41024C3.15244 8.21355 2.89109 8.02735 2.62205 7.8477C2.44372 7.72837 2.24233 7.63266 2.06092 7.51595C1.76575 7.32975 1.46904 7.14355 1.19539 6.93637C0.98323 6.77508 0.803359 6.58101 0.606577 6.40399C0.578904 6.37907 0.522022 6.3817 0.482051 6.36859C0.457453 6.36072 0.420556 6.36203 0.425168 6.33056C0.42978 6.30827 0.491275 6.2309 0.535858 6.19156C0.574292 6.15878 0.632711 6.13387 0.664996 6.126C0.689594 6.11944 0.683445 6.14698 0.694206 6.15616C0.86639 6.32662 1.03243 6.50365 1.21845 6.66231C1.33836 6.7659 1.48748 6.84064 1.61816 6.93375C1.68427 6.98095 1.72731 7.05045 1.79649 7.09503C1.96406 7.20255 2.1424 7.29959 2.31304 7.40318C2.34533 7.42285 2.35148 7.47005 2.38376 7.48841C2.60514 7.62085 2.83882 7.74149 3.05252 7.8818C3.22931 7.9985 3.38151 8.13881 3.54601 8.26862L4.05026 8.66987C4.204 8.79445 4.35005 8.92688 4.50993 9.04621C4.5868 9.10391 4.69441 9.13145 4.77897 9.17996C4.90503 9.25339 5.02495 9.33338 5.14486 9.41205C5.19405 9.44352 5.24479 9.475 5.2863 9.51434C5.30628 9.53138 5.30474 9.5681 5.31551 9.61006Z" fill="#010101"/>
</g>
</g>
</g>
<g id="Group_86">
<g id="Group_87">
<g id="Group_88">
<path id="Vector_44" d="M4.88193 23.7773C4.98032 24.0881 4.91575 24.1025 4.83427 24.0736C4.71743 24.033 4.63595 24.0579 4.5683 24.1077C4.27928 24.3123 3.94721 24.4369 3.62129 24.5759C3.46141 24.644 3.27539 24.6755 3.1155 24.7463C2.848 24.8643 2.58819 24.9942 2.33298 25.1318C2.16387 25.2223 2.01168 25.3403 1.8441 25.4347C1.57353 25.5882 1.30142 25.7442 1.00932 25.8688C0.783326 25.9658 0.532736 26.0222 0.294446 26.0956C0.260624 26.1061 0.245251 26.1494 0.219115 26.1743C0.203742 26.1887 0.19298 26.2176 0.162233 26.2005C0.14071 26.1887 0.0838278 26.1087 0.05923 26.0576C0.037707 26.0143 0.0330955 25.9606 0.0346329 25.9317C0.0361703 25.9107 0.0607672 25.9265 0.0746034 25.9225C0.29752 25.8662 0.52505 25.8137 0.74028 25.739C0.878642 25.6891 0.998556 25.6078 1.12923 25.5449C1.19534 25.5134 1.27836 25.5082 1.34292 25.4728C1.4982 25.3862 1.64578 25.2892 1.79645 25.1987C1.82566 25.1817 1.87485 25.1948 1.90252 25.1777C2.09623 25.0584 2.28071 24.9247 2.48057 24.8145C2.64661 24.7227 2.83109 24.6598 3.00788 24.5837C3.18929 24.5064 3.3707 24.4277 3.55518 24.3529C3.72583 24.2848 3.90109 24.2258 4.06866 24.1523C4.1486 24.1169 4.20856 24.0461 4.28389 24.0028C4.39612 23.9373 4.51296 23.8796 4.6298 23.8219C4.67746 23.7983 4.72358 23.772 4.77585 23.7576C4.80045 23.7498 4.8358 23.7668 4.88193 23.7773Z" fill="#010101"/>
</g>
</g>
</g>
<g id="Group_89">
<g id="Group_90">
<g id="Group_91">
<path id="Vector_45" d="M28.8054 24.088C29.0084 23.8192 29.0745 23.8559 29.1021 23.928C29.1436 24.0316 29.2159 24.0735 29.3066 24.0919C29.6848 24.1758 29.9907 24.3699 30.2982 24.5482C30.4504 24.6374 30.5734 24.7633 30.724 24.8511C30.9777 24.998 31.2391 25.1344 31.5112 25.255C31.6895 25.3363 31.8894 25.3874 32.0738 25.4596C32.3736 25.5736 32.6765 25.6786 32.9686 25.8018C33.1961 25.8962 33.4037 26.0287 33.6266 26.1323C33.6573 26.1467 33.7065 26.1283 33.745 26.1283C33.768 26.1283 33.8003 26.1165 33.8049 26.1467C33.808 26.169 33.7772 26.2581 33.7496 26.308C33.7265 26.3499 33.6819 26.3893 33.6558 26.4063C33.6373 26.4194 33.6327 26.3932 33.6204 26.3866C33.416 26.2778 33.2176 26.1637 33.0116 26.0614C32.8779 25.9972 32.7257 25.9644 32.5873 25.9067C32.5166 25.8779 32.4628 25.8228 32.3905 25.7979C32.2184 25.7323 32.0354 25.6825 31.8617 25.6156C31.8279 25.6038 31.8156 25.5605 31.7817 25.5487C31.5558 25.4674 31.3236 25.3953 31.1084 25.2957C30.9301 25.2144 30.7717 25.1042 30.6072 25.0059L30.0999 24.7017C29.9446 24.6072 29.7955 24.505 29.6341 24.4223C29.5557 24.383 29.4557 24.3751 29.3696 24.3489C29.2466 24.3056 29.1237 24.2624 29.0007 24.2191C28.9499 24.2034 28.8992 24.1903 28.8546 24.1666C28.8331 24.1575 28.8254 24.1234 28.8054 24.088Z" fill="#010101"/>
</g>
</g>
</g>
<g id="Group_92">
<g id="Group_93">
<g id="Group_94">
<path id="Vector_46" d="M8.38005 6.43327C8.00955 6.50146 7.98341 6.42803 8.01109 6.34411C8.04952 6.22347 8.00955 6.13299 7.94344 6.053C7.66211 5.71338 7.48224 5.33573 7.28853 4.96202C7.19321 4.77844 7.14402 4.57519 7.0487 4.39161C6.88882 4.08477 6.71663 3.78187 6.53369 3.4829C6.41377 3.2849 6.26004 3.10001 6.13397 2.90463C5.9295 2.58861 5.72196 2.27259 5.54516 1.94346C5.40834 1.68776 5.31763 1.41501 5.20387 1.15014C5.1885 1.11342 5.13315 1.09113 5.09933 1.06097C5.07934 1.04261 5.04245 1.02688 5.06089 0.998028C5.07473 0.977048 5.16697 0.925909 5.22539 0.904929C5.27613 0.887882 5.34223 0.887884 5.37759 0.89444C5.40373 0.898374 5.38682 0.923286 5.39297 0.93771C5.48674 1.18554 5.57284 1.43599 5.68353 1.67727C5.75578 1.83331 5.86647 1.97493 5.9541 2.12573C5.99715 2.20178 6.01098 2.29095 6.05864 2.36569C6.17394 2.54664 6.30616 2.72236 6.42607 2.902C6.44913 2.9361 6.43529 2.98592 6.45835 3.02002C6.61517 3.2508 6.79042 3.47241 6.93647 3.70844C7.05639 3.90251 7.14402 4.111 7.24702 4.31294L7.56218 4.9371C7.6575 5.12986 7.74205 5.32655 7.84505 5.51538C7.89425 5.60586 7.98649 5.6806 8.04798 5.76714C8.13869 5.89565 8.22017 6.02808 8.30165 6.16052C8.33547 6.21429 8.37083 6.26674 8.39543 6.32443C8.40465 6.34935 8.38774 6.38607 8.38005 6.43327Z" fill="#010101"/>
</g>
</g>
</g>
<g id="Group_95">
<g id="Group_96">
<g id="Group_97">
<g id="Group_98">
<path id="Vector_47" d="M25.595 6.04334C25.4136 6.35936 25.1984 6.34887 25.0078 6.29248C24.7357 6.21249 24.4636 6.20594 24.193 6.22298C23.0446 6.29773 21.8977 6.27281 20.7493 6.2597C20.1835 6.25314 19.6178 6.20069 19.052 6.19414C18.1066 6.18102 17.1611 6.18102 16.2172 6.18889C15.5915 6.19413 14.9642 6.22954 14.3385 6.24134C13.3254 6.2597 12.3123 6.28199 11.2992 6.27675C10.512 6.27281 9.7249 6.22692 8.93777 6.20463C8.82708 6.20201 8.71793 6.23479 8.60724 6.2479C8.54113 6.25577 8.4658 6.27806 8.40892 6.25052C8.36895 6.23216 8.32436 6.13906 8.32897 6.08399C8.33359 6.03809 8.39969 5.98564 8.44581 5.96204C8.48117 5.94368 8.52883 5.96728 8.57188 5.9686C9.30058 5.99875 10.0293 6.03809 10.758 6.05514C11.23 6.06563 11.7019 6.04072 12.1739 6.03941C12.4137 6.03941 12.6536 6.06694 12.8919 6.06301C13.4714 6.05252 14.051 6.02892 14.6291 6.0158C14.7398 6.01318 14.8504 6.04596 14.9611 6.04203C15.7068 6.02236 16.4539 5.98696 17.1995 5.97909C17.8176 5.97253 18.4356 5.99744 19.0536 6.00662C19.6885 6.01711 20.325 6.02629 20.9599 6.03678C21.5472 6.04727 22.1329 6.06694 22.7202 6.06825C23.0015 6.06825 23.2829 6.03023 23.5642 6.01974C23.9824 6.004 24.4005 5.99744 24.8187 5.98826C24.9893 5.98433 25.16 5.97909 25.3291 5.98433C25.4044 5.98958 25.4797 6.01842 25.595 6.04334Z" fill="#010101"/>
</g>
</g>
</g>
<g id="Group_99">
<g id="Group_100">
<g id="Group_101">
<path id="Vector_48" d="M29.0609 9.93364C28.7288 10.0844 28.695 10.0294 28.7073 9.9533C28.7273 9.84446 28.6781 9.78022 28.6058 9.73039C28.3014 9.52059 28.0924 9.25177 27.8725 8.9882C27.7634 8.85839 27.6973 8.70235 27.5896 8.57253C27.4098 8.35486 27.2176 8.14505 27.0193 7.94049C26.8871 7.80412 26.7256 7.68742 26.5888 7.55498C26.3659 7.34124 26.1399 7.13012 25.9385 6.90196C25.7832 6.72494 25.6649 6.52169 25.525 6.33418C25.505 6.30795 25.4512 6.30402 25.4174 6.28697C25.3974 6.27648 25.3605 6.27386 25.3743 6.24501C25.3835 6.22403 25.4619 6.15847 25.5142 6.127C25.5588 6.09946 25.6203 6.08373 25.6526 6.07979C25.6772 6.07717 25.6649 6.10077 25.6726 6.11126C25.7925 6.29091 25.9047 6.4758 26.0369 6.64757C26.123 6.75903 26.2429 6.8482 26.3398 6.95179C26.389 7.00424 26.4105 7.07505 26.4628 7.12619C26.5904 7.24814 26.7303 7.36222 26.8609 7.48286C26.8855 7.50646 26.8778 7.54973 26.904 7.57203C27.0731 7.72544 27.2591 7.86969 27.4175 8.03097C27.5497 8.16472 27.6511 8.31552 27.768 8.45845C27.8879 8.60531 28.0078 8.75217 28.1262 8.89904C28.2353 9.03541 28.3368 9.17703 28.4536 9.30815C28.5105 9.3711 28.6043 9.41044 28.6704 9.46682C28.7703 9.55074 28.861 9.6386 28.9548 9.72645C28.9933 9.76186 29.0332 9.79595 29.0624 9.8366C29.0717 9.85889 29.0609 9.89299 29.0609 9.93364Z" fill="#010101"/>
</g>
</g>
</g>
<g id="Group_102">
<g id="Group_103">
<g id="Group_104">
<path id="Vector_49" d="M5.11374 10.0866C4.85239 9.85577 4.90312 9.8125 4.99229 9.80332C5.11989 9.7889 5.17831 9.7312 5.21521 9.65908C5.36587 9.35224 5.61185 9.10572 5.84706 8.85133C5.96236 8.72676 6.12071 8.62841 6.23755 8.50384C6.43279 8.29535 6.61574 8.0803 6.791 7.86001C6.90784 7.71446 6.99393 7.54923 7.10462 7.39975C7.28296 7.15716 7.45821 6.91326 7.65961 6.6851C7.81642 6.50808 8.01166 6.35597 8.18385 6.18944C8.20844 6.16584 8.19768 6.12125 8.20691 6.08716C8.21306 6.06749 8.20691 6.03733 8.24227 6.03996C8.2684 6.04258 8.36372 6.08847 8.41445 6.12125C8.4575 6.1501 8.49286 6.196 8.50669 6.22091C8.51745 6.23927 8.48671 6.23665 8.47594 6.24583C8.30684 6.394 8.13004 6.53693 7.97323 6.69297C7.87176 6.79394 7.80412 6.9172 7.71341 7.02473C7.66729 7.0798 7.59504 7.11651 7.55199 7.17421C7.44899 7.3132 7.35982 7.45876 7.25989 7.59906C7.24145 7.62529 7.18918 7.63184 7.17073 7.65807C7.04466 7.84033 6.93397 8.03179 6.79715 8.20619C6.68338 8.35043 6.54195 8.47762 6.41281 8.61268C6.2806 8.75167 6.14992 8.89067 6.01617 9.02966C5.89318 9.15686 5.76097 9.2788 5.64567 9.41255C5.59032 9.47681 5.57341 9.56335 5.52729 9.63416C5.46118 9.73906 5.38585 9.83872 5.3136 9.93969C5.28439 9.98034 5.25672 10.0236 5.21828 10.059C5.20137 10.0761 5.15986 10.0761 5.11374 10.0866Z" fill="#010101"/>
</g>
</g>
</g>
<g id="Group_105">
<g id="Group_106">
<g id="Group_107">
<path id="Vector_50" d="M17.0314 31.0246C16.9438 30.6902 17.099 30.6116 17.2682 30.5801C17.508 30.5342 17.7001 30.4293 17.8739 30.3034C18.6118 29.7724 19.4189 29.3239 20.2168 28.8676C20.6104 28.642 21.0347 28.4545 21.4282 28.2303C22.0878 27.8566 22.7396 27.4737 23.3868 27.0842C23.8158 26.8259 24.2247 26.544 24.6505 26.2817C25.3393 25.8582 26.028 25.4333 26.7367 25.0347C27.2887 24.7253 27.8667 24.4512 28.434 24.1601C28.5124 24.1194 28.5693 24.0486 28.6385 23.9936C28.68 23.9608 28.7184 23.9136 28.7768 23.9136C28.8168 23.9136 28.9075 23.9752 28.9382 24.0224C28.9644 24.0631 28.9505 24.1326 28.9336 24.1706C28.9213 24.1994 28.8721 24.1994 28.8414 24.2139C28.311 24.4722 27.7775 24.7266 27.2594 25.0019C26.9228 25.179 26.6122 25.3888 26.2848 25.5789C26.1187 25.6746 25.9342 25.7467 25.7713 25.8464C25.3762 26.0864 24.9918 26.3394 24.5998 26.5833C24.5245 26.6305 24.4276 26.6476 24.3523 26.6948C23.8496 27.0121 23.3576 27.3426 22.8488 27.652C22.4275 27.9077 21.9848 28.1385 21.5528 28.3811L20.2214 29.1325C19.8109 29.3632 19.3943 29.5862 18.99 29.8248C18.7963 29.9389 18.6287 30.0858 18.4427 30.209C18.166 30.3926 17.8831 30.5696 17.6018 30.7479C17.488 30.8201 17.3742 30.8948 17.2543 30.9604C17.199 30.9905 17.1282 30.9984 17.0314 31.0246Z" fill="#010101"/>
</g>
</g>
</g>
<g id="Group_108">
<g id="Group_109">
<g id="Group_110">
<path id="Vector_51" d="M17.1187 30.9257C16.7821 31.1132 16.6375 31.0175 16.5392 30.8929C16.3993 30.7159 16.2102 30.5992 16.0057 30.5047C15.1417 30.1009 14.3407 29.6157 13.5352 29.1397C13.137 28.905 12.7695 28.6336 12.3729 28.3975C11.7103 28.0028 11.04 27.6173 10.3667 27.2357C9.92083 26.984 9.45501 26.7545 9.0061 26.504C8.28046 26.1002 7.55637 25.6924 6.85226 25.2583C6.30803 24.9187 5.79302 24.5437 5.27031 24.1805C5.19806 24.1293 5.09813 24.1083 5.01358 24.069C4.96284 24.0454 4.8952 24.0297 4.87521 23.9838C4.86138 23.951 4.89827 23.8579 4.93978 23.8172C4.97514 23.7818 5.05816 23.77 5.10735 23.7713C5.14425 23.7726 5.16116 23.812 5.18883 23.8317C5.66234 24.1765 6.13431 24.5227 6.62934 24.8479C6.94757 25.059 7.29502 25.2373 7.62401 25.4353C7.79158 25.5363 7.93917 25.6596 8.10982 25.7566C8.52183 25.9913 8.9446 26.2103 9.36123 26.4398C9.44117 26.4831 9.49805 26.5552 9.57799 26.5984C10.1161 26.8909 10.6664 27.1662 11.1999 27.4652C11.6411 27.7117 12.0639 27.9832 12.4959 28.2428L13.8303 29.0414C14.2408 29.2879 14.6451 29.541 15.0602 29.7796C15.2601 29.8937 15.4845 29.9763 15.6921 30.0812C15.9995 30.2386 16.3009 30.4025 16.6037 30.5651C16.7267 30.6306 16.8512 30.6962 16.9681 30.7696C17.0188 30.8024 17.0542 30.8575 17.1187 30.9257Z" fill="#010101"/>
</g>
</g>
</g>
<g id="Group_111">
<g id="Group_112">
<g id="Group_113">
<path id="Vector_52" d="M28.9761 24.284C28.6056 24.1318 28.6179 23.9522 28.684 23.7922C28.7778 23.5641 28.7855 23.3359 28.7655 23.109C28.6778 22.1479 28.7071 21.1867 28.724 20.2256C28.7317 19.7522 28.7932 19.2788 28.8008 18.8054C28.8162 18.0147 28.8177 17.2227 28.8085 16.4307C28.8024 15.9062 28.7609 15.3817 28.747 14.8572C28.7255 14.0088 28.6994 13.1604 28.7071 12.312C28.7117 11.6524 28.767 10.9929 28.7916 10.3346C28.7947 10.2428 28.7563 10.1497 28.7409 10.0579C28.7317 10.0015 28.7055 9.9399 28.7378 9.89139C28.7593 9.85729 28.8685 9.82058 28.9331 9.82451C28.9869 9.82844 29.0484 9.88352 29.076 9.92286C29.0976 9.9517 29.0699 9.99366 29.0683 10.0291C29.033 10.6388 28.9869 11.2486 28.9669 11.8596C28.9546 12.2543 28.9838 12.6503 28.9853 13.045C28.9853 13.2456 28.9515 13.4463 28.9576 13.6469C28.9699 14.1321 28.9976 14.6172 29.013 15.1024C29.0161 15.1955 28.9776 15.2873 28.9807 15.3804C29.0038 16.0046 29.0453 16.63 29.0545 17.2542C29.0622 17.7708 29.033 18.2888 29.0207 18.8068C29.0084 19.3391 28.9976 19.8715 28.9853 20.4026C28.973 20.8943 28.95 21.3847 28.9484 21.8764C28.9484 22.1125 28.993 22.3472 29.0053 22.5832C29.0238 22.9333 29.0314 23.2834 29.0422 23.6336C29.0468 23.7765 29.053 23.9194 29.0468 24.061C29.0391 24.124 29.0053 24.1869 28.9761 24.284Z" fill="#010101"/>
</g>
</g>
</g>
<g id="Group_114">
<g id="Group_115">
<g id="Group_116">
<path id="Vector_53" d="M5.09595 23.8936C4.72391 23.748 4.7362 23.5736 4.80077 23.4189C4.89301 23.1973 4.89916 22.977 4.87764 22.7567C4.78694 21.8257 4.81461 20.8934 4.8346 19.9624C4.84382 19.5034 4.90685 19.0445 4.91761 18.5855C4.9376 17.8184 4.94529 17.0513 4.94375 16.2856C4.94221 15.7768 4.90685 15.2693 4.89916 14.7605C4.88687 13.9384 4.86995 13.1162 4.88225 12.2953C4.89301 11.6568 4.94836 11.0195 4.97142 10.3809C4.9745 10.2917 4.93452 10.2025 4.91915 10.1134C4.90993 10.0596 4.88379 9.99929 4.91454 9.95209C4.93606 9.9193 5.04521 9.88259 5.10978 9.88652C5.16359 9.88914 5.22509 9.94291 5.25429 9.98094C5.27582 10.0098 5.24968 10.0491 5.24661 10.0832C5.21586 10.6746 5.16666 11.266 5.14514 11.8574C5.12977 12.2403 5.15744 12.6232 5.15437 13.0061C5.15283 13.2001 5.11747 13.3942 5.12054 13.5883L5.16052 14.9992C5.16205 15.0884 5.12362 15.1788 5.12669 15.268C5.14207 15.8738 5.17743 16.4796 5.18204 17.0841C5.18511 17.585 5.15283 18.0859 5.13746 18.5868L5.09441 20.1328C5.08057 20.6088 5.05751 21.0848 5.05598 21.5595C5.05598 21.7877 5.1021 22.0158 5.11439 22.244C5.13284 22.5836 5.14207 22.9219 5.1559 23.2615C5.16052 23.3992 5.16974 23.5382 5.16359 23.6759C5.15744 23.7375 5.12516 23.7992 5.09595 23.8936Z" fill="#010101"/>
</g>
</g>
</g>
</g>
</g>
</svg>
