<svg width="36" height="36" viewBox="0 0 36 36" fill="none" xmlns="http://www.w3.org/2000/svg">
<g id="Group">
<g id="Group_2">
<path id="Vector" d="M0.146027 22.6414C0.153774 22.6321 0.156873 22.6275 0.146027 22.6414V22.6414Z" fill="#9FE9F2"/>
<path id="Vector_2" d="M0.144724 22.6405C0.141783 22.6449 0.137371 22.6493 0.13443 22.6538L0.144724 22.6405Z" fill="#9FE9F2"/>
<path id="Vector_3" d="M35.8494 22.378C35.8719 22.3499 35.8887 22.319 35.8901 22.2993C35.8929 22.2403 35.8438 22.194 35.8101 22.1462C35.7581 22.0648 35.671 21.9988 35.6429 21.9032C35.3999 21.2431 35.3002 20.5352 35.1752 19.8343C35.0965 19.3806 35.0193 18.9269 34.9294 18.4704C34.8409 18.0139 34.7285 17.5659 34.6288 17.1122C34.5024 16.5532 34.3493 16.0012 34.2285 15.4421C34.0347 14.6008 33.8436 13.7594 33.6695 12.9139C33.5669 12.4068 33.4967 11.8941 33.3857 11.3899C33.272 10.8786 33.1624 10.3674 33.0402 9.85749C32.9784 9.60466 32.9166 9.34481 32.8408 9.09339C32.7663 8.84056 32.6877 8.59195 32.6076 8.34334C32.536 8.10877 32.4924 7.86016 32.55 7.61014C32.5725 7.52306 32.5767 7.43457 32.543 7.34889C32.5163 7.28007 32.4559 7.21124 32.3449 7.13961C32.3183 7.02864 32.2888 6.9247 32.2803 6.90644C32.2579 6.85026 32.189 6.82357 32.1357 6.78986C32.043 6.73649 31.9404 6.69716 31.8547 6.63676C31.7044 6.52299 31.5387 6.42888 31.38 6.33759L30.9066 6.06931C30.5892 5.89374 30.2788 5.70693 29.9501 5.55242C29.5287 5.35016 29.1088 5.1479 28.6804 4.96249C28.2506 4.77849 27.8222 4.59449 27.3924 4.41611C26.8572 4.20261 26.3164 4.00175 25.7799 3.79107C24.9737 3.46661 24.1674 3.14215 23.3766 2.78679C23.1393 2.68144 22.9061 2.56626 22.6743 2.45109L22.326 2.27973C22.2094 2.22214 22.09 2.17298 21.9777 2.10837C21.5127 1.86257 21.0549 1.61676 20.5815 1.37658C20.1096 1.1392 19.6334 0.896208 19.132 0.730466C18.8988 0.646191 18.6713 0.532419 18.5055 0.335776C18.4451 0.26976 18.3847 0.20515 18.292 0.184081C18.2864 0.182677 18.2808 0.182676 18.2752 0.181272C18.2738 0.179867 18.2752 0.177058 18.2738 0.175653C18.2457 0.125088 18.1572 0.0604771 18.1164 0.0618816C18.0561 0.0632862 18.0111 0.118065 17.9605 0.15318C17.8763 0.207959 17.8018 0.289425 17.7035 0.32454C17.3608 0.457976 16.9956 0.54506 16.6276 0.64619C16.5349 0.674282 16.4394 0.695351 16.3495 0.729062L16.0812 0.833001C15.9014 0.90323 15.723 0.974864 15.5461 1.0479L15.3747 1.11954L15.2104 1.201L14.8817 1.36534C14.664 1.4763 14.442 1.58446 14.2299 1.70244C13.803 1.9356 13.3774 2.17158 12.9462 2.39631C12.4138 2.67301 11.8997 2.99186 11.3688 3.27418C10.9643 3.48065 10.5598 3.68291 10.1524 3.88236C9.74229 4.0776 9.33215 4.27144 8.9192 4.45965C8.42478 4.68579 7.9093 4.86558 7.41629 5.09453C6.41201 5.55102 5.40913 6.02015 4.46805 6.60305C4.24753 6.74211 4.01578 6.86431 3.74469 6.91628C3.56771 6.95139 3.39214 7.03567 3.38512 7.35451C3.37388 7.35451 3.36405 7.35311 3.35702 7.34749C3.31067 7.4444 3.26853 7.5048 3.25168 7.57222C3.21656 7.72111 3.19409 7.8714 3.16881 8.02169C3.11263 8.3925 3.03256 8.7591 2.96514 9.12851C2.9216 9.37712 2.90334 9.63275 2.83873 9.87856C2.77271 10.1342 2.70389 10.3884 2.63085 10.6427L2.40471 11.4011L1.91872 13.0487L1.67854 13.8493C1.60129 14.1176 1.52684 14.3859 1.45942 14.657C1.30351 15.3129 1.18272 15.9759 1.06473 16.6388C1.04647 16.7372 0.991695 16.8271 0.973436 16.9254C0.927084 17.1824 0.87371 17.4381 0.84 17.6979L0.723419 18.4732C0.689709 18.6867 0.619479 18.8932 0.584365 19.1067C0.519754 19.5281 0.48183 19.9523 0.404577 20.3708C0.286592 21.0155 0.17001 21.6673 0.0351698 22.3021C0.0267422 22.3387 -0.00556319 22.3738 0.00567352 22.4047C0.0141011 22.4258 0.0281476 22.451 0.043598 22.4721C0.0562393 22.4932 0.0913531 22.503 0.0843302 22.5339C0.0829256 22.548 0.0829262 22.5676 0.112423 22.576C0.129278 22.5774 0.13911 22.5803 0.153156 22.5789C0.168606 22.576 0.182652 22.5718 0.192484 22.5718C0.20653 22.5676 0.230408 22.5873 0.25569 22.6154C0.243049 22.6154 0.230408 22.6168 0.217767 22.6182C0.199507 22.621 0.179843 22.6252 0.161583 22.6336C0.13911 22.6407 0.143323 22.6659 0.126468 22.6814C0.126468 22.6814 0.127873 22.6828 0.127873 22.6842C0.127873 22.6842 0.123659 22.6828 0.122255 22.6828L0.119445 22.6814H0.118041C0.115232 22.6842 0.125063 22.673 0.134895 22.6603L0.116636 22.6828L0.115231 22.6842C0.113827 22.6842 0.115231 22.687 0.115231 22.6884C0.116636 22.694 0.12085 22.7039 0.12366 22.7123C0.130683 22.732 0.137705 22.7488 0.143324 22.7657C0.155965 22.8008 0.168606 22.8317 0.186866 22.8598C0.269736 22.9834 0.361035 23.107 0.449524 23.232C0.667236 23.5396 0.879328 23.8528 1.10266 24.1604C1.25435 24.3683 1.42431 24.5565 1.57881 24.7686C1.74175 24.9793 1.90046 25.1928 2.05778 25.4077C2.2165 25.6212 2.38926 25.8249 2.55641 26.0327C2.92441 26.478 3.30505 26.9092 3.67446 27.3488C4.03544 27.7758 4.36973 28.2253 4.73774 28.6453C5.18018 29.1551 5.6437 29.6467 6.09597 30.1496C6.16339 30.224 6.20132 30.3224 6.26733 30.3968C6.61848 30.7873 6.96963 31.1777 7.31375 31.5738C7.45562 31.7382 7.57079 31.925 7.70985 32.0907C7.98374 32.4194 8.2773 32.7312 8.54136 33.0669C8.74503 33.3268 8.94448 33.5908 9.14253 33.8549L9.21697 33.9546L9.24787 34.0024L9.28439 34.0558C9.33355 34.1246 9.38412 34.1906 9.43609 34.2566L9.73807 34.6457C9.76055 34.6766 9.76757 34.7243 9.80128 34.7356C9.82375 34.7426 9.85325 34.7496 9.88134 34.751C9.89539 34.7524 9.90803 34.751 9.92067 34.7482C9.92348 34.7454 9.9305 34.7468 9.93612 34.7454V34.7889V34.7904V34.8676H9.93752L9.94033 34.869L9.94595 34.8704C9.95298 34.8718 9.96 34.8732 9.96843 34.8746C9.98388 34.876 9.99933 34.876 10.0148 34.8732C10.0471 34.869 10.0794 34.862 10.1117 34.8578C10.2156 34.8437 10.3196 34.8072 10.4221 34.81C11.1623 34.8283 11.9011 34.8732 12.6414 34.8732C13.5923 34.8732 14.5446 34.8437 15.4955 34.8184C16.084 34.803 16.6711 34.7609 17.2596 34.7524C18.1474 34.7384 19.0351 34.7342 19.9228 34.7426C20.4537 34.7482 20.986 34.7988 21.517 34.803C22.5957 34.8114 23.6744 34.8311 24.7517 34.7454C25.006 34.7243 25.2616 34.7314 25.5186 34.8142C25.6647 34.862 25.8248 34.8774 25.9695 34.7019C25.9737 34.7145 25.9836 34.7328 25.9948 34.7454C26.0102 34.7651 26.0285 34.7805 26.0552 34.7918C26.117 34.8156 26.1409 34.8114 26.1746 34.8086C26.2364 34.7974 26.2631 34.7791 26.2841 34.7665C26.3066 34.7524 26.3207 34.7384 26.3347 34.7229C26.3614 34.6934 26.3811 34.6611 26.3993 34.633C26.4625 34.5417 26.4962 34.4392 26.5622 34.3605L26.7322 34.1485C26.7856 34.0895 26.8544 34.022 26.9148 33.9602L27.2884 33.5796C27.537 33.3254 27.7913 33.0627 28.0329 32.7958C28.3376 32.4461 28.6312 32.0879 28.9248 31.7298C29.0708 31.55 29.2183 31.3716 29.3616 31.1904L29.7872 30.6426C30.1369 30.1903 30.4754 29.7296 30.8125 29.2675L32.3758 27.207C32.6877 26.7968 33.0388 26.4134 33.3506 26.0032C33.9869 25.1731 34.6176 24.3388 35.2005 23.4694C35.3367 23.2629 35.494 23.0705 35.7131 22.9272C35.8606 22.8261 35.98 22.6856 35.8494 22.378Z" fill="#9FE9F2"/>
</g>
<g id="Group_3">
<path id="Vector_4" d="M28.8964 20.6517L22.9058 28.1634L26.2853 34.7594L35.7578 22.5198L28.8964 20.6517Z" fill="#D9F6FA"/>
</g>
<g id="Group_4">
<path id="Vector_5" d="M9.37719 11.3041L18.0154 7.14514V0.150284L3.62399 7.08053L9.37719 11.3041Z" fill="#D9F6FA"/>
</g>
<g id="Group_5">
<g id="Clip path group">
<mask id="mask0_15_2" style="mask-type:luminance" maskUnits="userSpaceOnUse" x="0" y="0" width="36" height="36">
<g id="SVGID_00000101083033285396325500000016757579217493714830_">
<path id="Vector_6" d="M10.0291 35.1428L0.0691833 22.6546L3.6242 7.08053L18.0156 0.150284L32.407 7.08053L35.9621 22.6546L26.0021 35.1428H10.0291Z" fill="white"/>
</g>
</mask>
<g mask="url(#mask0_15_2)">
<g id="Group_6" opacity="0.5">
<path id="Vector_7" d="M7.66884 0.150596L5.13696 2.64622L33.6083 31.5313L36.1402 29.0357L7.66884 0.150596Z" fill="white"/>
<g id="Group_7">
<g id="Group_8">
<path id="Vector_8" d="M36.0449 28.9375C35.6319 29.821 34.8425 30.5851 34.1065 31.2284L33.893 31.4166L33.7652 31.5332L33.6079 31.6792L32.9239 30.9404C32.7188 30.7213 32.5109 30.5036 32.3016 30.2873C31.8845 29.8561 31.4603 29.4319 31.0347 29.0119C26.8574 24.8979 22.7532 20.7052 18.642 16.5223L12.598 10.3042L5.04697 2.64498L7.66933 0.0478973L7.88986 0.269822C10.1526 2.53262 12.4126 4.79541 14.6754 7.0582C18.326 10.727 21.9807 14.3916 25.6144 18.0786C28.439 20.944 31.2313 23.8416 34.0433 26.7196C34.4352 27.1214 34.858 27.4964 35.2639 27.8883C35.5097 28.1256 35.7934 28.3785 35.9802 28.6088C36.1123 28.7717 36.1994 29.0021 36.1432 29.0274C36.094 29.0485 35.8187 28.849 35.6319 28.6959C35.4928 28.5821 35.3341 28.3883 35.1824 28.231C32.5882 25.5595 30.0023 22.8823 27.3982 20.2192C25.7127 18.4972 23.9977 16.799 22.3023 15.0854C21.4413 14.216 20.6028 13.3227 19.7404 12.456L13.4647 6.17612C13.0658 5.77581 12.6907 5.34741 12.2918 4.94851L7.66653 0.330219L5.34895 2.64639L6.099 3.39925C8.32247 5.63957 10.5221 7.90376 12.7329 10.1567L19.5564 17.1094C21.6548 19.25 23.7533 21.3892 25.8517 23.5298C26.8616 24.5524 27.8996 25.5454 28.918 26.5609C30.4265 28.0723 31.9364 29.585 33.4464 31.0963L33.5952 31.2452L33.6051 31.2551H33.6065L33.6079 31.2565L33.6107 31.2579L33.6135 31.2537C33.6163 31.2508 33.6093 31.2579 33.6205 31.2466L33.6683 31.1989L33.8621 31.005L34.2498 30.6188L35.0293 29.8519C35.3102 29.5822 35.6066 29.3322 36.0449 28.9375Z" fill="white"/>
</g>
</g>
</g>
</g>
</g>
<g id="Clip path group_2">
<mask id="mask1_15_2" style="mask-type:luminance" maskUnits="userSpaceOnUse" x="0" y="0" width="36" height="36">
<g id="SVGID_00000101083033285396325500000016757579217493714830__2">
<path id="Vector_9" d="M10.0291 35.1428L0.0691833 22.6546L3.6242 7.08053L18.0156 0.150284L32.407 7.08053L35.9621 22.6546L26.0021 35.1428H10.0291Z" fill="white"/>
</g>
</mask>
<g mask="url(#mask1_15_2)">
<g id="Group_9" opacity="0.5">
<path id="Vector_10" d="M-0.510865 8.19072L-1.57224 9.23689L26.8991 38.1219L27.9605 37.0758L-0.510865 8.19072Z" fill="white"/>
<g id="Group_10">
<g id="Group_11">
<path id="Vector_11" d="M27.8646 36.9787C27.7634 37.2048 27.6356 37.4225 27.4895 37.6318C27.4165 37.7358 27.3392 37.8383 27.2592 37.938C27.2184 37.9886 27.1791 38.0363 27.1342 38.0883L26.8982 38.3397L26.5414 37.9942C26.46 37.9141 26.3799 37.8313 26.3012 37.7484C26.1453 37.5827 25.995 37.4155 25.8518 37.2498C24.9795 36.2455 24.0525 35.296 23.1114 34.3718C19.1266 30.453 15.2148 26.4569 11.296 22.4693C9.36471 20.5043 7.46851 18.5055 5.5372 16.5405L-1.66132 9.23945L-0.509553 8.09892L1.0355 9.65802C3.19294 11.8141 5.34899 13.9701 7.50503 16.1261C10.9856 19.6222 14.4704 23.1154 17.9341 26.6283C20.6267 29.3602 23.287 32.123 25.967 34.8676C26.3406 35.251 26.7437 35.6078 27.1328 35.98C27.3673 36.2062 27.6384 36.4463 27.8154 36.6669C27.9404 36.8228 28.0205 37.0461 27.9643 37.0714C27.9165 37.0939 27.6525 36.9042 27.4727 36.7596C27.3392 36.6528 27.1889 36.466 27.0443 36.3157C24.5722 33.7678 22.1085 31.2142 19.6266 28.6762C18.0212 27.0342 16.3848 25.4175 14.7696 23.7826C13.9493 22.9539 13.1501 22.1013 12.3284 21.2754L6.34484 15.2918C5.9642 14.9112 5.60884 14.501 5.22819 14.1204L-0.510957 8.39108L-1.35792 9.23804L-0.648607 9.95158C1.47092 12.0866 3.56797 14.2454 5.67485 16.3944L12.1781 23.0227C14.1782 25.0636 16.1784 27.103 18.1771 29.1425C19.1392 30.1173 20.1309 31.0626 21.1029 32.0289C22.5412 33.4686 23.9809 34.9097 25.4206 36.3508L26.2324 37.1641L26.9024 37.8425H26.9038L26.9979 37.7526C27.0316 37.7203 27.0667 37.6894 27.1019 37.6557C27.1735 37.5925 27.2465 37.5265 27.3238 37.4562C27.4797 37.32 27.6539 37.1655 27.8646 36.9787Z" fill="white"/>
</g>
</g>
</g>
</g>
</g>
</g>
<g id="Group_12">
<path id="Vector_12" d="M7.244 20.6517L0.188751 22.8527L10.0195 34.81L13.1938 27.9752L7.244 20.6517Z" fill="#D9F6FA"/>
</g>
<g id="Group_13">
<g id="Group_14">
<g id="Group_15">
<path id="Vector_13" d="M17.9217 0.148903C18.2616 0.223346 18.2504 0.31043 18.1914 0.387683C18.1071 0.497241 18.1001 0.608203 18.1198 0.717761C18.204 1.18268 18.1802 1.6476 18.1703 2.11252C18.1647 2.34147 18.1113 2.57041 18.1057 2.79936C18.0945 3.18282 18.0973 3.56486 18.1085 3.94832C18.1155 4.20255 18.1563 4.45537 18.1703 4.7096C18.1928 5.11974 18.2195 5.53129 18.2181 5.94143C18.2167 6.26027 18.1689 6.57911 18.1493 6.89795C18.1464 6.9429 18.183 6.98785 18.197 7.03279C18.2054 7.05948 18.2293 7.09038 18.2012 7.11286C18.1816 7.12971 18.0818 7.14657 18.0228 7.14516C17.9737 7.14376 17.9175 7.11707 17.8908 7.0974C17.8711 7.08336 17.895 7.06369 17.8978 7.04684C17.9273 6.75188 17.9667 6.45691 17.9835 6.16195C17.9933 5.97092 17.9653 5.7799 17.9624 5.58888C17.961 5.49196 17.9905 5.39504 17.9863 5.29813C17.9737 5.06356 17.9456 4.82899 17.9301 4.59443C17.9273 4.54948 17.961 4.50453 17.9582 4.45959C17.9358 4.1576 17.895 3.85421 17.8838 3.55222C17.8754 3.30221 17.8992 3.05219 17.9077 2.80217C17.9161 2.54513 17.9245 2.28669 17.9344 2.02965C17.9428 1.79227 17.9624 1.5549 17.9624 1.31752C17.9624 1.20375 17.9203 1.08998 17.9077 0.974801C17.8894 0.804846 17.881 0.636295 17.8697 0.466339C17.8655 0.397514 17.8585 0.328689 17.8641 0.259865C17.8641 0.226154 17.895 0.195254 17.9217 0.148903Z" fill="#010101"/>
</g>
</g>
</g>
<g id="Group_16">
<g id="Group_17">
<g id="Group_18">
<path id="Vector_14" d="M32.2842 6.94437C32.4331 7.259 32.3558 7.30395 32.2589 7.30535C32.1185 7.30676 32.0258 7.37137 31.9499 7.45564C31.6283 7.81241 31.242 8.0835 30.8614 8.36582C30.6745 8.50487 30.4582 8.6046 30.27 8.74365C29.9568 8.97401 29.6506 9.21419 29.3514 9.4628C29.1534 9.62714 28.9736 9.81816 28.7798 9.98671C28.4651 10.2606 28.1519 10.5387 27.8218 10.7915C27.5648 10.9896 27.2811 11.1511 27.0128 11.3337C26.9749 11.359 26.9622 11.4166 26.9341 11.4545C26.9173 11.4784 26.9074 11.5163 26.8723 11.5079C26.847 11.5023 26.7712 11.4348 26.7375 11.3871C26.708 11.3464 26.6967 11.286 26.6953 11.2537C26.6953 11.2298 26.7248 11.2368 26.7403 11.227C26.9959 11.0668 27.2558 10.9137 27.5016 10.7424C27.6617 10.6314 27.7965 10.4896 27.9482 10.3674C28.0255 10.3056 28.121 10.269 28.1954 10.2044C28.3752 10.0471 28.5466 9.87997 28.725 9.72125C28.7587 9.69035 28.8163 9.69035 28.85 9.65945C29.0789 9.45297 29.2952 9.23245 29.5312 9.0344C29.7264 8.87147 29.9413 8.73382 30.1478 8.58493C30.3599 8.43183 30.5706 8.27733 30.7827 8.12423C30.9793 7.98377 31.1816 7.85033 31.3712 7.70145C31.4625 7.62981 31.5285 7.52587 31.6114 7.44441C31.7364 7.32502 31.867 7.21265 31.9963 7.09747C32.0482 7.05112 32.1002 7.00196 32.1578 6.96404C32.1873 6.94718 32.2308 6.9514 32.2842 6.94437Z" fill="#010101"/>
</g>
</g>
</g>
<g id="Group_19">
<g id="Group_20">
<g id="Group_21">
<path id="Vector_15" d="M26.2326 34.8283C25.8927 34.9083 25.8618 34.8198 25.8772 34.7187C25.8997 34.5754 25.8534 34.4659 25.7831 34.3704C25.4854 33.9602 25.2845 33.5037 25.0724 33.0515C24.9685 32.8281 24.9067 32.5851 24.8027 32.3618C24.63 31.9896 24.4446 31.6216 24.2521 31.2592C24.1243 31.019 23.967 30.7929 23.8336 30.5555C23.6173 30.1706 23.3967 29.7886 23.2029 29.3939C23.0526 29.0863 22.9416 28.759 22.8082 28.4444C22.79 28.4009 22.7352 28.3742 22.7015 28.3363C22.6818 28.3138 22.6453 28.2955 22.6593 28.2604C22.6692 28.2351 22.7506 28.1747 22.804 28.1508C22.8489 28.1298 22.9122 28.1312 22.9445 28.1382C22.9683 28.1438 22.9557 28.1733 22.9627 28.1902C23.0765 28.4865 23.1818 28.7885 23.3097 29.0793C23.3911 29.2675 23.5091 29.4389 23.6018 29.6215C23.6496 29.7142 23.6692 29.8209 23.7198 29.9122C23.8434 30.1313 23.9796 30.3448 24.1061 30.5639C24.1299 30.6061 24.1215 30.6637 24.1454 30.7058C24.3097 30.9867 24.4909 31.2592 24.6454 31.5443C24.7732 31.7803 24.8701 32.0317 24.9825 32.2761C25.0977 32.5275 25.2129 32.7776 25.328 33.0304C25.4334 33.2621 25.5289 33.4995 25.6427 33.7285C25.6975 33.838 25.7902 33.9279 25.8548 34.0333C25.9517 34.1878 26.0402 34.3465 26.1315 34.5052C26.168 34.5698 26.2073 34.633 26.2354 34.7019C26.2481 34.7299 26.2354 34.7721 26.2326 34.8283Z" fill="#010101"/>
</g>
</g>
</g>
<g id="Group_22">
<g id="Group_23">
<g id="Group_24">
<path id="Vector_16" d="M36 22.5227C35.8314 22.8275 35.7443 22.7924 35.6797 22.7137C35.587 22.6 35.4747 22.562 35.3553 22.5494C34.8482 22.496 34.3692 22.3387 33.8875 22.194C33.6501 22.1224 33.4254 22.0044 33.1894 21.9328C32.7933 21.812 32.393 21.7038 31.9913 21.6041C31.7244 21.5381 31.4491 21.5044 31.1808 21.444C30.7468 21.3471 30.3114 21.2544 29.8844 21.1336C29.5529 21.0395 29.2327 20.9018 28.9054 20.7909C28.8604 20.7754 28.8029 20.7979 28.7523 20.7979C28.7214 20.7979 28.6835 20.8119 28.6666 20.7782C28.6554 20.7543 28.6638 20.6532 28.6807 20.597C28.6961 20.5493 28.7382 20.5043 28.7663 20.4847C28.786 20.4692 28.8001 20.4987 28.8183 20.5057C29.1175 20.6195 29.4153 20.7431 29.7187 20.8428C29.9153 20.9074 30.1218 20.9355 30.3226 20.9889C30.4238 21.0156 30.5165 21.0732 30.619 21.0957C30.8676 21.1504 31.119 21.1926 31.3676 21.2445C31.4154 21.2544 31.4533 21.3007 31.4997 21.3106C31.8213 21.3752 32.1472 21.4243 32.4646 21.5002C32.7273 21.5634 32.9815 21.6589 33.24 21.7404C33.5054 21.8232 33.7723 21.9047 34.0378 21.989C34.2836 22.0662 34.5252 22.1533 34.7724 22.2221C34.8918 22.2544 35.021 22.2474 35.1432 22.2685C35.3244 22.3008 35.5027 22.3415 35.6825 22.3794C35.7556 22.3949 35.83 22.4075 35.9003 22.4328C35.934 22.4455 35.9578 22.4834 36 22.5227Z" fill="#010101"/>
</g>
</g>
</g>
<g id="Group_25">
<g id="Group_26">
<g id="Group_27">
<path id="Vector_17" d="M10.0157 34.949C9.74464 34.7299 9.7952 34.6499 9.88369 34.6021C10.0115 34.5333 10.0691 34.4293 10.1014 34.3142C10.2419 33.8282 10.4806 33.3885 10.7068 32.9447C10.8191 32.7256 10.9737 32.5275 11.086 32.3084C11.2742 31.9432 11.4512 31.5724 11.6184 31.1974C11.7293 30.9488 11.8122 30.6861 11.9175 30.4347C12.0889 30.0288 12.256 29.62 12.4499 29.2239C12.6002 28.9163 12.7912 28.6284 12.9583 28.3292C12.9822 28.2871 12.9696 28.2281 12.978 28.1789C12.9836 28.1494 12.9752 28.1101 13.0117 28.0988C13.037 28.0918 13.1353 28.1185 13.1873 28.1452C13.2308 28.1691 13.2688 28.2182 13.2828 28.2491C13.294 28.2716 13.2631 28.28 13.2533 28.2955C13.089 28.568 12.9162 28.8349 12.7631 29.1144C12.6648 29.2942 12.6016 29.4922 12.5145 29.6776C12.4709 29.7717 12.3979 29.8532 12.3572 29.9487C12.2589 30.1805 12.1746 30.4192 12.0791 30.6538C12.0608 30.6987 12.0088 30.7268 11.992 30.7718C11.8712 31.0738 11.7672 31.3842 11.6366 31.6806C11.5285 31.9264 11.3894 32.1581 11.2644 32.3955C11.1366 32.6399 11.0102 32.8857 10.8809 33.1301C10.7616 33.3562 10.6337 33.5767 10.5228 33.8071C10.4694 33.9167 10.4554 34.0459 10.4118 34.1611C10.3486 34.3324 10.277 34.4996 10.2082 34.6681C10.1801 34.7369 10.1548 34.8072 10.1169 34.8704C10.1028 34.8999 10.0621 34.9153 10.0157 34.949Z" fill="#010101"/>
</g>
</g>
</g>
<g id="Group_28">
<g id="Group_29">
<g id="Group_30">
<path id="Vector_18" d="M3.76181 7.15928C4.02868 6.93735 4.09048 6.99915 4.11577 7.09326C4.15088 7.2267 4.23375 7.29974 4.33207 7.35171C4.75064 7.57082 5.10319 7.87562 5.46417 8.16918C5.64115 8.31385 5.79004 8.49645 5.96702 8.64252C6.26198 8.88552 6.56537 9.12008 6.87579 9.34622C7.08086 9.49651 7.30559 9.62012 7.51487 9.76479C7.85197 9.99936 8.19329 10.2297 8.51635 10.4839C8.76636 10.682 8.98969 10.9137 9.22847 11.1258C9.26218 11.1553 9.31977 11.1539 9.36331 11.1708C9.39 11.1806 9.42792 11.1806 9.42933 11.2171C9.42933 11.2424 9.38298 11.3323 9.34505 11.3773C9.31275 11.4152 9.25797 11.4419 9.22707 11.4517C9.20319 11.4587 9.20319 11.4264 9.19055 11.4152C8.97565 11.2101 8.76777 10.998 8.54444 10.8042C8.39977 10.6792 8.23121 10.5837 8.07952 10.4685C8.00227 10.4095 7.94468 10.3266 7.86462 10.2718C7.67078 10.1384 7.46993 10.0148 7.27469 9.88418C7.23676 9.8589 7.22272 9.80412 7.1862 9.78024C6.93337 9.6131 6.66931 9.45859 6.42491 9.28161C6.22125 9.13553 6.03865 8.96277 5.84763 8.80124C5.64958 8.6355 5.45153 8.47257 5.25489 8.30542C5.07229 8.15232 4.89812 7.99079 4.70991 7.84472C4.62001 7.77449 4.50343 7.73797 4.40652 7.67757C4.26184 7.58768 4.12279 7.49076 3.98233 7.39525C3.92474 7.35592 3.86575 7.3194 3.81519 7.27305C3.78709 7.25198 3.78147 7.20984 3.76181 7.15928Z" fill="#010101"/>
</g>
</g>
</g>
<g id="Group_31">
<g id="Group_32">
<g id="Group_33">
<path id="Vector_19" d="M0.244458 22.7852C0.227603 22.4369 0.320305 22.4214 0.417222 22.4551C0.554871 22.5029 0.671453 22.4762 0.779606 22.4242C1.23891 22.2037 1.72911 22.0857 2.2151 21.9565C2.45528 21.8933 2.7067 21.8751 2.94689 21.8118C3.3472 21.7065 3.74469 21.5899 4.13938 21.4635C4.40064 21.3792 4.65346 21.2641 4.91331 21.1756C5.33328 21.0309 5.75185 20.8806 6.17885 20.7598C6.51033 20.6657 6.85445 20.6151 7.19156 20.5393C7.23791 20.528 7.27443 20.4803 7.31797 20.4536C7.34325 20.4382 7.36853 20.4059 7.40084 20.4255C7.42331 20.4396 7.46966 20.5309 7.48371 20.587C7.49635 20.6348 7.48371 20.6966 7.47107 20.7275C7.46124 20.75 7.43455 20.7331 7.41629 20.7359C7.10166 20.7963 6.78422 20.8469 6.47241 20.9199C6.27155 20.9677 6.08053 21.052 5.88248 21.1124C5.78275 21.1433 5.67319 21.1433 5.57347 21.177C5.33328 21.2598 5.09731 21.3568 4.85713 21.4424C4.81218 21.4593 4.756 21.4396 4.70965 21.4565C4.40204 21.5689 4.09865 21.6995 3.78824 21.8006C3.5312 21.8849 3.26432 21.9369 3.00167 22.0029C2.73199 22.0717 2.4623 22.1419 2.19262 22.2093C1.94261 22.2725 1.69118 22.3245 1.44398 22.3962C1.32599 22.4313 1.21924 22.5057 1.10407 22.5521C0.932706 22.6195 0.759941 22.6799 0.585772 22.7403C0.515543 22.7656 0.445314 22.7922 0.372275 22.8077C0.339969 22.8175 0.299237 22.7979 0.244458 22.7852Z" fill="#010101"/>
</g>
</g>
</g>
<g id="Group_34">
<path id="Vector_20" d="M13.2214 28.148L7.11569 20.625L7.943 15.9463L9.13268 11.2887L18.0153 7.14516L22.4917 8.98096L25.6801 10.4052L26.7954 11.2367L28.7871 20.6517L25.5945 24.982L22.8092 28.148H13.2214Z" fill="#D9F6FA"/>
</g>
<g id="Group_35">
<g id="Group_36">
<path id="Vector_21" d="M12.2907 27.1226C13.5871 26.1282 14.7192 24.9399 15.8541 23.7685C16.1674 23.4454 16.4806 23.1224 16.7994 22.8035C16.864 22.7389 16.7643 22.6406 16.6997 22.7038C15.5592 23.8457 14.472 25.0439 13.2711 26.1226C12.9312 26.4274 12.5828 26.7223 12.2205 27.0004C12.1488 27.0552 12.2191 27.1774 12.2907 27.1226Z" fill="#010101"/>
</g>
</g>
<g id="Group_37">
<g id="Group_38">
<path id="Vector_22" d="M13.4282 28.2349C14.4367 27.2264 15.4746 26.246 16.4958 25.2502C16.7865 24.9665 17.0745 24.6827 17.361 24.3962C17.4256 24.3316 17.3259 24.2333 17.2613 24.2965C16.2528 25.305 15.2148 26.2854 14.1937 27.2812C13.9029 27.5649 13.615 27.8487 13.3284 28.1352C13.2652 28.1998 13.3635 28.2981 13.4282 28.2349Z" fill="#010101"/>
</g>
</g>
<g id="Group_39">
<g id="Group_40">
<path id="Vector_23" d="M10.2391 24.0677C11.1002 23.0648 12.044 22.1406 12.9865 21.2163C13.2576 20.9509 13.5287 20.684 13.797 20.4157C13.8616 20.3511 13.7618 20.2528 13.6972 20.316C12.7632 21.2486 11.8024 22.1546 10.9007 23.1182C10.6409 23.3963 10.3866 23.6786 10.1394 23.9679C10.0818 24.0368 10.1801 24.1365 10.2391 24.0677Z" fill="#010101"/>
</g>
</g>
<g id="Group_41">
<g id="Group_42">
<path id="Vector_24" d="M11.2691 25.6015C11.7509 25.0242 12.2355 24.4483 12.7678 23.916C12.8324 23.8514 12.7327 23.7531 12.6681 23.8163C12.1357 24.3486 11.6512 24.9245 11.1694 25.5018C11.1132 25.572 11.2115 25.6717 11.2691 25.6015Z" fill="#010101"/>
</g>
</g>
<g id="Group_43">
<g id="Group_44">
<path id="Vector_25" d="M8.65228 22.1476C9.50065 21.2979 10.2914 20.3947 11.0682 19.4803C11.2929 19.2149 11.5176 18.9494 11.7424 18.6825C11.8 18.6137 11.7016 18.514 11.6426 18.5828C10.8673 19.5 10.0962 20.4214 9.27592 21.2993C9.03854 21.5535 8.79836 21.8021 8.55255 22.0479C8.48935 22.1125 8.58767 22.2123 8.65228 22.1476Z" fill="#010101"/>
</g>
</g>
<g id="Group_45">
<g id="Group_46">
<path id="Vector_26" d="M21.5689 8.84615C20.309 10.033 19.1053 11.2761 17.8931 12.5107C17.5588 12.8506 17.2231 13.1905 16.886 13.5276C16.8214 13.5923 16.9212 13.6906 16.9858 13.6274C18.2007 12.4124 19.3876 11.1679 20.6124 9.9628C20.9608 9.62008 21.3119 9.28017 21.6673 8.94588C21.7347 8.88267 21.635 8.78435 21.5689 8.84615Z" fill="#010101"/>
</g>
</g>
<g id="Group_47">
<g id="Group_48">
<path id="Vector_27" d="M20.2162 12.55C20.8848 11.7353 21.6994 11.0597 22.4748 10.3518C22.6939 10.1523 22.9102 9.95008 23.1195 9.7408C23.1841 9.67619 23.0843 9.57786 23.0197 9.64107C22.2753 10.3841 21.4494 11.04 20.7134 11.7901C20.5055 12.0022 20.3061 12.2199 20.1179 12.4502C20.0603 12.5205 20.16 12.6202 20.2162 12.55Z" fill="#010101"/>
</g>
</g>
<g id="Group_49">
<g id="Group_50">
<path id="Vector_28" d="M22.5422 18.4956C23.7277 17.3101 24.9286 16.1386 26.1422 14.9813C26.5018 14.6385 26.8627 14.2958 27.2237 13.9545C27.2897 13.8927 27.19 13.793 27.124 13.8548C25.8964 15.015 24.6772 16.1836 23.4749 17.3691C23.1294 17.7104 22.7852 18.0517 22.4411 18.3958C22.3779 18.4604 22.4776 18.5602 22.5422 18.4956Z" fill="#010101"/>
</g>
</g>
<g id="Group_51">
<g id="Group_52">
<path id="Vector_29" d="M15.0196 34.9295C16.0211 34.0937 16.9425 33.1653 17.8415 32.2214C18.0957 31.9545 18.3485 31.6863 18.6013 31.418C18.6631 31.352 18.5648 31.2522 18.5016 31.3183C17.6083 32.2678 16.7122 33.2173 15.7528 34.0993C15.4803 34.3494 15.2036 34.5938 14.9199 34.8297C14.8511 34.8887 14.9508 34.987 15.0196 34.9295Z" fill="#010101"/>
</g>
</g>
<g id="Group_53">
<g id="Group_54">
<path id="Vector_30" d="M16.9856 34.7186C17.7272 34.0542 18.2834 33.2101 19.0222 32.5415C19.0896 32.4811 18.9899 32.3814 18.9225 32.4418C18.1837 33.1104 17.6275 33.9545 16.8858 34.6189C16.8198 34.6807 16.9181 34.779 16.9856 34.7186Z" fill="#010101"/>
</g>
</g>
<g id="Group_55">
<g id="Group_56">
<path id="Vector_31" d="M19.7246 34.8592C20.5056 33.8577 21.3806 32.9363 22.2389 32.0009C22.4804 31.7382 22.7192 31.4742 22.9552 31.2073C23.0142 31.1399 22.9159 31.0401 22.8555 31.1076C22.0169 32.0585 21.1306 32.9658 20.3047 33.9294C20.0716 34.2005 19.844 34.4772 19.6249 34.7595C19.5715 34.8311 19.6699 34.9309 19.7246 34.8592Z" fill="#010101"/>
</g>
</g>
<g id="Group_57">
<g id="Group_58">
<path id="Vector_32" d="M7.90201 31.9657C8.32339 31.2662 8.82483 30.6229 9.36559 30.0133C9.42599 29.9459 9.32626 29.8462 9.26587 29.9136C8.71667 30.5316 8.20681 31.1847 7.77981 31.8941C7.73486 31.9727 7.85566 32.0429 7.90201 31.9657Z" fill="#010101"/>
</g>
</g>
<g id="Group_59">
<g id="Group_60">
<path id="Vector_33" d="M6.66251 30.7155C7.60218 29.8461 8.40139 28.8404 9.19077 27.8361C9.24555 27.7659 9.14723 27.6662 9.09104 27.7364C8.30166 28.7407 7.50245 29.7464 6.56278 30.6158C6.49677 30.6776 6.59649 30.7773 6.66251 30.7155Z" fill="#010101"/>
</g>
</g>
<g id="Group_61">
<g id="Group_62">
<path id="Vector_34" d="M8.63952 32.9489C9.20557 31.8926 9.9472 30.9459 10.6762 29.9992C10.731 29.9276 10.6088 29.8574 10.5554 29.929C9.8264 30.8757 9.08478 31.8224 8.51873 32.8787C8.47519 32.9573 8.59739 33.0289 8.63952 32.9489Z" fill="#010101"/>
</g>
</g>
<g id="Group_63">
<g id="Group_64">
<path id="Vector_35" d="M26.958 7.25892C27.4439 6.77153 27.8653 6.2125 28.4187 5.79534C28.4904 5.74197 28.4201 5.61977 28.3485 5.67455C27.7853 6.10014 27.3554 6.66338 26.8596 7.1606C26.795 7.22381 26.8947 7.32353 26.958 7.25892Z" fill="#010101"/>
</g>
</g>
<g id="Group_65">
<g id="Group_66">
<path id="Vector_36" d="M26.9583 8.17193C27.8699 7.40081 28.7815 6.62829 29.627 5.78413C29.6916 5.71952 29.5919 5.6212 29.5273 5.6844C28.6817 6.52856 27.7702 7.30109 26.8586 8.07221C26.7898 8.1312 26.8895 8.23093 26.9583 8.17193Z" fill="#010101"/>
</g>
</g>
<g id="Group_67">
<g id="Group_68">
<path id="Vector_37" d="M21.2697 4.94137C21.8301 4.24188 22.4636 3.60701 23.0957 2.97494C23.1603 2.91033 23.0605 2.81201 22.9959 2.87522C22.3639 3.50728 21.7304 4.14216 21.17 4.84164C21.1152 4.91187 21.2135 5.013 21.2697 4.94137Z" fill="#010101"/>
</g>
</g>
<g id="Group_69">
<g id="Group_70">
<path id="Vector_38" d="M32.155 18.6362C32.9542 17.91 33.7844 17.2203 34.6131 16.5293C34.6819 16.4717 34.5822 16.372 34.5133 16.4296C33.6846 17.1206 32.8545 17.8103 32.0553 18.5364C31.9893 18.5982 32.089 18.698 32.155 18.6362Z" fill="#010101"/>
</g>
</g>
<g id="Group_71">
<g id="Group_72">
<path id="Vector_39" d="M31.5229 20.3918C32.4471 19.3973 33.4809 18.504 34.5989 17.7343C34.6733 17.6837 34.6031 17.5615 34.5287 17.6135C33.648 18.2203 32.8193 18.9015 32.0538 19.6473C31.8389 19.858 31.6282 20.0729 31.4231 20.2935C31.3627 20.3595 31.4611 20.4592 31.5229 20.3918Z" fill="#010101"/>
</g>
</g>
<g id="Group_73">
<g id="Group_74">
<path id="Vector_40" d="M0.833063 19.83C1.59014 19.0083 2.50593 18.365 3.36132 17.6529C3.43155 17.5953 3.33042 17.4956 3.2616 17.5532C2.4062 18.2653 1.49041 18.9086 0.733337 19.7303C0.672939 19.7977 0.772665 19.8974 0.833063 19.83Z" fill="#010101"/>
</g>
</g>
<g id="Group_75">
<g id="Group_76">
<path id="Vector_41" d="M0.341158 21.4453C1.42831 20.4677 2.53513 19.514 3.66161 18.5813C3.98185 18.3173 4.3021 18.0546 4.62516 17.7934C4.69538 17.7358 4.59566 17.6374 4.52543 17.6936C3.38771 18.615 2.26825 19.5561 1.16846 20.5211C0.858047 20.7936 0.549037 21.0689 0.241432 21.3456C0.175416 21.4074 0.275142 21.5057 0.341158 21.4453Z" fill="#010101"/>
</g>
</g>
<g id="Group_77">
<g id="Group_78">
<g id="Group_79">
<g id="Group_80">
<path id="Vector_42" d="M3.37947 7.3994C3.36121 7.02016 3.54802 6.92746 3.73764 6.88813C4.00873 6.83476 4.24189 6.71677 4.46241 6.57631C5.40068 5.98498 6.40777 5.52146 7.40924 5.05935C7.90365 4.83041 8.41773 4.64781 8.91215 4.42167C9.73805 4.04243 10.5569 3.65055 11.3618 3.22917C11.8941 2.95388 12.4054 2.62099 12.9419 2.3499C13.7973 1.89341 14.6344 1.38916 15.5348 0.98464C15.709 0.905983 15.8873 0.832945 16.0671 0.765525C16.2469 0.698105 16.4351 0.633493 16.6205 0.585737C16.9885 0.484606 17.3537 0.397523 17.6965 0.264087C17.792 0.226163 17.8706 0.150314 17.9535 0.0913215C18.0041 0.0548022 18.0504 0.00283218 18.1094 2.2999e-05C18.1501 -0.00138159 18.2386 0.0618257 18.2667 0.113795C18.2906 0.157338 18.2639 0.237398 18.2358 0.285154C18.2147 0.320269 18.16 0.321674 18.122 0.339933C17.4647 0.657371 16.7554 0.731814 16.1093 0.993068C15.6865 1.1546 15.289 1.37512 14.8859 1.58019C14.6808 1.68413 14.4631 1.76419 14.2608 1.87375C13.7734 2.14343 13.2945 2.42856 12.8001 2.68981C12.7059 2.73897 12.595 2.75302 12.5023 2.80499C11.8829 3.16316 11.2578 3.52414 10.6173 3.85C10.0864 4.12109 9.5386 4.35285 8.99783 4.60005L7.32918 5.35853C6.8165 5.5931 6.29961 5.81924 5.79677 6.07066C5.55378 6.19005 5.33326 6.35158 5.09869 6.48361L4.05508 7.08056C3.91322 7.16202 3.77697 7.24911 3.63089 7.32355C3.56769 7.35867 3.48903 7.36709 3.37947 7.3994Z" fill="#010101"/>
</g>
</g>
</g>
<g id="Group_81">
<g id="Group_82">
<g id="Group_83">
<path id="Vector_43" d="M3.35284 7.32631C3.65763 7.54543 3.60988 7.73785 3.51998 7.89657C3.38795 8.12271 3.33317 8.3629 3.29946 8.60729C3.159 9.64388 2.86825 10.6482 2.58172 11.6468C2.43985 12.1398 2.25023 12.6188 2.10697 13.1104C1.86819 13.9321 1.64626 14.758 1.45945 15.5923C1.33866 16.1457 1.24595 16.7062 1.14623 17.2624C0.981891 18.1627 0.851263 19.0673 0.706591 19.9704C0.594223 20.6727 0.448146 21.3694 0.331565 22.0759C0.316115 22.1742 0.335779 22.2824 0.331565 22.3849C0.328756 22.4481 0.338589 22.5226 0.292237 22.5816C0.275382 22.6026 0.238862 22.6195 0.189702 22.6335C0.17987 22.6335 0.165824 22.6391 0.150373 22.6405C0.136327 22.6419 0.126495 22.6391 0.10964 22.6377C0.0801437 22.6293 0.0815487 22.6082 0.0815487 22.5956C0.0885717 22.5647 0.0534568 22.5563 0.0408155 22.5338C0.0239604 22.5127 0.0113196 22.4874 0.00289207 22.465C-0.00974923 22.4341 0.0225562 22.399 0.0323883 22.361C0.105427 22.0478 0.155992 21.7163 0.220603 21.3933L0.40039 20.4185C0.474833 19.9971 0.512757 19.5701 0.581582 19.1487C0.616697 18.9338 0.682712 18.726 0.716423 18.5111C0.796484 17.9928 0.870928 17.4717 0.965035 16.9534C0.983295 16.855 1.03807 16.7637 1.05633 16.6654C1.18275 16.0011 1.29652 15.3325 1.45664 14.6737C1.58727 14.1287 1.75863 13.5936 1.91594 13.057L2.40333 11.401C2.55222 10.8912 2.70954 10.3841 2.83735 9.87002C2.90056 9.62281 2.91882 9.36577 2.96517 9.11716C3.034 8.74635 3.10703 8.37554 3.17024 8.00473C3.19833 7.85443 3.21659 7.70133 3.2503 7.55245C3.26575 7.48503 3.30789 7.42323 3.35284 7.32631Z" fill="#010101"/>
</g>
</g>
</g>
<g id="Group_84">
<g id="Group_85">
<g id="Group_86">
<path id="Vector_44" d="M0.124227 22.7447C0.141082 22.7293 0.138273 22.704 0.159342 22.6969C0.177601 22.6885 0.197265 22.6843 0.215524 22.6815C0.253448 22.6759 0.288563 22.6773 0.320869 22.6801C0.38548 22.6885 0.436046 22.7096 0.475374 22.7377C0.555436 22.7953 0.594764 22.8824 0.618642 22.9708C0.687467 23.2237 0.816689 23.4344 0.966981 23.631C1.29004 24.0425 1.57236 24.4836 1.88558 24.8895C2.196 25.3025 2.52046 25.707 2.85756 26.1031C3.18904 26.4936 3.49243 26.9121 3.82532 27.3054L5.49397 29.269C5.86338 29.703 6.25385 30.1174 6.62326 30.5514C7.22162 31.2523 7.81997 31.9504 8.40147 32.6639C8.62761 32.9406 8.84532 33.2243 9.06163 33.5081L9.38749 33.9337L9.46615 34.0474L9.54481 34.1514L9.71055 34.3593C9.77376 34.4365 9.86646 34.4885 9.94371 34.5587C9.99006 34.6008 10.0533 34.6402 10.0673 34.7104C10.0715 34.7343 10.0617 34.7736 10.0434 34.8143C10.0336 34.8312 10.0224 34.8621 10.0041 34.8775C9.97883 34.9141 9.95776 34.8944 9.95214 34.8846C9.94933 34.8804 9.9409 34.8733 9.93809 34.8747C9.9395 34.8761 9.92966 34.8747 9.92686 34.8761C9.92405 34.8761 9.91983 34.8775 9.91702 34.879C9.90438 34.8818 9.89174 34.8818 9.8777 34.8818C9.8496 34.8804 9.82011 34.8747 9.79763 34.8663C9.76533 34.8551 9.7569 34.8073 9.73443 34.7764L9.43244 34.3845C9.38188 34.3185 9.33131 34.2525 9.28075 34.1823L9.24422 34.1289L9.21332 34.0811L9.13748 33.9814C8.93662 33.7174 8.73576 33.4533 8.53069 33.1934C8.26663 32.8563 7.97167 32.5417 7.69918 32.2102C7.56012 32.0417 7.44635 31.8549 7.30589 31.6891C6.96458 31.2888 6.61202 30.8969 6.2679 30.4994C6.20188 30.4236 6.16536 30.3239 6.09935 30.248C5.65269 29.7382 5.19198 29.2409 4.74813 28.7297C4.38294 28.3055 4.0332 27.8672 3.67362 27.436C3.30422 26.995 2.92217 26.561 2.55276 26.1143C2.21145 25.7028 1.88699 25.2716 1.57657 24.8404C1.42207 24.6269 1.25071 24.4372 1.10042 24.228C0.878491 23.9189 0.664993 23.6043 0.447282 23.2953C0.358793 23.1703 0.267495 23.0453 0.184624 22.9217C0.166365 22.8936 0.153723 22.8627 0.141081 22.8276C0.135463 22.8107 0.12844 22.7925 0.121417 22.7742C0.118608 22.7658 0.114395 22.7559 0.11299 22.7503C0.11299 22.7489 0.111585 22.7461 0.11299 22.7461L0.114395 22.7447L0.142486 22.711L0.143891 22.7096C0.169174 22.6787 0.11018 22.7517 0.115799 22.7433L0.117204 22.7447L0.120012 22.7461C0.121417 22.7461 0.125631 22.7475 0.125631 22.7475C0.124226 22.7461 0.124227 22.7447 0.124227 22.7447Z" fill="#010101"/>
</g>
</g>
</g>
<g id="Group_87">
<g id="Group_88">
<g id="Group_89">
<path id="Vector_45" d="M26.0666 34.6738C25.898 35.0137 25.6971 35.0039 25.5174 34.9449C25.2617 34.8606 25.0061 34.855 24.7505 34.8761C23.6731 34.9632 22.5944 34.9421 21.5157 34.9351C20.9848 34.9309 20.4524 34.8789 19.9215 34.8747C19.0338 34.8662 18.1461 34.8705 17.2584 34.8845C16.6699 34.8943 16.0827 34.9365 15.4942 34.9519C14.5433 34.9772 13.591 35.0067 12.6401 35.0067C11.8999 35.0067 11.1611 34.9618 10.4208 34.9435C10.3169 34.9407 10.2144 34.9772 10.1104 34.9926C10.0795 34.9969 10.0458 35.0053 10.0135 35.0081C9.99805 35.0095 9.9812 35.0109 9.96715 35.0095C9.96013 35.0081 9.9517 35.0067 9.94468 35.0053L9.93906 35.0039L9.93625 35.0025H9.93484V34.6261C9.93625 34.6275 9.94187 34.6289 9.94468 34.6303C9.9826 34.6499 10.0247 34.7497 10.0205 34.8072C10.0191 34.8325 10.0023 34.8578 9.9812 34.8817C9.96996 34.8929 9.95872 34.9042 9.94608 34.914L9.93765 34.921L9.93484 34.9224V34.7019L9.93625 34.7005L9.94046 34.6977C9.94608 34.6935 9.9517 34.6907 9.95732 34.6864C9.98962 34.6668 10.036 34.6907 10.0767 34.6935C10.7607 34.7216 11.4462 34.7595 12.1302 34.7735C12.5727 34.782 13.0165 34.7525 13.4604 34.7497C13.6851 34.7483 13.9098 34.7777 14.136 34.7707C14.6795 34.7567 15.2245 34.7272 15.7681 34.7103C15.872 34.7075 15.976 34.7412 16.0799 34.737C16.7808 34.7117 17.4817 34.6696 18.1812 34.657C18.7613 34.6471 19.3414 34.6696 19.9229 34.6766L21.7137 34.6991C22.2643 34.7061 22.8163 34.7244 23.3669 34.723C23.631 34.7216 23.8951 34.6794 24.1591 34.6668C24.5524 34.6485 24.9443 34.6387 25.3376 34.6261C25.4977 34.6204 25.6578 34.6134 25.8179 34.619C25.8868 34.6162 25.9584 34.6471 26.0666 34.6738Z" fill="#010101"/>
</g>
</g>
</g>
<g id="Group_90">
<g id="Group_91">
<g id="Group_92">
<path id="Vector_46" d="M35.8268 22.3991C35.9884 22.7404 35.8591 22.8865 35.7046 22.9862C35.4855 23.1295 35.3254 23.3219 35.1905 23.5312C34.6175 24.4132 33.977 25.2434 33.3463 26.0833C33.0359 26.4977 32.6862 26.8825 32.3743 27.2955L30.8138 29.37C30.4697 29.8307 30.1326 30.2957 29.7843 30.7508C29.2168 31.4839 28.6466 32.2214 28.03 32.9152C27.7912 33.1905 27.5341 33.4476 27.2813 33.7018L26.9049 34.0852C26.8431 34.1499 26.7799 34.2173 26.7279 34.2735L26.5579 34.4856C26.4933 34.5656 26.4582 34.6682 26.395 34.7595C26.3753 34.7875 26.3571 34.8198 26.3304 34.8493C26.3164 34.8648 26.3023 34.8788 26.2798 34.8929C26.2588 34.9055 26.2335 34.9238 26.1703 34.935C26.1366 34.9378 26.1127 34.9434 26.0509 34.9182C26.0256 34.9069 26.0059 34.8901 25.9905 34.8704C25.9764 34.8536 25.961 34.8227 25.961 34.8142C25.9512 34.7552 25.9736 34.7384 25.9891 34.7215C26.0256 34.6976 26.0663 34.6948 26.0944 34.7005C26.1071 34.7033 26.1183 34.7089 26.131 34.7159C26.1366 34.7187 26.1422 34.7229 26.1492 34.7243L26.159 34.7257C26.159 34.7257 26.1647 34.7257 26.1604 34.7271C26.1534 34.7285 26.1506 34.7285 26.1478 34.7285C26.1057 34.7356 26.1225 34.7566 26.1169 34.7173C26.1127 34.7019 26.1043 34.6752 26.0902 34.6541C26.0832 34.6387 26.086 34.6443 26.0846 34.6372C26.0832 34.6148 26.1281 34.6063 26.1548 34.5811C26.2658 34.4715 26.3725 34.3423 26.4779 34.2159L26.5593 34.1161L26.6478 34.022L26.8234 33.8422C27.058 33.6035 27.2968 33.3703 27.5257 33.1287C27.8221 32.8169 28.0819 32.4686 28.3614 32.1413C28.5019 31.9741 28.6662 31.8253 28.8025 31.6539C29.1312 31.2381 29.4444 30.8111 29.766 30.3898C29.8278 30.3097 29.9177 30.2521 29.9795 30.1721C30.3981 29.6313 30.7773 29.0681 31.1833 28.5189C31.5175 28.0638 31.8743 27.6255 32.217 27.1761L33.2719 25.7869C33.5963 25.3599 33.932 24.94 34.2523 24.5088C34.4054 24.3023 34.5276 24.0705 34.6737 23.8584C34.8914 23.5424 35.1175 23.2334 35.3451 22.9244C35.4364 22.798 35.5291 22.6716 35.6302 22.5522C35.6737 22.5002 35.7411 22.4651 35.8268 22.3991Z" fill="#010101"/>
</g>
</g>
</g>
<g id="Group_93">
<g id="Group_94">
<g id="Group_95">
<path id="Vector_47" d="M32.251 7.06366C32.5839 7.24626 32.5824 7.41059 32.5431 7.59038C32.4869 7.8418 32.5277 8.09182 32.6021 8.32779C32.6808 8.57781 32.7622 8.82782 32.8367 9.08205C32.9125 9.33488 32.9743 9.59613 33.0361 9.85037C33.1583 10.363 33.2693 10.8771 33.3817 11.3912C33.4926 11.8983 33.5614 12.4137 33.6654 12.925C33.8424 13.7748 34.032 14.6203 34.2244 15.4673C34.3522 16.0277 34.5081 16.5826 34.6346 17.1444C34.7357 17.5995 34.8354 18.0532 34.9267 18.5125C35.0152 18.9718 35.0925 19.4297 35.1711 19.8848C35.2961 20.5899 35.3944 21.302 35.6374 21.9664C35.6697 22.0605 35.7484 22.1321 35.799 22.215C35.8327 22.2641 35.8846 22.3077 35.8832 22.3667C35.8818 22.4074 35.8144 22.4917 35.7624 22.5184C35.7175 22.5408 35.6402 22.5141 35.5967 22.486C35.563 22.4664 35.563 22.413 35.5461 22.3765C35.2694 21.743 35.1528 21.0758 35.0321 20.4171C34.9576 19.9901 34.8579 19.5673 34.7862 19.1389C34.7497 18.9226 34.7427 18.7007 34.7006 18.4858C34.5938 17.9661 34.466 17.4492 34.3452 16.9309C34.3227 16.8326 34.3354 16.7258 34.3115 16.6275C34.1528 15.9617 33.9702 15.3016 33.8129 14.6344C33.6836 14.0824 33.5839 13.5248 33.4701 12.9686C33.3564 12.4011 33.2257 11.828 33.105 11.2578C32.9926 10.731 32.8901 10.2015 32.7679 9.6776C32.7117 9.42758 32.6077 9.19021 32.5319 8.9416C32.4195 8.57359 32.3156 8.19857 32.2453 7.80809C32.2158 7.64937 32.192 7.48644 32.192 7.3221C32.1906 7.24766 32.2215 7.17322 32.251 7.06366Z" fill="#010101"/>
</g>
</g>
</g>
<g id="Group_96">
<g id="Group_97">
<g id="Group_98">
<path id="Vector_48" d="M17.9019 0.185451C18.2502 0.0351596 18.378 0.132077 18.4988 0.272536C18.666 0.469178 18.8935 0.584354 19.1253 0.66863C20.138 1.00433 21.0383 1.59144 21.971 2.05777C22.4331 2.2825 22.8924 2.53673 23.3671 2.74602C24.1635 3.09436 24.9712 3.41601 25.776 3.74468C26.3098 3.9638 26.8547 4.15482 27.3871 4.37534C28.2495 4.73351 29.1091 5.10011 29.9462 5.51587C30.2721 5.67739 30.5909 5.85297 30.9056 6.03416L31.3747 6.30806C31.5292 6.39514 31.7006 6.49487 31.8495 6.60864C31.9337 6.67184 32.0391 6.70696 32.129 6.76314C32.1823 6.79685 32.2512 6.82494 32.2736 6.88113C32.2891 6.92186 32.254 7.02299 32.2132 7.06372C32.1781 7.09884 32.0953 7.10024 32.0461 7.09322C32.0096 7.0876 31.9913 7.03985 31.9632 7.01316C31.8424 6.9022 31.7188 6.79685 31.5854 6.70415C31.4548 6.61145 31.3073 6.53279 31.1626 6.4457C30.8733 6.27434 30.5839 6.1086 30.2876 5.94988C29.9055 5.74481 29.5024 5.57907 29.1105 5.39507C28.9111 5.30237 28.7242 5.18157 28.5234 5.09309C28.0346 4.88099 27.5388 4.68716 27.0444 4.48771C26.9503 4.44978 26.8702 4.37815 26.7761 4.34023C26.1356 4.09442 25.4951 3.85002 24.8546 3.60422C24.3265 3.39494 23.8096 3.15756 23.2885 2.92861C22.7533 2.68983 22.2168 2.45808 21.6915 2.18559C21.2097 1.93417 20.749 1.65184 20.2728 1.40183C20.0453 1.28103 19.7953 1.20097 19.5607 1.10265C19.211 0.959379 18.8472 0.818921 18.4918 0.640538C18.3471 0.5675 18.2025 0.490246 18.069 0.390521C18.0128 0.345574 17.9707 0.276749 17.9019 0.185451Z" fill="#010101"/>
</g>
</g>
</g>
</g>
<g id="Group_99">
<g id="Group_100">
<g id="Group_101">
<g id="Group_102">
<path id="Vector_49" d="M9.09387 11.3646C9.01662 11.019 9.13461 10.9643 9.26102 10.96C9.44221 10.9558 9.58688 10.8856 9.71751 10.7929C10.2765 10.401 10.896 10.1243 11.5098 9.8448C11.8132 9.70715 12.1362 9.61304 12.4382 9.47679C12.9439 9.24785 13.4439 9.00626 13.9327 8.745C14.2557 8.57364 14.5619 8.35593 14.8864 8.18457C15.4033 7.89804 15.9103 7.57919 16.4638 7.32918C16.6787 7.23507 16.9034 7.14798 17.138 7.0904C17.3655 7.03281 17.5888 6.98646 17.7953 6.9092C17.8529 6.88814 17.8936 6.82914 17.94 6.78841C17.9681 6.76453 17.9905 6.7252 18.0313 6.73363C18.0594 6.74065 18.1338 6.81229 18.1619 6.86285C18.1872 6.9064 18.1816 6.97381 18.1689 7.01174C18.1591 7.03983 18.1212 7.03281 18.0973 7.04404C17.6815 7.23226 17.2461 7.26176 16.8514 7.41626C16.5916 7.51177 16.3542 7.65645 16.1084 7.78286C15.9834 7.84747 15.8457 7.88539 15.7235 7.95562C15.4286 8.12558 15.1406 8.30958 14.84 8.47673C14.7839 8.50763 14.7094 8.50482 14.6532 8.53712C14.2796 8.76467 13.9032 9.00064 13.5141 9.2043C13.1911 9.37285 12.8526 9.50769 12.5211 9.65658L11.4971 10.1131C11.1825 10.2535 10.8637 10.3856 10.5561 10.5401C10.4086 10.6131 10.2807 10.7269 10.1403 10.8126L9.51104 11.1904C9.42536 11.241 9.34389 11.2971 9.254 11.3407C9.21888 11.3589 9.16551 11.3547 9.09387 11.3646Z" fill="#010101"/>
</g>
</g>
</g>
<g id="Group_103">
<g id="Group_104">
<g id="Group_105">
<path id="Vector_50" d="M8.99812 11.265C9.31415 11.4223 9.28184 11.5403 9.20459 11.633C9.09222 11.765 9.05711 11.9111 9.04306 12.0628C8.98969 12.7047 8.80428 13.3185 8.6259 13.9281C8.53741 14.2286 8.40257 14.5166 8.31268 14.8158C8.16379 15.3172 8.02895 15.8228 7.9208 16.3327C7.85057 16.6712 7.80983 17.0182 7.75506 17.3581C7.66516 17.9087 7.59634 18.4635 7.50785 19.0141C7.43902 19.4425 7.33227 19.8653 7.25502 20.2965C7.24519 20.3569 7.27047 20.4257 7.27328 20.4903C7.27469 20.531 7.29014 20.5788 7.2494 20.6195C7.23395 20.6336 7.20024 20.6434 7.15389 20.6532C7.14406 20.6532 7.13142 20.656 7.11597 20.6574C7.10333 20.6574 7.09349 20.6546 7.07664 20.6532C7.04855 20.6448 7.04995 20.6237 7.05136 20.6097C7.05136 20.59 7.05276 20.5999 7.04152 20.5844L7.01765 20.5675C7.01203 20.5647 7.00641 20.5619 7.0022 20.5577C6.98253 20.5437 6.96568 20.5282 6.95584 20.5142C6.94039 20.4945 6.96989 20.4762 6.97551 20.4538C7.0654 20.0703 7.15389 19.6672 7.23114 19.2739C7.2803 19.0169 7.29154 18.7542 7.33227 18.4958C7.35334 18.3652 7.40531 18.2387 7.42357 18.1067C7.46711 17.7879 7.50083 17.4676 7.5528 17.1488C7.56263 17.0884 7.60898 17.035 7.61881 16.9746C7.68764 16.5659 7.74101 16.1529 7.83371 15.7484C7.90956 15.4127 8.02333 15.0882 8.12165 14.761L8.42785 13.7511C8.52196 13.4407 8.6245 13.1331 8.70175 12.8184C8.73967 12.6681 8.73405 12.5066 8.75793 12.3535C8.79445 12.126 8.83097 11.8998 8.86749 11.6723C8.88294 11.5796 8.89137 11.4869 8.91384 11.397C8.92367 11.3577 8.96019 11.3225 8.99812 11.265Z" fill="#010101"/>
</g>
</g>
</g>
<g id="Group_106">
<g id="Group_107">
<g id="Group_108">
<path id="Vector_51" d="M7.04814 20.7428C7.06359 20.726 7.06219 20.7035 7.07623 20.6894C7.09169 20.6796 7.10854 20.6712 7.12399 20.6642C7.1563 20.6529 7.1872 20.6459 7.21248 20.6431C7.26585 20.6375 7.30659 20.6445 7.33608 20.6585C7.39648 20.6866 7.41474 20.7442 7.42036 20.806C7.43581 20.9802 7.51166 21.1094 7.61138 21.2246C7.82348 21.4676 8.00186 21.733 8.19148 21.9774C8.3825 22.2275 8.57774 22.4747 8.78141 22.7177C8.98226 22.9564 9.15362 23.2261 9.35448 23.4677C9.69158 23.8708 10.0343 24.2683 10.3784 24.6658C10.6074 24.9285 10.8588 25.1729 11.0891 25.4327C11.4628 25.8555 11.8378 26.2755 12.1917 26.7109C12.4642 27.0494 12.7157 27.4132 12.9727 27.7629C13.0106 27.8107 13.078 27.8332 13.13 27.8739C13.1609 27.8978 13.2073 27.9174 13.2101 27.9694C13.2101 27.9877 13.1974 28.02 13.175 28.0565C13.1637 28.072 13.1525 28.0986 13.1342 28.1141C13.1089 28.1492 13.0893 28.1281 13.0823 28.1197C13.0766 28.0986 13.0289 28.1281 13.012 28.1295C12.9882 28.1352 12.9643 28.1366 12.9474 28.1352C12.9221 28.1338 12.9249 28.0986 12.9123 28.0804L12.7339 27.836L12.644 27.7082L12.6216 27.6745L12.6033 27.645L12.5598 27.5832C12.4418 27.4188 12.3224 27.2545 12.1988 27.093C12.0401 26.8851 11.8504 26.6997 11.6833 26.4988C11.5976 26.3963 11.5372 26.2741 11.4487 26.1744C11.2352 25.9328 11.0119 25.701 10.7956 25.4622C10.7549 25.4173 10.7422 25.3471 10.7001 25.3021C10.4206 24.9959 10.1256 24.7023 9.8503 24.3947C9.62416 24.1391 9.41768 23.8652 9.19997 23.5997L8.52156 22.7865C8.31508 22.5323 8.12125 22.264 7.93022 21.9999C7.83471 21.8693 7.71673 21.7611 7.61981 21.6361C7.47795 21.4507 7.34451 21.2611 7.20827 21.0743C7.15208 20.9999 7.09449 20.9254 7.04674 20.8496C7.0355 20.8327 7.03129 20.8116 7.02707 20.7892C7.02567 20.7779 7.02426 20.7653 7.02286 20.754C7.02145 20.747 7.02286 20.7442 7.02426 20.74C7.02286 20.733 7.05797 20.7526 7.04814 20.7428Z" fill="#010101"/>
</g>
</g>
</g>
<g id="Group_109">
<g id="Group_110">
<g id="Group_111">
<path id="Vector_52" d="M22.9332 27.9357C22.8306 28.2756 22.707 28.2658 22.5975 28.2068C22.4416 28.1225 22.2843 28.1169 22.1298 28.138C21.471 28.2251 20.8123 28.204 20.1521 28.197C19.8276 28.1928 19.5032 28.1408 19.1773 28.1366C18.6351 28.1282 18.0916 28.1324 17.5494 28.1464C17.1898 28.1563 16.8302 28.1984 16.4707 28.2138C15.8892 28.2391 15.3077 28.2686 14.7262 28.2686C14.2739 28.2686 13.8216 28.2237 13.3693 28.2054C13.3061 28.2026 13.2429 28.2391 13.1797 28.2546C13.1601 28.2588 13.1404 28.2672 13.1207 28.27C13.1109 28.2714 13.1011 28.2728 13.0926 28.2714C13.0884 28.27 13.0828 28.2686 13.0786 28.2672L13.0758 28.2658L13.0744 28.2644H13.073V27.888C13.0744 27.8894 13.0772 27.8908 13.0786 27.8922C13.1025 27.9119 13.1277 28.0116 13.1249 28.0692C13.1235 28.0945 13.1137 28.1197 13.1011 28.1436C13.094 28.1549 13.087 28.1661 13.08 28.1759L13.0744 28.1829L13.073 28.1843V27.9638V27.9624L13.0758 27.9596C13.08 27.9554 13.0828 27.9512 13.087 27.9484C13.1067 27.9287 13.1348 27.9526 13.1601 27.9554C13.5786 27.9835 13.9972 28.0214 14.4158 28.0355C14.6868 28.0439 14.9579 28.0144 15.229 28.0116C15.3667 28.0102 15.5043 28.0397 15.642 28.0327C15.9748 28.0186 16.3063 27.9891 16.6392 27.9723C16.7024 27.9694 16.767 28.0032 16.8302 27.9989C17.2586 27.9737 17.687 27.9315 18.1154 27.9189C18.4694 27.909 18.8248 27.9315 19.1801 27.9385L20.2743 27.961C20.6114 27.968 20.9485 27.9863 21.2842 27.9849C21.4457 27.9835 21.6073 27.9414 21.7688 27.9287C22.009 27.9105 22.2491 27.9006 22.4893 27.888C22.5877 27.8824 22.6846 27.8753 22.7829 27.881C22.8236 27.8796 22.8672 27.909 22.9332 27.9357Z" fill="#010101"/>
</g>
</g>
</g>
<g id="Group_112">
<g id="Group_113">
<g id="Group_114">
<path id="Vector_53" d="M28.857 20.4536C29.0593 20.7458 28.9778 20.8315 28.8641 20.8778C28.7053 20.9452 28.6056 21.0618 28.5298 21.1938C28.2067 21.7529 27.8092 22.2557 27.4215 22.767C27.2305 23.0184 27.0002 23.2431 26.8077 23.4946C26.4861 23.9145 26.1715 24.3401 25.8568 24.7657C25.6504 25.0509 25.4537 25.3416 25.2416 25.6225C24.8961 26.0734 24.5562 26.5299 24.191 26.9653C24.0449 27.1339 23.8834 27.2898 23.7247 27.4415L23.4887 27.669L23.3805 27.7786L23.2738 27.9078C23.2331 27.9569 23.2232 28.0286 23.1867 28.0918C23.1755 28.11 23.1656 28.1339 23.1474 28.155C23.1375 28.1662 23.1277 28.1761 23.1109 28.1873C23.0954 28.1957 23.0729 28.2112 23.0153 28.221C22.983 28.2238 22.9606 28.228 22.9016 28.2042C22.8763 28.1929 22.8594 28.1775 22.844 28.1578C22.8299 28.1409 22.8159 28.1115 22.8159 28.103C22.8075 28.0468 22.8299 28.0328 22.8454 28.0202C22.8805 28.0019 22.9212 28.0033 22.9493 28.0075C22.962 28.0103 22.9746 28.0145 22.9858 28.0173C22.9915 28.0187 22.9985 28.0216 23.0041 28.0216C23.021 28.0202 22.9887 28.023 22.983 28.0244C22.9578 28.0286 22.9676 28.0412 22.9648 28.0173C22.962 28.0089 22.9564 27.9921 22.9479 27.978C22.9395 27.9598 22.9283 27.9457 22.917 27.9274C22.9058 27.912 22.9381 27.9148 22.9535 27.9008C23.0196 27.839 23.0884 27.7617 23.1544 27.6873C23.2218 27.603 23.3019 27.5342 23.3735 27.4625C23.521 27.3207 23.6713 27.1802 23.8132 27.0355C23.9986 26.8487 24.1432 26.624 24.309 26.4203C24.3932 26.3164 24.5014 26.2321 24.5829 26.1268C24.7795 25.8697 24.9649 25.6029 25.1587 25.343C25.1953 25.2938 25.2613 25.2672 25.2978 25.218C25.5506 24.8851 25.7669 24.5297 26.0113 24.1912C26.2122 23.9117 26.4369 23.6491 26.649 23.3752L27.3007 22.531C27.5016 22.2712 27.7123 22.0183 27.9075 21.7557C28.0016 21.6293 28.062 21.4776 28.1477 21.3441C28.2741 21.1461 28.4104 20.9551 28.5466 20.7626C28.6014 20.684 28.6562 20.6053 28.7194 20.5337C28.7461 20.5028 28.7966 20.4873 28.857 20.4536Z" fill="#010101"/>
</g>
</g>
</g>
<g id="Group_115">
<g id="Group_116">
<g id="Group_117">
<path id="Vector_54" d="M26.6607 11.1116C26.9964 11.231 26.9907 11.3181 26.9444 11.4305C26.877 11.585 26.9008 11.7395 26.9528 11.8813C27.0666 12.1791 27.1705 12.4909 27.2422 12.807C27.318 13.1188 27.3826 13.4348 27.4514 13.7494C27.5161 14.0599 27.5427 14.3787 27.5989 14.6919C27.6987 15.213 27.811 15.7313 27.9318 16.2482C28.0119 16.5909 28.1242 16.9266 28.2113 17.2679C28.2787 17.546 28.3574 17.8185 28.4164 18.0995C28.4754 18.3804 28.5245 18.6599 28.5723 18.9366C28.6482 19.365 28.6903 19.8004 28.8307 20.2021C28.849 20.2597 28.9094 20.2962 28.9459 20.3426C28.9684 20.3707 29.0091 20.3917 28.9979 20.4311C28.9895 20.4592 28.915 20.5294 28.8631 20.5561C28.8195 20.58 28.7535 20.5729 28.717 20.5617C28.6903 20.5533 28.6973 20.5153 28.6875 20.4929C28.5246 20.094 28.4684 19.681 28.3995 19.2779C28.3574 19.0152 28.2858 18.7596 28.2394 18.4984C28.2155 18.3663 28.224 18.2287 28.1945 18.098C28.1214 17.782 28.0217 17.4702 27.9416 17.1556C27.9262 17.0952 27.9459 17.0277 27.9304 16.9688C27.8208 16.5642 27.6944 16.1639 27.5975 15.758C27.5175 15.4223 27.4683 15.0782 27.4065 14.7383C27.3447 14.3885 27.2632 14.0388 27.1944 13.689C27.1284 13.366 27.0722 13.0415 26.9978 12.7213C26.9626 12.5682 26.884 12.4291 26.832 12.2788C26.7562 12.0555 26.6887 11.8252 26.6396 11.5822C26.6199 11.4838 26.6017 11.3813 26.6031 11.2774C26.6017 11.2268 26.6326 11.179 26.6607 11.1116Z" fill="#010101"/>
</g>
</g>
</g>
<g id="Group_118">
<g id="Group_119">
<g id="Group_120">
<path id="Vector_55" d="M17.9086 6.94984C18.2078 6.75741 18.2724 6.81219 18.3342 6.91753C18.4185 7.06501 18.5561 7.13805 18.7022 7.18159C19.3371 7.35576 19.8877 7.72376 20.4523 8.0103C20.7319 8.14795 21.0043 8.32212 21.2937 8.45134C21.7783 8.66624 22.2727 8.86148 22.7671 9.05813C23.0944 9.18875 23.4343 9.28988 23.763 9.42051C24.2939 9.62979 24.8262 9.8447 25.3389 10.1003C25.5384 10.1987 25.7322 10.311 25.9218 10.4262L26.2055 10.6004C26.2982 10.6551 26.4064 10.7212 26.4977 10.7942C26.5497 10.8349 26.6241 10.8462 26.6831 10.8771C26.7182 10.8953 26.7674 10.9052 26.7744 10.9487C26.7786 10.9796 26.7323 11.0709 26.6915 11.113C26.6578 11.1496 26.5932 11.1664 26.5567 11.1692C26.5286 11.172 26.5244 11.1355 26.5075 11.1187C26.4359 11.0484 26.3643 10.9838 26.287 10.9262C26.2112 10.8686 26.1227 10.8181 26.0356 10.7619C25.8614 10.6523 25.6872 10.5456 25.5075 10.4473C25.2757 10.3194 25.0243 10.2281 24.7841 10.1172C24.6619 10.061 24.5537 9.97673 24.4287 9.92476C24.1282 9.79975 23.8205 9.6916 23.5158 9.57642C23.4582 9.55395 23.4146 9.49776 23.3556 9.47669C22.9609 9.33062 22.562 9.2042 22.1702 9.05532C21.8457 8.93171 21.5325 8.77861 21.215 8.63534C20.8878 8.48646 20.5619 8.34319 20.2402 8.17183C19.9467 8.01452 19.6672 7.83613 19.3764 7.68444C19.2374 7.6114 19.0773 7.57769 18.9326 7.5215C18.7177 7.44144 18.4929 7.35857 18.2696 7.25182C18.1783 7.20828 18.0856 7.16193 18.0027 7.09591C17.9662 7.06782 17.9466 7.01585 17.9086 6.94984Z" fill="#010101"/>
</g>
</g>
</g>
</g>
</g>
</svg>
