<svg width="30" height="30" viewBox="0 0 30 30" fill="none" xmlns="http://www.w3.org/2000/svg">
<g id="ph:link-thin">
<path id="Vector" d="M27.6563 10.3266C27.6139 11.8396 26.9927 13.2787 25.9207 14.3473L21.8485 18.4184C21.2984 18.9712 20.6442 19.4094 19.9237 19.7077C19.2032 20.006 18.4306 20.1585 17.6508 20.1562H17.645C16.8527 20.1556 16.0686 19.9963 15.3389 19.6877C14.6092 19.3791 13.9487 18.9275 13.3963 18.3596C12.844 17.7916 12.411 17.1188 12.1229 16.3807C11.8347 15.6427 11.6973 14.8545 11.7188 14.0625C11.7221 13.9404 11.773 13.8245 11.8606 13.7393C11.9481 13.6542 12.0654 13.6066 12.1875 13.6066H12.2004C12.262 13.6083 12.3226 13.6221 12.3789 13.6472C12.4351 13.6723 12.4858 13.7083 12.5282 13.753C12.5705 13.7977 12.6036 13.8504 12.6256 13.9079C12.6476 13.9654 12.658 14.0267 12.6563 14.0883C12.6385 14.755 12.7543 15.4186 12.997 16.0399C13.2396 16.6612 13.6043 17.2276 14.0693 17.7058C14.5343 18.1839 15.0904 18.5641 15.7047 18.824C16.319 19.0838 16.9791 19.218 17.6461 19.2187C18.3024 19.2206 18.9526 19.0922 19.5589 18.841C20.1652 18.5897 20.7156 18.2206 21.1782 17.7551L25.2504 13.684C25.7218 13.2217 26.0968 12.6707 26.3539 12.0626C26.611 11.4545 26.745 10.8015 26.7482 10.1413C26.7514 9.48117 26.6238 8.8269 26.3726 8.21637C26.1214 7.60584 25.7517 7.05115 25.2848 6.58437C24.8179 6.11759 24.2632 5.74797 23.6526 5.49688C23.042 5.24579 22.3878 5.11821 21.7276 5.12152C21.0674 5.12482 20.4144 5.25895 19.8064 5.51614C19.1984 5.77333 18.6474 6.14849 18.1852 6.61992L16.8961 7.90898C16.8076 7.99326 16.6896 8.03961 16.5674 8.03816C16.4451 8.0367 16.3283 7.98755 16.2418 7.90119C16.1553 7.81483 16.1059 7.69808 16.1043 7.57585C16.1026 7.45362 16.1487 7.33557 16.2328 7.24687L17.5219 5.95781C18.3619 5.11524 19.4357 4.5446 20.6041 4.31995C21.7724 4.0953 22.9813 4.22701 24.0738 4.69799C25.1664 5.16897 26.0921 5.95747 26.731 6.96115C27.3698 7.96484 27.6922 9.13736 27.6563 10.3266ZM13.0993 22.0887L11.8102 23.3777C11.3472 23.8442 10.7961 24.214 10.189 24.4657C9.58181 24.7174 8.93071 24.8459 8.27347 24.8437C7.28585 24.8429 6.32065 24.5493 5.49982 24.0001C4.67899 23.4508 4.03936 22.6707 3.66176 21.7581C3.28416 20.8455 3.18553 19.8414 3.37832 18.8728C3.57112 17.9042 4.04669 17.0145 4.74496 16.316L8.81722 12.2449C9.52424 11.5378 10.4272 11.0591 11.4093 10.8708C12.3913 10.6825 13.4073 10.7932 14.3258 11.1887C15.2442 11.5842 16.0228 12.2462 16.5609 13.089C17.0989 13.9319 17.3717 14.9168 17.3438 15.9164C17.3402 16.0407 17.3862 16.1614 17.4715 16.2518C17.5569 16.3422 17.6747 16.3951 17.7991 16.3986C17.9234 16.4022 18.044 16.3562 18.1345 16.2709C18.2249 16.1855 18.2777 16.0677 18.2813 15.9434C18.3149 14.7555 17.9912 13.5849 17.352 12.5831C16.7128 11.5813 15.7875 10.7945 14.696 10.3246C13.6045 9.85466 12.3971 9.72325 11.2301 9.94737C10.063 10.1715 8.99019 10.7408 8.15042 11.5816L4.07816 15.6527C3.2487 16.4822 2.68375 17.539 2.45468 18.6894C2.22561 19.8399 2.34271 21.0325 2.79119 22.1164C3.23966 23.2003 3.99938 24.127 4.97434 24.7793C5.94929 25.4316 7.09573 25.7803 8.26878 25.7812C9.04842 25.7833 9.82072 25.6308 10.541 25.3325C11.2613 25.0342 11.9154 24.596 12.4653 24.0434L13.7543 22.7543C13.7997 22.7112 13.836 22.6595 13.8611 22.6022C13.8862 22.5449 13.8996 22.4832 13.9005 22.4206C13.9013 22.358 13.8896 22.2959 13.8661 22.238C13.8426 22.18 13.8077 22.1273 13.7635 22.083C13.7193 22.0387 13.6667 22.0038 13.6088 21.9801C13.5508 21.9565 13.4887 21.9447 13.4262 21.9455C13.3636 21.9462 13.3018 21.9595 13.2445 21.9845C13.1871 22.0095 13.1354 22.0457 13.0922 22.091L13.0993 22.0887Z" fill="#010101"/>
</g>
</svg>
