<svg width="25" height="25" viewBox="0 0 25 25" fill="none" xmlns="http://www.w3.org/2000/svg">
<path d="M11.7732 24.5833C11.183 24.5833 10.6794 24.3752 10.2623 23.9589C9.84531 23.5436 9.6368 23.0441 9.6368 22.4604H13.9175C13.9175 23.0476 13.7077 23.5484 13.288 23.9629C12.8675 24.3765 12.3625 24.5833 11.7732 24.5833ZM3.16266 21.1446C2.97447 21.1446 2.8172 21.0816 2.69085 20.9554C2.56451 20.8292 2.50089 20.6728 2.50001 20.4861C2.49913 20.2994 2.56274 20.1435 2.69085 20.0181C2.81897 19.8928 2.97624 19.8302 3.16266 19.8302H4.64171V9.41557C4.64171 7.69798 5.1895 6.18765 6.28509 4.88457C7.38068 3.58148 8.7696 2.76957 10.4519 2.44884V1.73113C10.4519 1.36571 10.5804 1.05549 10.8375 0.800485C11.0946 0.5446 11.407 0.416656 11.7745 0.416656C12.1421 0.416656 12.4553 0.5446 12.7142 0.800485C12.973 1.05637 13.1025 1.36659 13.1025 1.73113V1.82972C12.9107 2.12679 12.7429 2.42605 12.5989 2.72751C12.4548 3.02896 12.3422 3.34969 12.2609 3.6897L12.025 3.66342C11.9481 3.6564 11.8655 3.6529 11.7772 3.6529C10.1665 3.6529 8.79522 4.21374 7.66341 5.33543C6.5316 6.45712 5.96613 7.81716 5.96702 9.41557V19.8302H17.5886V11.8408C17.7989 11.8802 18.0158 11.9113 18.2394 11.9341C18.4629 11.9569 18.6873 11.96 18.9126 11.9433V19.8302H20.3917C20.5799 19.8302 20.7371 19.8933 20.8635 20.0195C20.9907 20.1456 21.0543 20.3021 21.0543 20.4887C21.0543 20.6754 20.9907 20.8314 20.8635 20.9567C20.7363 21.082 20.579 21.1446 20.3917 21.1446H3.16266ZM18.356 8.83457C17.4362 8.83457 16.6534 8.51515 16.0076 7.87632C15.3617 7.23748 15.0392 6.46238 15.0401 5.551C15.041 4.63963 15.3626 3.86322 16.0049 3.22175C16.6472 2.58029 17.4292 2.26043 18.3507 2.26218C19.2722 2.26394 20.0542 2.58292 20.6965 3.21912C21.3388 3.85533 21.6622 4.63087 21.6666 5.54575C21.671 6.46062 21.349 7.2366 20.7005 7.87369C20.052 8.51077 19.27 8.83063 18.3547 8.83325" fill="#242424"/>
<circle cx="18.5" cy="5.5" r="3.5" fill="#FF0000"/>
</svg>
