<svg width="23" height="24" viewBox="0 0 23 24" fill="none" xmlns="http://www.w3.org/2000/svg">
<g id="nimbus:money" clip-path="url(#clip0_305_4435)">
<path id="Vector" d="M17.7101 12C16.906 11.326 15.8839 10.9683 14.8351 10.9938H8.09318C7.78579 11.0015 7.48 10.9472 7.1941 10.834C6.9082 10.7208 6.64809 10.5511 6.42932 10.335C6.21055 10.1189 6.03764 9.8609 5.92092 9.57642C5.80421 9.29194 5.74609 8.98684 5.75006 8.67938C5.74256 8.5597 5.74256 8.43967 5.75006 8.32C5.8407 7.7706 6.12879 7.27318 6.56022 6.92115C6.99166 6.56912 7.53677 6.38669 8.09318 6.40813H14.7344C15.2762 6.40765 15.8005 6.59961 16.2138 6.94978C16.6272 7.29995 16.9027 7.78555 16.9913 8.32H19.1476C19.0573 7.21159 18.5532 6.17775 17.7356 5.424C16.9179 4.67026 15.8465 4.25182 14.7344 4.25188H12.4632V0.945625H10.6663V4.25188H8.09318C6.98111 4.25182 5.90974 4.67026 5.09207 5.424C4.2744 6.17775 3.77033 7.21159 3.68006 8.32C3.67256 8.43967 3.67256 8.5597 3.68006 8.67938C3.68006 9.25891 3.79421 9.83278 4.01599 10.3682C4.23777 10.9036 4.56284 11.3901 4.97263 11.7999C5.80026 12.6275 6.92275 13.0925 8.09318 13.0925H14.9069C15.2119 13.0848 15.5153 13.1383 15.7993 13.2497C16.0833 13.3611 16.342 13.5283 16.5604 13.7413C16.7788 13.9543 16.9523 14.2088 17.0707 14.49C17.1892 14.7711 17.2502 15.0731 17.2501 15.3781C17.2639 15.5407 17.2639 15.7043 17.2501 15.8669C17.1359 16.3727 16.8532 16.8246 16.4483 17.1485C16.0434 17.4724 15.5404 17.649 15.0219 17.6494H8.26568C7.74718 17.649 7.24419 17.4724 6.8393 17.1485C6.43442 16.8246 6.1517 16.3727 6.03756 15.8669H3.86693C3.99047 16.9469 4.50706 17.9438 5.31826 18.6675C6.12946 19.3913 7.17857 19.7912 8.26568 19.7913H10.6663V23.0544H12.4632V19.7913H14.9069C15.994 19.7912 17.0432 19.3913 17.8544 18.6675C18.6656 17.9438 19.1821 16.9469 19.3057 15.8669V15.3781C19.304 14.7324 19.1601 14.0951 18.8843 13.5112C18.6086 12.9274 18.2077 12.4115 17.7101 12Z" fill="#1E96B1"/>
</g>
<defs>
<clipPath id="clip0_305_4435">
<rect width="23" height="23" fill="white" transform="translate(0 0.5)"/>
</clipPath>
</defs>
</svg>
