<svg width="16" height="15" viewBox="0 0 16 15" fill="none" xmlns="http://www.w3.org/2000/svg">
<g id="ph:lock-light">
<path id="Vector" d="M12.6875 4.80469H10.6953V3.28125C10.6953 2.56641 10.4113 1.88085 9.90587 1.37538C9.4004 0.869907 8.71484 0.585938 8 0.585938C7.28516 0.585938 6.5996 0.869907 6.09413 1.37538C5.58866 1.88085 5.30469 2.56641 5.30469 3.28125V4.80469H3.3125C3.09494 4.80469 2.88629 4.89111 2.73245 5.04495C2.57861 5.19879 2.49219 5.40744 2.49219 5.625V12.1875C2.49219 12.4051 2.57861 12.6137 2.73245 12.7675C2.88629 12.9214 3.09494 13.0078 3.3125 13.0078H12.6875C12.9051 13.0078 13.1137 12.9214 13.2675 12.7675C13.4214 12.6137 13.5078 12.4051 13.5078 12.1875V5.625C13.5078 5.40744 13.4214 5.19879 13.2675 5.04495C13.1137 4.89111 12.9051 4.80469 12.6875 4.80469ZM6.00781 3.28125C6.00781 2.75289 6.2177 2.24617 6.59131 1.87256C6.96492 1.49895 7.47164 1.28906 8 1.28906C8.52836 1.28906 9.03508 1.49895 9.40869 1.87256C9.7823 2.24617 9.99219 2.75289 9.99219 3.28125V4.80469H6.00781V3.28125ZM12.8047 12.1875C12.8047 12.2186 12.7923 12.2484 12.7704 12.2704C12.7484 12.2923 12.7186 12.3047 12.6875 12.3047H3.3125C3.28142 12.3047 3.25161 12.2923 3.22964 12.2704C3.20766 12.2484 3.19531 12.2186 3.19531 12.1875V5.625C3.19531 5.59392 3.20766 5.56411 3.22964 5.54214C3.25161 5.52016 3.28142 5.50781 3.3125 5.50781H12.6875C12.7186 5.50781 12.7484 5.52016 12.7704 5.54214C12.7923 5.56411 12.8047 5.59392 12.8047 5.625V12.1875ZM8.58594 8.90625C8.58594 9.02214 8.55157 9.13542 8.48719 9.23178C8.42281 9.32814 8.33129 9.40324 8.22423 9.44759C8.11716 9.49193 7.99935 9.50354 7.88569 9.48093C7.77203 9.45832 7.66762 9.40252 7.58568 9.32057C7.50373 9.23863 7.44793 9.13422 7.42532 9.02056C7.40271 8.9069 7.41432 8.78909 7.45866 8.68202C7.50301 8.57496 7.57811 8.48344 7.67447 8.41906C7.77083 8.35468 7.88411 8.32031 8 8.32031C8.1554 8.32031 8.30444 8.38204 8.41432 8.49193C8.52421 8.60181 8.58594 8.75085 8.58594 8.90625Z" fill="#344B57"/>
</g>
</svg>
