<svg width="62" height="62" viewBox="0 0 62 62" fill="none" xmlns="http://www.w3.org/2000/svg">
<circle cx="31" cy="31" r="31" fill="white"/>
<path d="M31.6431 19.1308C31.6106 19.1145 28.3858 17.5831 25.8198 17.3878C23.1228 17.1778 20.4203 18.6092 20.3924 18.6247L20.0274 17.9404C20.1452 17.8776 22.9569 16.3966 25.8787 16.6144C28.5904 16.8221 31.84 18.3666 31.9771 18.4317L31.6431 19.1308Z" fill="#111111"/>
<path d="M28.9167 20.6551L28.5772 19.9584L31.2355 18.6626L29.5181 16.3027L30.145 15.847L32.4057 18.9532L28.9167 20.6551Z" fill="#111111"/>
<path d="M17.3428 22.6833L17.0088 21.9843C17.146 21.9192 20.3955 20.3746 23.108 20.1669C26.0205 19.9545 28.8407 21.4301 28.9585 21.4929L28.5935 22.1772C28.5664 22.1625 25.8554 20.7303 23.1669 20.9403C20.6009 21.1356 17.3754 22.6678 17.3428 22.6833Z" fill="#111111"/>
<path d="M20.07 24.2078L16.5802 22.5059L18.8409 19.3997L19.4678 19.8554L17.7505 22.2152L20.4087 23.511L20.07 24.2078Z" fill="#111111"/>
<path d="M34.6369 45.5644C33.6504 45.5644 32.6498 45.4575 31.7446 45.256C30.2001 44.9119 26.9505 42.4326 26.2631 41.7204C25.6415 41.0764 23.9768 38.6041 23.7327 36.593C23.6257 35.7173 24.2977 33.1078 25.1199 32.1794C25.2827 31.997 25.4511 31.8753 25.6252 31.8144L25.5191 31.5757C24.9843 30.4116 24.1923 29.067 23.4932 27.8797C22.3098 25.8693 21.8688 25.0664 21.9432 24.6092C22.068 23.8342 22.7035 22.9398 23.5498 22.7833L23.6994 22.7531C23.9175 22.7001 24.1407 22.671 24.3651 22.6663C25.1037 22.6663 25.7802 23.0879 26.4956 23.9923C27.1148 24.7758 28.1176 26.9388 28.9616 28.8957C28.9229 28.4028 28.9376 27.9913 29.0414 27.751C29.4599 26.78 30.6271 26.3979 30.9828 26.3754L31.0704 26.3731C31.2959 26.3731 32.4499 26.4297 32.9846 27.5519C33.0699 27.7317 33.1513 27.9254 33.2264 28.1215C33.3225 27.7882 33.4589 27.4976 33.6535 27.3318C34.2518 26.8234 35.0709 26.5599 35.6282 26.7164C36.2272 26.8846 36.7318 27.5185 36.9139 28.3346C36.9922 28.1579 37.0867 28.0145 37.1983 27.9308C37.74 27.5247 38.6824 27.4813 39.2792 27.8952C40.0077 28.4005 41.6832 31.4276 41.9777 34.075C42.2188 36.2512 42.4908 40.1402 41.5926 41.7429C40.6595 43.4053 38.7506 44.6964 37.3719 45.1916C36.7008 45.4311 35.7297 45.5644 34.6369 45.5644ZM25.9027 32.5599C25.3881 32.6111 24.3798 35.4941 24.5015 36.4977C24.72 38.3019 26.2693 40.6098 26.8211 41.1818C27.4775 41.8622 30.5852 44.2027 31.912 44.498C32.7638 44.6879 33.7046 44.7886 34.6362 44.7886C35.6274 44.7886 36.5279 44.6685 37.1076 44.4593C38.15 44.0849 40.0224 42.9511 40.9144 41.36C41.4941 40.3285 41.6003 37.7028 41.2058 34.1587C40.9261 31.6338 39.2931 28.8469 38.8367 28.5291C38.4701 28.2757 37.8594 28.3997 37.6618 28.5485C37.5525 28.6733 37.3905 29.4033 37.3277 30.0985L37.1332 32.2429L36.5682 30.1652C36.5682 30.1652 36.3171 29.2429 36.159 28.5121C36.0242 27.8944 35.6801 27.5333 35.4174 27.4604C35.1283 27.3783 34.5478 27.5852 34.1549 27.92C33.941 28.1021 33.7821 29.1546 33.7751 29.9838L33.7457 33.2055L33.0102 30.0683C33.0071 30.0543 32.6994 28.7485 32.2848 27.8828C31.95 27.1806 31.2138 27.145 31.0704 27.145C30.8449 27.1605 30.0195 27.4379 29.7529 28.0556C29.5669 28.4888 29.9885 30.7495 30.4853 32.5948L29.7506 32.8366C29.725 32.7692 27.0241 25.9065 25.8887 24.4705C25.1587 23.5467 24.6704 23.4397 24.3666 23.4397C24.1961 23.4397 24.0318 23.4738 23.859 23.5102L23.6924 23.5436C23.2568 23.6242 22.7988 24.1798 22.7081 24.7324C22.7151 25.0285 23.5172 26.3909 24.162 27.486C24.8696 28.6888 25.6725 30.052 26.2235 31.2509C26.3636 31.5563 26.4938 31.8715 26.6141 32.1964L26.6157 32.2019C27.4566 33.3605 27.8751 37.1712 27.9208 37.609L27.1512 37.6982C27.1481 37.671 26.7932 34.957 25.9329 32.5886L25.9027 32.5599Z" fill="#111111"/>
</svg>
